<svg width="16" height="16" viewBox="0 0 16 16" fill="none" xmlns="http://www.w3.org/2000/svg">
<path d="M5.99616 1.33337C4.1315 1.37604 3.04283 1.55404 2.29816 2.29804C1.5535 3.04204 1.37616 4.13137 1.3335 5.99604M10.0042 1.33337C11.8688 1.37604 12.9575 1.55404 13.7022 2.29804C14.4468 3.04204 14.6242 4.13137 14.6668 5.99604M10.0042 14.6667C11.8688 14.624 12.9575 14.446 13.7022 13.702C14.4468 12.958 14.6242 11.8687 14.6668 10.004M5.99616 14.6667C4.1315 14.624 3.04283 14.446 2.29816 13.702C1.5535 12.958 1.37616 11.8687 1.3335 10.004" stroke="#EF7B16" stroke-width="0.996951" stroke-linecap="round" stroke-linejoin="round"/>
<path d="M11.3335 4.66675H11.3395" stroke="#EF7B16" stroke-width="1.32927" stroke-linecap="round" stroke-linejoin="round"/>
<path d="M8.66667 4.00012V6.00012C8.66667 7.25745 8.66667 7.88545 8.276 8.27612C7.88533 8.66679 7.25733 8.66679 6 8.66679H4" stroke="#EF7B16" stroke-width="0.996951" stroke-linecap="round"/>
<path d="M4.19533 4.19546C4 4.39079 4 4.70479 4 5.33346C4 5.96212 4 6.27612 4.19533 6.47146M4.19533 4.19546C4.39067 4.00012 4.70467 4.00012 5.33333 4.00012C5.962 4.00012 6.276 4.00012 6.47133 4.19546M4.19533 6.47146C4.39067 6.66679 4.70467 6.66679 5.33333 6.66679C5.962 6.66679 6.276 6.66679 6.47133 6.47146M6.47133 6.47146C6.66667 6.27612 6.66667 5.96212 6.66667 5.33346C6.66667 4.70479 6.66667 4.39079 6.47133 4.19546M11.3333 10.0001C11.6473 10.0001 11.8047 10.0001 11.9027 10.0975C12 10.1955 12 10.3528 12 10.6668V11.3335C12 11.6475 12 11.8048 11.9027 11.9028C11.8047 12.0001 11.6467 12.0001 11.3333 12.0001H10C9.686 12.0001 9.52867 12.0001 9.43067 11.9028C9.33333 11.8048 9.33333 11.6468 9.33333 11.3335V10.6668C9.33333 10.3528 9.33333 10.1955 9.43067 10.0975C9.52867 10.0001 9.68667 10.0001 10 10.0001H11.3333Z" stroke="#EF7B16" stroke-width="0.996951"/>
<path d="M4 12.0001H7.33333M11.3333 6.66675V8.00008" stroke="#EF7B16" stroke-width="0.996951" stroke-linecap="round"/>
</svg>
