<svg width="16" height="16" viewBox="0 0 16 16" fill="none" xmlns="http://www.w3.org/2000/svg">
<path d="M8.00017 10.6667C7.46973 10.6667 6.96102 10.456 6.58595 10.0809C6.21088 9.70581 6.00017 9.1971 6.00017 8.66667C6.00017 7.92 6.40683 7.26667 7.00017 6.92667L13.4735 3.18L9.78683 9.56667C9.4535 10.22 8.78017 10.6667 8.00017 10.6667ZM8.00017 2C9.20683 2 10.3335 2.33333 11.3135 2.88L9.9135 3.68667C9.3335 3.46 8.66683 3.33333 8.00017 3.33333C6.58568 3.33333 5.22912 3.89524 4.22893 4.89543C3.22874 5.89562 2.66683 7.25218 2.66683 8.66667C2.66683 10.14 3.26017 11.4733 4.22683 12.4333H4.2335C4.4935 12.6933 4.4935 13.1133 4.2335 13.3733C3.9735 13.6333 3.54683 13.6333 3.28683 13.38C2.66685 12.7617 2.17512 12.0271 1.83991 11.2182C1.50469 10.4094 1.3326 9.54224 1.3335 8.66667C1.3335 6.89856 2.03588 5.20286 3.28612 3.95262C4.53636 2.70238 6.23206 2 8.00017 2ZM14.6668 8.66667C14.6668 10.5067 13.9202 12.1733 12.7135 13.38C12.4535 13.6333 12.0335 13.6333 11.7735 13.3733C11.7117 13.3117 11.6627 13.2384 11.6292 13.1577C11.5958 13.0771 11.5785 12.9906 11.5785 12.9033C11.5785 12.816 11.5958 12.7296 11.6292 12.6489C11.6627 12.5683 11.7117 12.495 11.7735 12.4333C12.2693 11.9396 12.6624 11.3525 12.9302 10.706C13.1979 10.0595 13.335 9.36641 13.3335 8.66667C13.3335 8 13.2068 7.33333 12.9735 6.73333L13.7802 5.33333C14.3335 6.33333 14.6668 7.45333 14.6668 8.66667Z" fill="#8A43E1"/>
</svg>
