<svg width="35" height="35" viewBox="0 0 35 35" fill="none" xmlns="http://www.w3.org/2000/svg">
<path d="M0 7.95455C0 3.56137 3.56137 0 7.95455 0H27.0455C31.4386 0 35 3.56137 35 7.95455V27.0455C35 31.4386 31.4386 35 27.0455 35H7.95455C3.56137 35 0 31.4386 0 27.0455V7.95455Z" fill="url(#paint0_linear_513_842)"/>
<path fill-rule="evenodd" clip-rule="evenodd" d="M10.3413 13.3239C10.3413 12.9944 10.6084 12.7273 10.9379 12.7273H24.0629C24.3924 12.7273 24.6595 12.9944 24.6595 13.3239C24.6595 13.6534 24.3924 13.9205 24.0629 13.9205H10.9379C10.6084 13.9205 10.3413 13.6534 10.3413 13.3239ZM10.3413 17.5C10.3413 17.1705 10.6084 16.9034 10.9379 16.9034H24.0629C24.3924 16.9034 24.6595 17.1705 24.6595 17.5C24.6595 17.8295 24.3924 18.0966 24.0629 18.0966H10.9379C10.6084 18.0966 10.3413 17.8295 10.3413 17.5ZM16.9038 21.6762C16.9038 21.3467 17.1709 21.0796 17.5004 21.0796H24.0629C24.3924 21.0796 24.6595 21.3467 24.6595 21.6762C24.6595 22.0056 24.3924 22.2727 24.0629 22.2727H17.5004C17.1709 22.2727 16.9038 22.0056 16.9038 21.6762Z" fill="white"/>
<defs>
<linearGradient id="paint0_linear_513_842" x1="0" y1="17.5" x2="35" y2="17.5" gradientUnits="userSpaceOnUse">
<stop stop-color="#005DFF"/>
<stop offset="1" stop-color="#5F5CA4"/>
</linearGradient>
</defs>
</svg>
