<svg width="239" height="64" viewBox="0 0 239 64" fill="none" xmlns="http://www.w3.org/2000/svg">
<g filter="url(#filter0_d_484_6555)">
<g clip-path="url(#clip0_484_6555)">
<rect x="1" y="1" width="237" height="62" rx="31" fill="#1C1C1C"/>
<g opacity="0.6" filter="url(#filter1_f_484_6555)">
<rect x="102" y="9" width="128" height="46" rx="23" fill="url(#paint0_linear_484_6555)" fill-opacity="0.8"/>
</g>
<g filter="url(#filter2_d_484_6555)">
<path d="M33.2679 41.9963L39.5559 24.1163H43.0599L49.3479 41.9963H46.3239L44.9559 37.9883H37.6839L36.2919 41.9963H33.2679ZM38.4999 35.4683H44.0919L40.9239 26.1083H41.7159L38.4999 35.4683ZM50.9651 46.7963V29.0123H53.5571V31.7003L53.2451 31.0763C53.7251 30.3403 54.3651 29.7643 55.1651 29.3483C55.9651 28.9323 56.8771 28.7243 57.9011 28.7243C59.1331 28.7243 60.2371 29.0203 61.2131 29.6123C62.2051 30.2043 62.9811 31.0123 63.5411 32.0363C64.1171 33.0603 64.4051 34.2123 64.4051 35.4923C64.4051 36.7723 64.1171 37.9243 63.5411 38.9483C62.9811 39.9723 62.2131 40.7883 61.2371 41.3963C60.2611 41.9883 59.1491 42.2843 57.9011 42.2843C56.8931 42.2843 55.9731 42.0763 55.1411 41.6603C54.3251 41.2443 53.6931 40.6443 53.2451 39.8603L53.6771 39.3563V46.7963H50.9651ZM57.6371 39.7643C58.4051 39.7643 59.0851 39.5803 59.6771 39.2123C60.2691 38.8443 60.7331 38.3403 61.0691 37.7003C61.4211 37.0443 61.5971 36.3083 61.5971 35.4923C61.5971 34.6763 61.4211 33.9483 61.0691 33.3083C60.7331 32.6683 60.2691 32.1643 59.6771 31.7963C59.0851 31.4283 58.4051 31.2443 57.6371 31.2443C56.8851 31.2443 56.2051 31.4283 55.5971 31.7963C55.0051 32.1643 54.5331 32.6683 54.1811 33.3083C53.8451 33.9483 53.6771 34.6763 53.6771 35.4923C53.6771 36.3083 53.8451 37.0443 54.1811 37.7003C54.5331 38.3403 55.0051 38.8443 55.5971 39.2123C56.2051 39.5803 56.8851 39.7643 57.6371 39.7643ZM66.8032 46.7963V29.0123H69.3952V31.7003L69.0832 31.0763C69.5632 30.3403 70.2032 29.7643 71.0032 29.3483C71.8032 28.9323 72.7152 28.7243 73.7392 28.7243C74.9712 28.7243 76.0752 29.0203 77.0512 29.6123C78.0432 30.2043 78.8192 31.0123 79.3792 32.0363C79.9552 33.0603 80.2432 34.2123 80.2432 35.4923C80.2432 36.7723 79.9552 37.9243 79.3792 38.9483C78.8192 39.9723 78.0512 40.7883 77.0752 41.3963C76.0992 41.9883 74.9872 42.2843 73.7392 42.2843C72.7312 42.2843 71.8112 42.0763 70.9792 41.6603C70.1632 41.2443 69.5312 40.6443 69.0832 39.8603L69.5152 39.3563V46.7963H66.8032ZM73.4752 39.7643C74.2432 39.7643 74.9232 39.5803 75.5152 39.2123C76.1072 38.8443 76.5712 38.3403 76.9072 37.7003C77.2592 37.0443 77.4352 36.3083 77.4352 35.4923C77.4352 34.6763 77.2592 33.9483 76.9072 33.3083C76.5712 32.6683 76.1072 32.1643 75.5152 31.7963C74.9232 31.4283 74.2432 31.2443 73.4752 31.2443C72.7232 31.2443 72.0432 31.4283 71.4352 31.7963C70.8432 32.1643 70.3712 32.6683 70.0192 33.3083C69.6832 33.9483 69.5152 34.6763 69.5152 35.4923C69.5152 36.3083 69.6832 37.0443 70.0192 37.7003C70.3712 38.3403 70.8432 38.8443 71.4352 39.2123C72.0432 39.5803 72.7232 39.7643 73.4752 39.7643ZM93.1247 42.2843C92.0047 42.2843 90.9647 42.0763 90.0047 41.6603C89.0447 41.2283 88.2287 40.6443 87.5567 39.9083C86.8847 39.1723 86.3887 38.3243 86.0687 37.3643L88.4687 36.3563C88.9007 37.4603 89.5327 38.3083 90.3647 38.9003C91.1967 39.4923 92.1567 39.7883 93.2447 39.7883C93.8847 39.7883 94.4447 39.6923 94.9247 39.5003C95.4047 39.2923 95.7727 39.0043 96.0287 38.6363C96.3007 38.2683 96.4367 37.8443 96.4367 37.3643C96.4367 36.7083 96.2527 36.1883 95.8847 35.8043C95.5167 35.4203 94.9727 35.1163 94.2527 34.8923L90.8927 33.8363C89.5487 33.4203 88.5247 32.7883 87.8207 31.9403C87.1167 31.0763 86.7647 30.0683 86.7647 28.9163C86.7647 27.9083 87.0127 27.0283 87.5087 26.2763C88.0047 25.5083 88.6847 24.9083 89.5487 24.4763C90.4287 24.0443 91.4287 23.8283 92.5487 23.8283C93.6207 23.8283 94.5967 24.0203 95.4767 24.4043C96.3567 24.7723 97.1087 25.2843 97.7327 25.9403C98.3727 26.5963 98.8367 27.3563 99.1247 28.2203L96.7727 29.2523C96.4207 28.3083 95.8687 27.5803 95.1167 27.0683C94.3807 26.5563 93.5247 26.3003 92.5487 26.3003C91.9567 26.3003 91.4367 26.4043 90.9887 26.6123C90.5407 26.8043 90.1887 27.0923 89.9327 27.4763C89.6927 27.8443 89.5727 28.2763 89.5727 28.7723C89.5727 29.3483 89.7567 29.8603 90.1247 30.3083C90.4927 30.7563 91.0527 31.0923 91.8047 31.3163L94.9247 32.3003C96.3487 32.7323 97.4207 33.3563 98.1407 34.1723C98.8607 34.9723 99.2207 35.9723 99.2207 37.1723C99.2207 38.1643 98.9567 39.0443 98.4287 39.8123C97.9167 40.5803 97.2047 41.1883 96.2927 41.6363C95.3807 42.0683 94.3247 42.2843 93.1247 42.2843ZM107.512 42.1403C106.152 42.1403 105.096 41.7563 104.344 40.9883C103.592 40.2203 103.216 39.1403 103.216 37.7483V31.4603H100.936V29.0123H101.296C101.904 29.0123 102.376 28.8363 102.712 28.4843C103.048 28.1323 103.216 27.6523 103.216 27.0443V26.0363H105.928V29.0123H108.88V31.4603H105.928V37.6283C105.928 38.0763 106 38.4603 106.144 38.7803C106.288 39.0843 106.52 39.3243 106.84 39.5003C107.16 39.6603 107.576 39.7403 108.088 39.7403C108.216 39.7403 108.36 39.7323 108.52 39.7163C108.68 39.7003 108.832 39.6843 108.976 39.6683V41.9963C108.752 42.0283 108.504 42.0603 108.232 42.0923C107.96 42.1243 107.72 42.1403 107.512 42.1403ZM117.412 42.2843C116.164 42.2843 115.02 41.9883 113.98 41.3963C112.956 40.8043 112.14 39.9963 111.532 38.9723C110.924 37.9483 110.62 36.7883 110.62 35.4923C110.62 34.1803 110.924 33.0203 111.532 32.0123C112.14 30.9883 112.956 30.1883 113.98 29.6123C115.004 29.0203 116.148 28.7243 117.412 28.7243C118.692 28.7243 119.836 29.0203 120.844 29.6123C121.868 30.1883 122.676 30.9883 123.268 32.0123C123.876 33.0203 124.18 34.1803 124.18 35.4923C124.18 36.8043 123.876 37.9723 123.268 38.9963C122.66 40.0203 121.844 40.8283 120.82 41.4203C119.796 41.9963 118.66 42.2843 117.412 42.2843ZM117.412 39.7643C118.18 39.7643 118.86 39.5803 119.452 39.2123C120.044 38.8443 120.508 38.3403 120.844 37.7003C121.196 37.0443 121.372 36.3083 121.372 35.4923C121.372 34.6763 121.196 33.9483 120.844 33.3083C120.508 32.6683 120.044 32.1643 119.452 31.7963C118.86 31.4283 118.18 31.2443 117.412 31.2443C116.66 31.2443 115.98 31.4283 115.372 31.7963C114.78 32.1643 114.308 32.6683 113.956 33.3083C113.62 33.9483 113.452 34.6763 113.452 35.4923C113.452 36.3083 113.62 37.0443 113.956 37.7003C114.308 38.3403 114.78 38.8443 115.372 39.2123C115.98 39.5803 116.66 39.7643 117.412 39.7643ZM126.588 41.9963V29.0123H129.18V31.6283L128.94 31.2443C129.228 30.3963 129.692 29.7883 130.332 29.4203C130.972 29.0363 131.74 28.8443 132.636 28.8443H133.428V31.3163H132.3C131.404 31.3163 130.676 31.5963 130.116 32.1563C129.572 32.7003 129.3 33.4843 129.3 34.5083V41.9963H126.588ZM141.139 42.2843C139.843 42.2843 138.691 41.9883 137.683 41.3963C136.691 40.7883 135.915 39.9723 135.355 38.9483C134.795 37.9083 134.515 36.7483 134.515 35.4683C134.515 34.1563 134.795 32.9963 135.355 31.9883C135.931 30.9803 136.699 30.1883 137.659 29.6123C138.619 29.0203 139.707 28.7243 140.923 28.7243C141.899 28.7243 142.771 28.8923 143.539 29.2283C144.307 29.5643 144.955 30.0283 145.483 30.6203C146.011 31.1963 146.411 31.8603 146.683 32.6123C146.971 33.3643 147.115 34.1643 147.115 35.0123C147.115 35.2203 147.107 35.4363 147.091 35.6603C147.075 35.8843 147.043 36.0923 146.995 36.2843H136.651V34.1243H145.459L144.163 35.1083C144.323 34.3243 144.267 33.6283 143.995 33.0203C143.739 32.3963 143.339 31.9083 142.795 31.5563C142.267 31.1883 141.643 31.0043 140.923 31.0043C140.203 31.0043 139.563 31.1883 139.003 31.5563C138.443 31.9083 138.011 32.4203 137.707 33.0923C137.403 33.7483 137.283 34.5483 137.347 35.4923C137.267 36.3723 137.387 37.1403 137.707 37.7963C138.043 38.4523 138.507 38.9643 139.099 39.3323C139.707 39.7003 140.395 39.8843 141.163 39.8843C141.947 39.8843 142.611 39.7083 143.155 39.3563C143.715 39.0043 144.155 38.5483 144.475 37.9883L146.683 39.0683C146.427 39.6763 146.027 40.2283 145.483 40.7243C144.955 41.2043 144.315 41.5883 143.563 41.8763C142.827 42.1483 142.019 42.2843 141.139 42.2843Z" fill="white"/>
</g>
<g filter="url(#filter3_di_484_6555)">
<rect x="159.004" y="8.99634" width="46" height="46" rx="23" fill="#F7F8F8" shape-rendering="crispEdges"/>
<rect x="159.604" y="9.59634" width="44.8" height="44.8" rx="22.4" stroke="url(#paint1_linear_484_6555)" stroke-width="1.2" shape-rendering="crispEdges"/>
<path d="M182.004 44.2463C188.769 44.2463 194.254 38.7618 194.254 31.9963C194.254 25.2308 188.769 19.7463 182.004 19.7463C175.238 19.7463 169.754 25.2308 169.754 31.9963C169.754 38.7618 175.238 44.2463 182.004 44.2463Z" fill="url(#paint2_linear_484_6555)"/>
<path d="M184.145 25.5686C184.41 25.1065 184.251 24.5162 183.791 24.2502C183.331 23.9842 182.744 24.1432 182.479 24.6054L182.017 25.4115L181.555 24.6054C181.291 24.1432 180.703 23.9842 180.243 24.2502C179.783 24.5162 179.625 25.1065 179.89 25.5686L180.908 27.3469L177.686 32.9719H175.09C174.559 32.9719 174.129 33.4041 174.129 33.9374C174.129 34.4706 174.559 34.9028 175.09 34.9028H184.132C184.212 34.6935 184.295 34.3344 184.206 34.0044C184.073 33.5083 183.579 32.9719 182.751 32.9719H179.904L184.145 25.5686Z" fill="white"/>
<path d="M178.186 35.9706C178.022 35.7876 177.655 35.4953 177.333 35.3991C176.842 35.2524 176.469 35.3445 176.282 35.4246L175.566 36.6742C175.301 37.1363 175.459 37.7266 175.919 37.9925C176.379 38.2585 176.967 38.0996 177.232 37.6374L178.186 35.9706Z" fill="white"/>
<path d="M187.454 34.9028H188.917C189.448 34.9028 189.878 34.4706 189.878 33.9374C189.878 33.4041 189.448 32.9719 188.917 32.9719H186.348L183.453 27.9198C183.238 28.1251 182.826 28.6495 182.764 29.244C182.684 30.0083 182.804 30.652 183.164 31.2823C184.376 33.4012 185.589 35.5193 186.803 37.6373C187.068 38.0995 187.655 38.2585 188.115 37.9924C188.575 37.7264 188.733 37.1362 188.469 36.6741L187.454 34.9028Z" fill="white"/>
</g>
</g>
<rect x="1.5" y="1.5" width="236" height="61" rx="30.5" stroke="url(#paint3_linear_484_6555)"/>
</g>
<defs>
<filter id="filter0_d_484_6555" x="0" y="0" width="239" height="64" filterUnits="userSpaceOnUse" color-interpolation-filters="sRGB">
<feFlood flood-opacity="0" result="BackgroundImageFix"/>
<feColorMatrix in="SourceAlpha" type="matrix" values="0 0 0 0 0 0 0 0 0 0 0 0 0 0 0 0 0 0 127 0" result="hardAlpha"/>
<feMorphology radius="1" operator="dilate" in="SourceAlpha" result="effect1_dropShadow_484_6555"/>
<feOffset/>
<feComposite in2="hardAlpha" operator="out"/>
<feColorMatrix type="matrix" values="0 0 0 0 1 0 0 0 0 1 0 0 0 0 1 0 0 0 0.24 0"/>
<feBlend mode="normal" in2="BackgroundImageFix" result="effect1_dropShadow_484_6555"/>
<feBlend mode="normal" in="SourceGraphic" in2="effect1_dropShadow_484_6555" result="shape"/>
</filter>
<filter id="filter1_f_484_6555" x="74" y="-19" width="184" height="102" filterUnits="userSpaceOnUse" color-interpolation-filters="sRGB">
<feFlood flood-opacity="0" result="BackgroundImageFix"/>
<feBlend mode="normal" in="SourceGraphic" in2="BackgroundImageFix" result="shape"/>
<feGaussianBlur stdDeviation="14" result="effect1_foregroundBlur_484_6555"/>
</filter>
<filter id="filter2_d_484_6555" x="32.9676" y="23.8283" width="114.448" height="23.668" filterUnits="userSpaceOnUse" color-interpolation-filters="sRGB">
<feFlood flood-opacity="0" result="BackgroundImageFix"/>
<feColorMatrix in="SourceAlpha" type="matrix" values="0 0 0 0 0 0 0 0 0 0 0 0 0 0 0 0 0 0 127 0" result="hardAlpha"/>
<feOffset dy="0.4"/>
<feGaussianBlur stdDeviation="0.15"/>
<feComposite in2="hardAlpha" operator="out"/>
<feColorMatrix type="matrix" values="0 0 0 0 0 0 0 0 0 0 0 0 0 0 0 0 0 0 0.08 0"/>
<feBlend mode="normal" in2="BackgroundImageFix" result="effect1_dropShadow_484_6555"/>
<feBlend mode="normal" in="SourceGraphic" in2="effect1_dropShadow_484_6555" result="shape"/>
</filter>
<filter id="filter3_di_484_6555" x="153.004" y="4.99634" width="58" height="60" filterUnits="userSpaceOnUse" color-interpolation-filters="sRGB">
<feFlood flood-opacity="0" result="BackgroundImageFix"/>
<feColorMatrix in="SourceAlpha" type="matrix" values="0 0 0 0 0 0 0 0 0 0 0 0 0 0 0 0 0 0 127 0" result="hardAlpha"/>
<feOffset dy="4"/>
<feGaussianBlur stdDeviation="3"/>
<feComposite in2="hardAlpha" operator="out"/>
<feColorMatrix type="matrix" values="0 0 0 0 0 0 0 0 0 0 0 0 0 0 0 0 0 0 0.3 0"/>
<feBlend mode="normal" in2="BackgroundImageFix" result="effect1_dropShadow_484_6555"/>
<feBlend mode="normal" in="SourceGraphic" in2="effect1_dropShadow_484_6555" result="shape"/>
<feColorMatrix in="SourceAlpha" type="matrix" values="0 0 0 0 0 0 0 0 0 0 0 0 0 0 0 0 0 0 127 0" result="hardAlpha"/>
<feOffset dx="-4" dy="-4"/>
<feGaussianBlur stdDeviation="3"/>
<feComposite in2="hardAlpha" operator="arithmetic" k2="-1" k3="1"/>
<feColorMatrix type="matrix" values="0 0 0 0 0.729412 0 0 0 0 0.784314 0 0 0 0 0.819608 0 0 0 0.3 0"/>
<feBlend mode="normal" in2="shape" result="effect2_innerShadow_484_6555"/>
</filter>
<linearGradient id="paint0_linear_484_6555" x1="230" y1="32" x2="102" y2="32" gradientUnits="userSpaceOnUse">
<stop stop-color="#6E51E0"/>
<stop offset="1" stop-color="#6E51E0" stop-opacity="0"/>
</linearGradient>
<linearGradient id="paint1_linear_484_6555" x1="174.028" y1="11.7085" x2="188.793" y2="54.9963" gradientUnits="userSpaceOnUse">
<stop stop-color="white"/>
<stop offset="1" stop-color="#BAC8D1"/>
</linearGradient>
<linearGradient id="paint2_linear_484_6555" x1="182.004" y1="19.7463" x2="182.004" y2="44.2463" gradientUnits="userSpaceOnUse">
<stop stop-color="#2AC9FA"/>
<stop offset="1" stop-color="#1F65EB"/>
</linearGradient>
<linearGradient id="paint3_linear_484_6555" x1="1" y1="32" x2="238" y2="32" gradientUnits="userSpaceOnUse">
<stop stop-color="#3C3655"/>
<stop offset="1" stop-color="#3C3655"/>
</linearGradient>
<clipPath id="clip0_484_6555">
<rect x="1" y="1" width="237" height="62" rx="31" fill="white"/>
</clipPath>
</defs>
</svg>
