<svg width="356" height="93" viewBox="0 0 356 93" fill="none" xmlns="http://www.w3.org/2000/svg">
<g filter="url(#filter0_dd_484_6343)">
<rect x="0.90332" y="13.1702" width="351.497" height="78.1105" rx="32" transform="rotate(-2 0.90332 13.1702)" fill="white"/>
<rect x="1.16189" y="13.4113" width="350.997" height="77.6105" rx="31.75" transform="rotate(-2 1.16189 13.4113)" stroke="#EAE5FF" stroke-width="0.5"/>
<path d="M31.2812 58.1927L31.1474 54.361L27.3157 54.4948L27.2686 53.1457L31.1003 53.0119L30.9671 49.1982L32.3163 49.1511L32.4494 52.9647L36.2631 52.8316L36.3102 54.1807L32.4966 54.3139L32.6304 58.1456L31.2812 58.1927ZM40.4216 57.8735L39.9976 45.7309L37.4791 45.8189L37.4352 44.5596L41.3927 44.4214L41.8607 57.8232L40.4216 57.8735ZM46.2098 57.6714L50.656 51.4104L50.9202 51.2391C50.7503 51.5332 50.5484 51.7684 50.3144 51.9446C50.0804 52.1209 49.8208 52.2501 49.5355 52.3321C49.2502 52.4141 48.9336 52.4611 48.5858 52.4733C47.8063 52.5005 47.0984 52.3451 46.4623 52.0071C45.8257 51.6571 45.3104 51.1708 44.9164 50.5482C44.534 49.9131 44.3284 49.1819 44.2995 48.3544C44.271 47.5389 44.4315 46.8068 44.7811 46.1582C45.1427 45.5092 45.6408 44.9875 46.2754 44.5931C46.922 44.1983 47.6531 43.9867 48.4686 43.9582C49.3081 43.9289 50.0583 44.0948 50.7193 44.4559C51.3799 44.8051 51.9078 45.309 52.303 45.9676C52.6978 46.6142 52.9103 47.3693 52.9405 48.2327C52.9572 48.7124 52.9138 49.1882 52.8102 49.6601C52.7186 50.1316 52.5668 50.5992 52.3549 51.0629C52.1429 51.5266 51.871 51.9923 51.5392 52.4602L47.9367 57.6111L46.2098 57.6714ZM48.7205 51.1718C49.2841 51.1521 49.7774 51.0088 50.2004 50.7419C50.6229 50.463 50.9463 50.0975 51.1707 49.6454C51.4066 49.1808 51.5148 48.6668 51.4951 48.1031C51.475 47.5274 51.3313 47.0222 51.0639 46.5872C50.7962 46.1403 50.442 45.7984 50.0015 45.5617C49.5605 45.3129 49.0642 45.1982 48.5126 45.2174C47.9609 45.2367 47.4738 45.3858 47.0513 45.6647C46.6283 45.9316 46.2989 46.2973 46.063 46.7619C45.8266 47.2144 45.7185 47.7285 45.7386 48.3041C45.7583 48.8678 45.896 49.3733 46.1518 49.8206C46.4191 50.2556 46.7733 50.5974 47.2142 50.8462C47.6667 51.0825 48.1688 51.1911 48.7205 51.1718ZM60.7047 57.3813C59.6494 57.4182 58.7099 57.1628 57.8863 56.6152C57.0742 56.0552 56.4283 55.2673 55.9486 54.2514C55.4684 53.2235 55.2043 52.02 55.1561 50.6409C55.1079 49.2617 55.2877 48.0487 55.6954 47.0018C56.1027 45.943 56.6921 45.1119 57.4635 44.5086C58.2349 43.9053 59.1483 43.5852 60.2037 43.5484C61.259 43.5115 62.1925 43.7671 63.0041 44.3151C63.8157 44.8631 64.4616 45.6511 64.9418 46.6789C65.4215 47.6948 65.6855 48.8923 65.7337 50.2715C65.7818 51.6507 65.6023 52.8697 65.195 53.9285C64.7997 54.987 64.2163 55.8178 63.4449 56.4211C62.6735 57.0244 61.7601 57.3445 60.7047 57.3813ZM60.6576 56.0322C61.4251 56.0054 62.0886 55.748 62.6479 55.2602C63.2072 54.7724 63.6343 54.1091 63.9292 53.2703C64.2237 52.4195 64.3515 51.4364 64.3125 50.3211C64.2736 49.2058 64.0778 48.24 63.7251 47.4239C63.3719 46.5957 62.8996 45.9638 62.308 45.5282C61.7161 45.0805 61.0303 44.8703 60.2508 44.8976C59.4832 44.9244 58.8198 45.1817 58.2605 45.6695C57.7008 46.1453 57.2737 46.8086 56.9792 47.6594C56.6843 48.4982 56.5563 49.4753 56.5952 50.5906C56.6338 51.6939 56.8296 52.6597 57.1827 53.4879C57.5358 54.3161 58.0084 54.954 58.6004 55.4016C59.2043 55.8488 59.8901 56.059 60.6576 56.0322ZM77.5546 56.7929C76.6072 56.826 75.7319 56.6885 74.9286 56.3803C74.125 56.0602 73.4187 55.6045 72.8097 55.0134C72.2122 54.4099 71.737 53.6941 71.3838 52.8659C71.0307 52.0377 70.8366 51.1199 70.8014 50.1125C70.7662 49.1052 70.8959 48.1761 71.1904 47.3253C71.4848 46.4745 71.909 45.7272 72.4629 45.0835C73.0288 44.4393 73.7016 43.9356 74.4814 43.5721C75.2607 43.1967 76.1241 42.9924 77.0716 42.9594C77.983 42.9275 78.8042 43.0609 79.535 43.3596C80.2779 43.6579 80.9042 44.0563 81.4139 44.5548C81.9352 45.0409 82.3136 45.562 82.5491 46.1181L81.2207 46.7589C80.8577 45.9911 80.3202 45.3855 79.6083 44.942C78.908 44.4862 78.0781 44.275 77.1187 44.3085C76.1353 44.3429 75.268 44.6073 74.5168 45.1018C73.7656 45.5963 73.1888 46.2709 72.7863 47.1254C72.3835 47.968 72.2016 48.947 72.2405 50.0623C72.279 51.1656 72.5288 52.1295 72.9899 52.9539C73.4509 53.7783 74.0734 54.411 74.8573 54.8519C75.6407 55.2808 76.5241 55.4781 77.5075 55.4437C78.4669 55.4102 79.2803 55.1477 79.9475 54.6561C80.6268 54.1641 81.1207 53.5225 81.4293 52.7312L82.7992 53.2777C82.6026 53.837 82.2614 54.3832 81.7757 54.9165C81.3016 55.4373 80.7044 55.8724 79.9842 56.2218C79.2759 56.5707 78.4661 56.7611 77.5546 56.7929ZM89.3941 56.3795C88.4827 56.4113 87.6477 56.2243 86.889 55.8186C86.13 55.4008 85.5154 54.8219 85.0453 54.0819C84.5868 53.3294 84.3405 52.4675 84.3066 51.4961C84.2731 50.5366 84.459 49.6716 84.8644 48.901C85.2697 48.1304 85.8307 47.5164 86.5471 47.0592C87.2752 46.5895 88.1069 46.3383 89.0424 46.3056C89.9778 46.273 90.8188 46.4597 91.5655 46.8659C92.3241 47.2717 92.9265 47.845 93.3726 48.5859C93.8307 49.3263 94.0767 50.1823 94.1106 51.1537C94.145 52.1371 93.9537 53.0203 93.5368 53.8033C93.1194 54.5744 92.5465 55.1887 91.818 55.6464C91.1016 56.1037 90.2936 56.3481 89.3941 56.3795ZM89.347 55.0303C89.9946 55.0077 90.5706 54.8255 91.075 54.4837C91.5914 54.1414 91.9896 53.6833 92.2698 53.1091C92.5619 52.5346 92.6958 51.8995 92.6715 51.2039C92.6472 50.5084 92.4695 49.8902 92.1385 49.3494C91.8194 48.8082 91.3904 48.3849 90.8514 48.0796C90.3244 47.7738 89.7371 47.6322 89.0895 47.6548C88.4419 47.6774 87.8599 47.8598 87.3435 48.2021C86.8391 48.5439 86.4407 48.9961 86.1481 49.5586C85.8556 50.1212 85.7215 50.7502 85.7457 51.4458C85.77 52.1414 85.9479 52.7655 86.2794 53.3183C86.6109 53.8711 87.0402 54.3004 87.5671 54.6062C88.1061 54.9115 88.6994 55.0529 89.347 55.0303ZM99.8447 56.0145C99.1731 56.038 98.556 55.9034 97.9935 55.6109C97.4305 55.3064 96.9773 54.8779 96.6338 54.3256C96.3019 53.7608 96.1229 53.1067 96.097 52.3631L95.8847 46.2828L97.2338 46.2357L97.4405 52.1541C97.4585 52.6698 97.5764 53.1219 97.7941 53.5106C98.0233 53.8868 98.3276 54.1764 98.7069 54.3792C99.0982 54.5817 99.5397 54.6744 100.031 54.6572C100.523 54.64 100.957 54.5168 101.333 54.2875C101.709 54.0463 101.998 53.718 102.199 53.3027C102.401 52.8754 102.491 52.374 102.471 51.7983L102.271 46.0598L103.62 46.0127L103.957 55.6548L102.607 55.7019L102.542 53.8311L102.85 53.8923C102.644 54.5239 102.272 55.0292 101.733 55.4083C101.194 55.7873 100.564 55.9894 99.8447 56.0145ZM106.491 55.5663L106.155 45.9242L107.504 45.8771L107.569 47.7479L107.261 47.6866C107.479 47.0546 107.852 46.5493 108.379 46.1707C108.918 45.7917 109.547 45.5896 110.267 45.5644C110.95 45.5406 111.567 45.6751 112.118 45.9681C112.68 46.2606 113.127 46.6773 113.458 47.2181C113.801 47.7464 113.984 48.3524 114.008 49.036L114.227 55.2962L112.878 55.3433L112.677 49.6048C112.657 49.0171 112.531 48.5232 112.301 48.123C112.083 47.7224 111.778 47.4208 111.387 47.2184C111.007 47.0035 110.572 46.9046 110.08 46.9218C109.588 46.939 109.155 47.0682 108.779 47.3094C108.402 47.5387 108.114 47.867 107.913 48.2943C107.711 48.7096 107.62 49.205 107.64 49.7807L107.841 55.5192L106.491 55.5663ZM120.255 55.1937C119.392 55.2239 118.717 54.9953 118.232 54.5079C117.747 54.0206 117.488 53.3092 117.455 52.3737L117.263 46.8871L115.483 46.9493L115.435 45.6001L115.885 45.5844C116.293 45.5701 116.612 45.4269 116.843 45.1547C117.073 44.8705 117.181 44.5245 117.167 44.1168L117.138 43.3073L118.488 43.2601L118.566 45.4908L120.688 45.4167L120.735 46.7658L118.613 46.84L118.804 52.3266C118.816 52.6504 118.874 52.9366 118.978 53.1851C119.083 53.4216 119.251 53.6078 119.484 53.7437C119.729 53.8793 120.049 53.9401 120.445 53.9263C120.541 53.923 120.655 53.913 120.786 53.8964C120.918 53.8798 121.031 53.8638 121.127 53.8485L121.169 55.0537C121.026 55.0948 120.865 55.1244 120.686 55.1427C120.507 55.1729 120.363 55.19 120.255 55.1937ZM123.298 54.9794L122.961 45.3373L124.311 45.2902L124.366 46.8732L124.178 46.6456C124.39 46.1819 124.719 45.8102 125.165 45.5305C125.624 45.2503 126.183 45.0987 126.843 45.0757L127.454 45.0543L127.501 46.4035L126.656 46.433C125.96 46.4573 125.41 46.6926 125.006 47.139C124.601 47.5854 124.412 48.2044 124.44 48.9959L124.647 54.9323L123.298 54.9794ZM129.137 54.7755L128.8 45.1334L130.149 45.0863L130.486 54.7284L129.137 54.7755ZM128.738 43.3525L128.669 41.3737L130.018 41.3266L130.087 43.3054L128.738 43.3525ZM137.404 54.7029C136.505 54.7343 135.682 54.5469 134.935 54.1408C134.2 53.7222 133.609 53.1364 133.163 52.3835C132.716 51.6307 132.476 50.7685 132.442 49.7971C132.408 48.8257 132.582 47.9611 132.964 47.2033C133.345 46.4335 133.876 45.8206 134.557 45.3646C135.249 44.9082 136.033 44.6647 136.909 44.6341C137.604 44.6098 138.226 44.7202 138.775 44.9651C139.336 45.1977 139.816 45.5292 140.215 45.9595C140.614 46.3778 140.925 46.8593 141.148 47.4038C141.371 47.9364 141.492 48.4905 141.512 49.0661C141.516 49.1861 141.515 49.3242 141.509 49.4805C141.502 49.6248 141.489 49.7754 141.47 49.9321L133.321 50.2167L133.277 48.9575L140.653 48.6999L140.024 49.2622C140.109 48.5988 140.01 48.0139 139.729 47.5074C139.458 46.9885 139.078 46.5876 138.588 46.3045C138.097 46.0094 137.552 45.8724 136.953 45.8933C136.353 45.9143 135.801 46.0896 135.296 46.4195C134.803 46.7489 134.423 47.2004 134.155 47.7741C133.886 48.3358 133.795 48.9994 133.882 49.7648C133.849 50.5345 133.992 51.2019 134.312 51.7671C134.644 52.3198 135.079 52.7429 135.617 53.0363C136.168 53.3292 136.749 53.4651 137.36 53.4437C138.068 53.419 138.656 53.2304 139.124 52.8778C139.592 52.5253 139.967 52.0919 140.249 51.5777L141.422 52.1492C141.245 52.5876 140.965 52.9996 140.582 53.3852C140.199 53.7588 139.736 54.0692 139.192 54.3163C138.66 54.551 138.064 54.6799 137.404 54.7029ZM147.189 54.3613C146.265 54.3935 145.447 54.1879 144.736 53.7445C144.024 53.3011 143.498 52.683 143.158 51.8904L144.272 51.3112C144.569 51.8892 144.969 52.3435 145.473 52.6741C145.989 53.0043 146.546 53.1589 147.146 53.138C147.722 53.1179 148.202 52.963 148.589 52.6734C148.974 52.3717 149.159 51.993 149.143 51.5373C149.132 51.2015 149.026 50.941 148.828 50.7558C148.629 50.5587 148.401 50.4105 148.146 50.3114C147.89 50.2122 147.666 50.142 147.472 50.1008L146.073 49.7534C145.177 49.5325 144.523 49.2011 144.111 48.7592C143.7 48.3173 143.483 47.7966 143.462 47.1969C143.443 46.6333 143.569 46.1365 143.843 45.7068C144.116 45.277 144.494 44.9395 144.978 44.6945C145.462 44.4495 146.003 44.3165 146.603 44.2956C147.418 44.2671 148.164 44.4572 148.838 44.8659C149.524 45.2622 150.019 45.8333 150.321 46.5792L149.188 47.1591C148.93 46.6278 148.567 46.2202 148.101 45.9363C147.647 45.64 147.143 45.5014 146.592 45.5207C146.052 45.5395 145.625 45.6925 145.311 45.9797C144.997 46.2668 144.847 46.6203 144.862 47.04C144.873 47.3638 144.966 47.6187 145.141 47.8047C145.315 47.9908 145.512 48.128 145.731 48.2164C145.962 48.3044 146.163 48.3694 146.332 48.4115L147.95 48.8233C148.737 49.024 149.355 49.3566 149.804 49.8212C150.264 50.2854 150.506 50.8413 150.528 51.4889C150.547 52.0166 150.413 52.4956 150.128 52.9258C149.855 53.3556 149.465 53.6994 148.958 53.9573C148.45 54.2031 147.86 54.3378 147.189 54.3613Z" fill="black"/>
<g clip-path="url(#clip0_484_6343)">
<path fill-rule="evenodd" clip-rule="evenodd" d="M236.26 37.499C237.437 39.3792 238.149 41.5851 238.232 43.9614C238.315 46.3377 237.758 48.588 236.715 50.5457L214.111 51.3351C212.934 49.4549 212.221 47.2489 212.138 44.8726C212.055 42.4963 212.612 40.2461 213.655 38.2883L236.26 37.499Z" fill="#FFDA44"/>
<path fill-rule="evenodd" clip-rule="evenodd" d="M237.121 49.7154C235.156 54.133 230.803 57.2823 225.647 57.4643L225.637 57.4647C220.48 57.6429 215.918 54.8049 213.649 50.5351L237.121 49.7154Z" fill="#D80027"/>
<path fill-rule="evenodd" clip-rule="evenodd" d="M224.73 31.3698C229.889 31.1897 234.453 34.0281 236.722 38.2992L213.25 39.1189C215.216 34.6998 219.571 31.55 224.73 31.3698Z" fill="#D80027"/>
<path d="M219.562 47.0628L218.747 47.0913L218.604 43.014L219.42 42.9856L219.562 47.0628ZM226.086 46.835L226.901 46.8066L226.759 42.7293L225.944 42.7578L226.086 46.835Z" fill="#EEEEEE"/>
<path d="M218.342 44.2479C218.287 44.2498 218.236 44.2731 218.199 44.3126C218.163 44.3522 218.143 44.4048 218.145 44.4589C218.147 44.5129 218.17 44.564 218.21 44.6009C218.249 44.6378 218.302 44.6575 218.356 44.6556L227.122 44.3495C227.176 44.3476 227.227 44.3243 227.264 44.2847C227.301 44.2452 227.321 44.1926 227.319 44.1385C227.317 44.0844 227.294 44.0333 227.254 43.9964C227.214 43.9595 227.162 43.9399 227.108 43.9418L218.342 44.2479ZM218.384 45.4711C218.33 45.473 218.279 45.4962 218.242 45.5358C218.205 45.5754 218.186 45.628 218.188 45.6821C218.189 45.7361 218.213 45.7872 218.252 45.8241C218.292 45.861 218.344 45.8807 218.399 45.8788L219.826 45.829C219.88 45.8271 219.931 45.8038 219.968 45.7642C220.005 45.7247 220.024 45.6721 220.022 45.618C220.02 45.5639 219.997 45.5128 219.958 45.4759C219.918 45.439 219.865 45.4193 219.811 45.4212L218.384 45.4711ZM225.723 45.2148C225.669 45.2167 225.618 45.24 225.581 45.2795C225.544 45.3191 225.525 45.3717 225.527 45.4258C225.529 45.4798 225.552 45.5309 225.591 45.5678C225.631 45.6047 225.684 45.6244 225.738 45.6225L227.165 45.5727C227.219 45.5708 227.27 45.5475 227.307 45.5079C227.344 45.4684 227.363 45.4158 227.361 45.3617C227.36 45.3076 227.336 45.2565 227.297 45.2196C227.257 45.1827 227.205 45.1631 227.15 45.165L225.723 45.2148Z" fill="#D80027"/>
<path fill-rule="evenodd" clip-rule="evenodd" d="M225.214 45.2329L224.383 45.2619C224.902 45.543 225.24 45.968 225.257 46.4558C225.288 47.3565 224.218 48.1249 222.867 48.172C221.516 48.2192 220.396 47.5273 220.365 46.6266C220.333 45.7259 221.402 44.9576 222.753 44.9104L222.682 42.8716L225.129 42.7861L225.214 45.2329ZM221.971 40.0392C222.225 40.0303 222.433 40.1248 222.593 40.3233C222.683 40.2143 222.799 40.1306 222.931 40.0799C223.062 40.0293 223.205 40.0134 223.344 40.0342C223.484 40.0551 223.616 40.1118 223.727 40.1987C223.838 40.2856 223.924 40.3998 223.978 40.53C224.129 40.4716 224.295 40.4599 224.453 40.4958C224.611 40.5318 224.755 40.6135 224.867 40.7315C224.978 40.8496 225.051 40.999 225.077 41.159C225.103 41.3189 225.082 41.4829 225.014 41.6302C224.947 41.7778 224.837 41.9024 224.698 41.9872C224.56 42.0719 224.399 42.1137 224.237 42.1069C224.076 42.1 223.92 42.0444 223.789 41.9486C223.659 41.8526 223.559 41.7201 223.504 41.5677C223.358 41.6264 223.197 41.641 223.042 41.6102C222.887 41.5794 222.744 41.5044 222.631 41.3939C222.525 41.5119 222.388 41.5968 222.236 41.6384C222.083 41.6798 221.921 41.6766 221.771 41.6282C221.681 41.9882 221.383 42.2026 221.026 42.2151C220.568 42.2311 220.199 41.8863 220.183 41.4276C220.167 40.9692 220.511 40.6003 220.969 40.5842L221.226 40.6261C221.317 40.3169 221.614 40.0519 221.971 40.0392ZM220.984 40.9922C220.78 40.9993 220.583 41.2097 220.59 41.4134C220.599 41.6682 220.808 41.8142 221.012 41.8071C221.216 41.8 221.415 41.6404 221.408 41.4367L221.189 41.0358L220.984 40.9922ZM224.043 40.9362L223.853 41.3512C223.861 41.5548 224.07 41.7002 224.274 41.6932C224.529 41.6843 224.676 41.5258 224.668 41.271C224.66 41.0673 224.5 40.8694 224.245 40.8783L224.043 40.9362ZM221.985 40.4462C221.781 40.4536 221.585 40.6647 221.592 40.8683C221.601 41.123 221.81 41.269 222.013 41.2621C222.268 41.2532 222.416 41.0947 222.407 40.8399C222.4 40.6361 222.24 40.4373 221.985 40.4462ZM223.209 40.4034C223.005 40.4106 222.808 40.6218 222.815 40.8256C222.824 41.0805 223.033 41.2265 223.237 41.2194C223.492 41.2104 223.64 41.0519 223.631 40.7972C223.624 40.5934 223.463 40.3946 223.209 40.4034Z" fill="#EEEEEE"/>
<path d="M222.16 39.6241L222.976 39.5956L223.033 41.2265L222.217 41.255L222.16 39.6241Z" fill="#FF9811"/>
<path fill-rule="evenodd" clip-rule="evenodd" d="M222.768 45.3175L225.214 45.2321L225.257 46.456C225.268 46.7803 225.15 47.0958 224.929 47.3332C224.708 47.5706 224.401 47.7102 224.077 47.7216C223.752 47.7329 223.437 47.6148 223.199 47.3936C222.962 47.1722 222.822 46.8657 222.81 46.5414L222.767 45.3185L220.322 45.4039L220.236 42.9572L222.683 42.8717L222.768 45.3175ZM223.92 43.237C224.201 43.2273 224.438 43.4472 224.447 43.7287L224.469 44.3406C224.478 44.6218 224.258 44.8579 223.977 44.8678C223.696 44.8777 223.46 44.6574 223.45 44.3762L223.428 43.7642C223.419 43.4828 223.639 43.2468 223.92 43.237ZM218.956 41.3691C219.181 41.3614 219.37 41.5377 219.378 41.7628L219.392 42.1698C219.4 42.3948 219.224 42.5839 218.999 42.5919C218.774 42.5998 218.585 42.4234 218.577 42.1982L218.563 41.7913C218.555 41.5661 218.731 41.3769 218.956 41.3691ZM222.611 40.833C223.732 40.7938 224.669 41.3223 224.692 41.9847L224.3 42.4068L221.037 42.5208L220.616 42.127C220.593 41.4647 221.49 40.8723 222.611 40.833ZM226.295 41.1128C226.52 41.1049 226.709 41.2813 226.717 41.5065L226.731 41.9135C226.739 42.1387 226.563 42.3278 226.337 42.3357C226.112 42.3433 225.924 42.167 225.916 41.9419L225.902 41.535C225.894 41.3099 226.07 41.1209 226.295 41.1128Z" fill="#D80027"/>
<path fill-rule="evenodd" clip-rule="evenodd" d="M219.563 47.063C219.788 47.0552 219.977 47.2316 219.985 47.4567C219.993 47.6817 219.816 47.8701 219.591 47.878L218.775 47.9064C218.55 47.9141 218.362 47.7385 218.354 47.5137C218.346 47.2886 218.522 47.0996 218.747 47.0915L219.563 47.063ZM226.902 46.8067C227.127 46.799 227.316 46.9753 227.324 47.2004C227.332 47.4254 227.155 47.6137 226.93 47.6217L226.115 47.6501C225.89 47.6579 225.7 47.4823 225.692 47.2574C225.684 47.0323 225.861 46.8432 226.086 46.8352L226.902 46.8067ZM221.049 45.7857L221.29 45.3699L221.799 45.3521L222.068 45.7502L222.309 45.3343L222.767 45.3183L222.81 46.5412C222.824 46.9489 222.682 47.2598 222.385 47.5253L222.12 47.2288L221.883 47.7471C221.717 47.794 221.542 47.8 221.373 47.7649L221.101 47.2643L220.856 47.5787C220.592 47.3329 220.378 47.0342 220.363 46.6266L220.321 45.4037L220.779 45.3877L221.049 45.7857ZM222.288 43.2937L222.303 43.7017L221.896 43.7159L221.924 44.5308L222.331 44.5166L222.345 44.9246L220.714 44.9815L220.7 44.5736L221.108 44.5593L221.08 43.7444L220.672 43.7586L220.657 43.3507L222.288 43.2937ZM219.392 42.1705C219.617 42.1627 219.806 42.3382 219.814 42.5632C219.822 42.7884 219.645 42.9775 219.42 42.9854L218.604 43.0139C218.379 43.0216 218.191 42.8452 218.183 42.6202C218.175 42.3953 218.351 42.2071 218.576 42.199L219.392 42.1705ZM224.313 42.8146L221.051 42.9285L221.037 42.5205L224.299 42.4066L224.313 42.8146ZM226.731 41.9142C226.956 41.9065 227.145 42.082 227.153 42.3069C227.161 42.532 226.985 42.7211 226.76 42.7291L225.944 42.7576C225.719 42.7654 225.529 42.589 225.521 42.3639C225.514 42.1389 225.69 41.9507 225.915 41.9427L226.731 41.9142Z" fill="#FF9811"/>
<path d="M220.78 45.3874L220.857 47.579C221.013 47.6793 221.189 47.743 221.374 47.765L221.29 45.3696L220.78 45.3874ZM221.8 45.3518L221.883 47.7472C222.065 47.7124 222.237 47.6366 222.386 47.5256L222.309 45.334L221.8 45.3518Z" fill="#D80027"/>
<path fill-rule="evenodd" clip-rule="evenodd" d="M221.512 41.4839C221.68 41.4782 221.822 41.61 221.828 41.7787C221.834 41.9475 221.702 42.0889 221.533 42.0949C221.364 42.1008 221.222 41.969 221.216 41.8001C221.21 41.6313 221.343 41.4898 221.512 41.4839ZM222.633 41.4448C222.802 41.4391 222.943 41.5709 222.949 41.7396C222.955 41.9084 222.823 42.0496 222.654 42.0557C222.485 42.0616 222.343 41.9298 222.337 41.7609C222.331 41.5921 222.464 41.4507 222.633 41.4448ZM223.754 41.4056C223.923 41.4 224.065 41.5318 224.07 41.7004C224.076 41.8691 223.944 42.0104 223.776 42.0166C223.607 42.0225 223.464 41.8907 223.459 41.7218C223.453 41.553 223.585 41.4115 223.754 41.4056Z" fill="#FFDA44"/>
<path fill-rule="evenodd" clip-rule="evenodd" d="M219.592 47.8785C219.817 47.8707 220.006 48.0471 220.014 48.2722C220.021 48.4972 219.845 48.6856 219.62 48.6935L218.804 48.722C218.579 48.7296 218.391 48.554 218.383 48.3292C218.375 48.1041 218.551 47.9151 218.776 47.907L219.592 47.8785ZM226.931 47.6222C227.156 47.6145 227.345 47.7908 227.353 48.0159C227.361 48.2408 227.184 48.4292 226.959 48.4372L226.143 48.4657C225.919 48.4734 225.729 48.2978 225.721 48.0729C225.713 47.8478 225.89 47.6587 226.115 47.6507L226.931 47.6222ZM222.739 44.5029C223.19 44.4872 223.568 44.8391 223.584 45.2894C223.6 45.7398 223.247 46.1181 222.796 46.1338C222.346 46.1495 221.969 45.7967 221.953 45.3463C221.937 44.8961 222.289 44.5187 222.739 44.5029Z" fill="#0052B4"/>
</g>
<g clip-path="url(#clip1_484_6343)">
<path fill-rule="evenodd" clip-rule="evenodd" d="M259.093 36.7016C260.27 38.5819 260.982 40.7877 261.065 43.1641C261.148 45.5404 260.591 47.7906 259.548 49.7484L236.944 50.5377C235.767 48.6575 235.054 46.4516 234.971 44.0753C234.888 41.699 235.445 39.4487 236.488 37.491L259.093 36.7016Z" fill="#EEEEEE"/>
<path fill-rule="evenodd" clip-rule="evenodd" d="M259.954 48.9181C257.989 53.3357 253.636 56.485 248.48 56.667L248.47 56.6673C243.313 56.8456 238.751 54.0076 236.482 49.7377L259.954 48.9181Z" fill="#496E2D"/>
<path fill-rule="evenodd" clip-rule="evenodd" d="M247.563 30.5725C252.722 30.3924 257.286 33.2307 259.555 37.5019L236.083 38.3216C238.049 33.9025 242.404 30.7526 247.563 30.5725Z" fill="#333333"/>
<path d="M234.952 43.5446C234.97 40.1454 236.295 37.0346 238.465 34.711L248.018 43.6198L239.109 53.1733C236.783 51.0067 235.244 47.996 234.989 44.6062L234.952 43.5446Z" fill="#D80027"/>
<path d="M251.844 39.8892C252.34 39.636 252.884 39.4899 253.441 39.4604C253.764 39.4405 254.089 39.46 254.407 39.5185C253.533 39.7473 252.764 40.2668 252.224 40.9914C251.685 41.716 251.408 42.6026 251.44 43.5054C251.471 44.4082 251.809 45.2734 252.398 45.9586C252.986 46.6438 253.791 47.1083 254.678 47.2756C254.14 47.4194 253.577 47.4486 253.027 47.3611C252.477 47.2737 251.951 47.0716 251.484 46.7679C251.016 46.4642 250.618 46.0658 250.315 45.5984C250.011 45.131 249.81 44.6051 249.722 44.0547C249.635 43.5043 249.665 42.9418 249.809 42.4035C249.953 41.8652 250.209 41.3633 250.559 40.9301C250.91 40.497 251.348 40.1423 251.844 39.8892Z" fill="#D80027"/>
<path d="M255.243 42.5562L254.622 40.8429L254.117 42.5955L252.292 42.6592L253.808 43.6779L253.302 45.4305L254.738 44.3088L256.253 45.3274L255.627 43.6144L257.068 42.4924L255.243 42.5562Z" fill="#D80027"/>
</g>
<path d="M282.593 48.5358C283.499 46.6778 283.976 44.5769 283.899 42.3669C283.822 40.1568 283.2 38.0943 282.166 36.304L259.11 37.1091C258.204 38.9672 257.727 41.0681 257.804 43.2781C257.882 45.4881 258.504 47.5506 259.537 49.341L282.593 48.5358Z" fill="#EEEEEE"/>
<path d="M283.264 46.8795C281.61 51.9398 276.937 55.6732 271.307 55.8698C265.677 56.0664 260.755 52.668 258.752 47.7355L283.264 46.8795Z" fill="#333333"/>
<path d="M282.951 37.9095L258.439 38.7655C260.093 33.7052 264.766 29.9718 270.396 29.7752C276.026 29.5786 280.947 32.9769 282.951 37.9095Z" fill="#D80027"/>
<path d="M305.425 47.7385C306.331 45.8804 306.808 43.7795 306.731 41.5695C306.654 39.3595 306.032 37.2969 304.998 35.5066L281.942 36.3118C281.036 38.1698 280.559 40.2707 280.636 42.4807C280.714 44.6908 281.336 46.7533 282.369 48.5436L305.425 47.7385Z" fill="#D80027"/>
<path d="M306.096 46.0821C304.442 51.1424 299.769 54.8758 294.139 55.0724C288.509 55.269 283.587 51.8707 281.584 46.9381L306.096 46.0821Z" fill="#FFDA44"/>
<path d="M305.783 37.1121L281.271 37.9681C282.925 32.9078 287.598 29.1744 293.228 28.9778C298.858 28.7812 303.779 32.1796 305.783 37.1121Z" fill="#333333"/>
<path d="M328.258 46.9411C329.164 45.0831 329.641 42.9822 329.564 40.7722C329.487 38.5621 328.865 36.4996 327.831 34.7093L304.775 35.5144C303.869 37.3725 303.392 39.4734 303.469 41.6834C303.547 43.8934 304.169 45.9559 305.202 47.7463L328.258 46.9411Z" fill="#EEEEEE"/>
<path d="M328.929 45.2848C327.275 50.3451 322.602 54.0785 316.972 54.2751C311.342 54.4717 306.42 51.0733 304.417 46.1408L328.929 45.2848Z" fill="#D80027"/>
<path d="M328.616 36.3148L304.104 37.1708C305.758 32.1105 310.431 28.3771 316.061 28.1805C321.691 27.9839 326.612 31.3822 328.616 36.3148Z" fill="#6DA544"/>
<path fill-rule="evenodd" clip-rule="evenodd" d="M311.875 36.8995L312.188 45.8696L307.614 50.7754C305.17 48.4968 303.595 45.286 303.47 41.6831C303.344 38.0806 304.69 34.7682 306.968 32.3248L311.875 36.8995Z" fill="#333333"/>
</g>
<defs>
<filter id="filter0_dd_484_6343" x="-1.09668" y="-1.09692" width="358.01" height="94.33" filterUnits="userSpaceOnUse" color-interpolation-filters="sRGB">
<feFlood flood-opacity="0" result="BackgroundImageFix"/>
<feColorMatrix in="SourceAlpha" type="matrix" values="0 0 0 0 0 0 0 0 0 0 0 0 0 0 0 0 0 0 127 0" result="hardAlpha"/>
<feMorphology radius="2" operator="dilate" in="SourceAlpha" result="effect1_dropShadow_484_6343"/>
<feOffset/>
<feComposite in2="hardAlpha" operator="out"/>
<feColorMatrix type="matrix" values="0 0 0 0 1 0 0 0 0 1 0 0 0 0 1 0 0 0 0.4 0"/>
<feBlend mode="normal" in2="BackgroundImageFix" result="effect1_dropShadow_484_6343"/>
<feColorMatrix in="SourceAlpha" type="matrix" values="0 0 0 0 0 0 0 0 0 0 0 0 0 0 0 0 0 0 127 0" result="hardAlpha"/>
<feOffset dy="0.4"/>
<feGaussianBlur stdDeviation="0.4"/>
<feComposite in2="hardAlpha" operator="out"/>
<feColorMatrix type="matrix" values="0 0 0 0 0 0 0 0 0 0 0 0 0 0 0 0 0 0 0.04 0"/>
<feBlend mode="normal" in2="effect1_dropShadow_484_6343" result="effect2_dropShadow_484_6343"/>
<feBlend mode="normal" in="SourceGraphic" in2="effect2_dropShadow_484_6343" result="shape"/>
</filter>
<clipPath id="clip0_484_6343">
<rect width="26.1105" height="26.1105" fill="white" transform="translate(211.683 31.8254) rotate(-2)"/>
</clipPath>
<clipPath id="clip1_484_6343">
<rect width="26.1105" height="26.1105" fill="white" transform="translate(234.516 31.0281) rotate(-2)"/>
</clipPath>
</defs>
</svg>
