<svg width="22" height="22" viewBox="0 0 22 22" fill="none" xmlns="http://www.w3.org/2000/svg">
<g clip-path="url(#clip0_568_5018)">
<path d="M0.648628 4.43559C0.516746 4.44945 0.395772 4.51513 0.312319 4.61819C0.228866 4.72125 0.18977 4.85323 0.203631 4.98511L1.68794 19.1073C1.7018 19.2392 1.76748 19.3602 1.87054 19.4436C1.97359 19.5271 2.10558 19.5662 2.23746 19.5523L15.5402 18.1541C15.3426 17.9435 15.1445 17.7331 14.9461 17.5228C14.6953 17.2252 14.351 16.984 14.2175 16.6043C12.9941 17.2666 11.5297 17.47 10.1713 17.1698C10.1415 17.1634 10.112 17.1549 10.0823 17.1481C9.94723 17.3112 9.81189 17.5848 9.80348 17.7516L7.9125 17.9503C8.00394 17.4543 7.62344 16.7347 7.8572 16.215C7.87925 16.2067 7.90266 16.1654 7.91104 16.1245C7.87564 16.0976 7.83992 16.0716 7.80525 16.0441C7.53454 16.1586 7.4449 16.381 7.30877 16.5822C7.43602 16.9758 6.81298 16.945 6.91801 17.3492C7.37987 17.6355 6.53206 17.4694 6.29059 17.5215C6.03171 17.5516 5.24497 17.3599 5.56645 17.8872C5.54129 18.0439 5.5891 18.1334 5.67124 18.1859L5.55508 18.1981C5.51867 18.0258 5.18776 18.0344 5.05227 17.9622C4.8338 17.9329 4.57669 17.9337 4.34577 17.8587C4.30564 18.0222 3.813 18.2561 3.71402 18.3916L2.63019 18.5055L1.86649 11.2394C2.02979 11.3256 2.36764 11.249 1.87821 11.0772L1.84976 11.0802L1.60905 8.79005C1.69475 8.73479 1.75787 8.71348 1.76194 8.79047C1.97816 8.69133 2.01848 8.13547 2.42982 8.31807C2.67543 8.32826 3.11503 8.66113 2.91887 8.72921C3.11583 9.09542 3.20111 8.8373 3.44139 9.27317C3.37528 9.91077 3.92808 10.32 4.24655 10.6886C4.59239 10.7914 4.7685 11.206 5.30889 11.1661C5.38882 11.2225 5.48881 11.2707 5.59252 11.3161C5.59794 11.1075 5.61411 10.8997 5.64104 10.6928C5.62779 10.6912 5.61507 10.6907 5.60067 10.6876C5.13276 11.22 4.93958 10.4038 5.44218 10.3182C5.47577 10.3125 5.51241 10.3103 5.5521 10.3116C5.61005 10.2985 5.65951 10.3003 5.70221 10.3105C5.81113 9.74831 6.00301 9.2054 6.27154 8.69959C6.41578 8.42675 6.58232 8.16629 6.76947 7.92088C6.64645 7.75684 6.52917 7.67043 6.42689 7.91224C6.3817 7.57411 5.42739 7.31505 6.13628 7.56954C6.52218 7.83727 6.60053 7.46725 6.63075 7.21713C6.90084 6.86899 6.27527 6.82554 6.36553 6.60711C6.15003 6.34761 5.8443 6.09076 5.5429 5.94768C5.00021 6.06907 4.79548 5.97335 5.53 5.89575C5.56017 5.54568 5.64462 5.29105 5.69004 4.99428C5.60808 4.97977 5.52531 4.99209 5.44334 5.0005C5.08692 4.9903 4.89255 5.14808 4.92791 5.41565C4.66175 5.42231 4.85156 4.94747 4.45905 5.12768C3.84102 5.18279 4.60882 5.31284 4.55469 5.3489C4.50072 5.51465 4.0458 5.46272 4.11498 5.61773C3.87171 5.26242 3.8375 5.82849 3.63891 5.46405C3.53382 5.38259 4.0482 5.51234 3.90036 5.19063C3.6409 5.12137 3.56916 5.29783 3.382 5.38648C2.83573 5.76848 3.54872 5.99881 3.85454 6.07486C4.28606 5.90985 4.26994 5.76032 4.59593 5.89236C4.96219 6.04793 4.25245 5.98618 4.30478 6.27932C4.2457 6.09991 4.18433 5.99435 3.99425 6.25223C3.71326 6.33405 3.54399 5.95386 3.33308 6.00398C2.8388 5.98896 3.13599 7.0658 3.49816 6.65047C3.78519 7.04523 3.19945 6.79327 3.03042 6.76358C2.70336 7.21645 2.25953 6.83374 1.81537 6.86313C1.66384 6.78373 1.52488 6.79713 1.406 6.85809L1.25042 5.37785L6.46629 4.82964C6.0954 4.87888 5.7684 4.96292 5.93177 5.21623C5.96412 5.73449 6.58858 5.25458 6.73369 5.71112C7.04523 6.00798 6.67592 6.74763 7.14268 6.5755C6.98881 6.80866 7.04683 7.14826 7.2128 7.4033C7.67708 6.92247 8.21895 6.52316 8.81571 6.22208C8.82021 6.15967 8.80426 6.09016 8.75892 6.01086C8.66386 5.70533 8.94299 5.57524 8.80517 5.2398C8.91424 4.9649 8.77944 4.70034 8.5337 4.61234L19.3507 3.47543L19.4987 4.88327C19.4664 4.87339 19.4336 4.86556 19.4003 4.85983C19.1467 5.14329 19.3758 5.14354 19.5184 5.07084L19.5417 5.29282C19.1908 5.14127 18.8246 5.15904 18.4793 5.27377C18.2895 5.01157 17.7219 5.07787 17.5085 4.8463C17.1377 4.48629 17.5799 4.55887 17.8641 4.49823C17.7566 4.26016 17.255 4.19463 17.0526 4.25713C16.7008 4.50084 17.2895 4.62438 17.2609 4.90491C17.2819 5.10441 17.0387 5.13137 16.8254 5.14273C16.8889 4.92249 16.3695 4.71444 16.1924 4.9068C15.8113 4.83384 15.6774 4.91428 15.8806 4.50399C15.7644 4.21716 15.412 4.24858 15.2326 4.05989C15.0761 4.50831 14.7265 4.41413 14.3938 4.71214C14.2718 4.93813 13.9913 5.15906 13.9911 5.29986C13.7789 5.42814 13.4993 4.91676 13.3926 5.40701C13.2927 5.82292 13.4631 6.00149 12.9495 5.72366C12.398 5.24729 13.8424 4.63777 13.2642 4.47109C12.8181 4.65373 12.5755 5.00722 12.5325 5.4777C12.4939 5.58773 12.5241 5.65836 12.5826 5.71194C14.3846 6.04943 15.9781 7.30253 16.747 8.96446C16.7452 8.85967 16.7521 8.758 16.7792 8.68134C16.9144 8.55371 16.8549 9.10877 17.1262 8.76815C16.9529 9.27202 17.6954 8.77268 17.7809 8.56319C17.5838 8.18813 18.2813 7.92841 18.2569 7.85637C17.9638 7.60724 18.1427 7.86696 17.8582 7.96101C17.7482 7.84266 17.9556 7.10856 17.5879 7.21257C17.0134 7.12735 18.0052 6.60662 18.3006 6.72882C18.3784 6.24443 18.6008 6.60033 18.3091 6.84999C18.2333 7.28047 18.3505 7.84451 18.6441 7.24896C18.7862 7.07817 18.7046 6.68052 18.9033 6.58885C19.1665 6.42927 19.6498 6.2753 19.5945 5.87328C19.5972 5.8722 19.5998 5.87212 19.6025 5.87123L20.7305 16.6031L19.943 16.6859C20.0889 16.4316 20.2721 16.0037 20.0176 15.8823C19.6509 15.8579 19.3361 15.4518 18.9026 15.5156C18.6823 15.3099 18.2177 15.2429 18.0914 15.2116C17.965 15.1802 17.7806 15.4576 17.5523 15.3676C17.4861 15.364 17.4198 15.3722 17.3564 15.3918C18.0965 16.1687 18.8308 16.9508 19.5674 17.7309L21.3323 17.5454C21.4642 17.5315 21.5851 17.4658 21.6686 17.3628C21.752 17.2597 21.7911 17.1277 21.7773 16.9959L20.293 2.87364C20.2791 2.74176 20.2134 2.62078 20.1104 2.53733C20.0073 2.45388 19.8753 2.41478 19.7434 2.42864L0.648628 4.43559ZM10.4445 4.47586C10.1408 4.66725 10.7747 5.23551 10.7274 4.63436C10.7953 4.71571 11.1982 4.76265 11.0399 4.49393C10.7361 4.35552 10.7998 4.5447 10.4443 4.47608M15.0353 3.99396C14.7075 4.19854 15.3556 4.13364 15.0353 3.99396V3.99396ZM4.06573 5.20462C3.82735 5.42394 4.48542 5.54702 4.10061 5.21121L4.06573 5.20462ZM6.19505 5.09605C6.1354 5.14274 6.26622 5.15131 6.19505 5.09605V5.09605ZM3.72362 5.60417C3.70798 5.60842 3.75776 5.63617 3.72362 5.60417V5.60417ZM4.61796 5.59302C4.60747 5.72283 4.93533 5.61437 4.61796 5.59302V5.59302ZM5.05831 5.58294C5.17485 5.6451 5.3527 5.53289 5.05831 5.58294V5.58294ZM4.18949 5.68753C4.17421 5.77943 4.38432 5.68716 4.18949 5.68753V5.68753ZM4.83593 5.90274C4.74643 5.97348 5.03558 5.9272 4.83593 5.90274V5.90274ZM5.00596 6.19838C4.92795 6.58505 5.51567 7.03569 5.05612 6.65263C4.92421 6.49395 4.84775 6.33668 5.00596 6.19838ZM4.31416 6.3093C4.51502 6.57677 4.7832 6.62561 4.57572 6.74676C4.42376 6.69194 4.36743 6.47745 4.31416 6.3093ZM7.02543 6.31513C6.961 6.32592 7.05119 6.32871 7.02543 6.31513V6.31513ZM3.00191 6.82912C2.97123 6.83375 2.98913 6.92176 3.00191 6.82912V6.82912ZM4.55757 6.81322C4.46632 6.81939 4.56342 7.00285 4.55757 6.81322V6.81322ZM5.701 6.69425C5.66528 7.07004 5.95799 7.01554 5.94199 7.05463C5.70942 7.18767 5.8142 7.62391 5.59215 7.30598C5.46862 7.26345 5.59579 6.759 5.67148 6.70801L5.701 6.69425ZM4.50224 6.82064C4.50951 6.90696 4.52893 6.82387 4.50224 6.82064V6.82064ZM18.8937 5.34143C18.8626 5.37888 18.903 5.35412 18.8937 5.34143V5.34143ZM4.5251 6.90029C4.35689 7.04869 4.67567 7.02805 4.5251 6.90029V6.90029ZM10.8664 6.43147C9.7826 6.55306 8.7676 7.0235 7.9743 7.77193C5.945 9.68352 5.84858 12.8952 7.76017 14.9245C9.54954 16.8241 12.4731 17.0203 14.5042 15.4701L14.9759 15.971C14.9143 16.1693 14.9409 16.3499 15.0489 16.4648L18.4714 20.098C18.6751 20.3141 19.1044 20.2406 19.4301 19.9337C19.7558 19.627 19.8546 19.2029 19.6511 18.9866L16.2286 15.3534C16.1204 15.2385 15.9417 15.201 15.74 15.2508L15.2683 14.7501C16.937 12.8151 16.916 9.88524 15.1268 7.98565C14.1709 6.97101 12.89 6.44 11.5945 6.40121C11.3514 6.39392 11.1081 6.40404 10.8664 6.43147ZM5.27216 7.52382C5.4275 7.80592 5.88945 7.58221 5.74378 8.00435C5.97372 8.17927 5.80422 8.89893 5.66069 8.31594C5.13969 8.36809 4.83645 7.87468 5.24498 7.55603L5.27216 7.52382ZM5.73101 7.52506C5.48831 7.62679 5.90435 7.64359 5.73101 7.52506V7.52506ZM18.266 6.5752C18.2789 6.56379 18.321 6.63156 18.266 6.5752V6.5752ZM11.1839 7.52488C11.3097 7.51662 11.4355 7.51426 11.5612 7.5178C12.0782 7.53312 12.587 7.65049 13.0585 7.86316C13.53 8.07583 13.9547 8.37961 14.3084 8.75703C14.6638 9.13268 14.9414 9.57483 15.1255 10.0581C15.3096 10.5413 15.3964 11.0562 15.3809 11.5731C15.3655 12.09 15.2481 12.5987 15.0355 13.0701C14.8229 13.5415 14.5193 13.9663 14.1422 14.3201C13.7665 14.6755 13.3243 14.9532 12.8411 15.1373C12.3578 15.3214 11.8429 15.4082 11.326 15.3927C10.8091 15.3773 10.3003 15.2599 9.8289 15.0473C9.35747 14.8347 8.93268 14.5311 8.57891 14.1539C8.22354 13.7782 7.94586 13.3361 7.76182 12.8528C7.57778 12.3695 7.491 11.8547 7.50646 11.3378C7.52192 10.8209 7.63932 10.3121 7.85192 9.84074C8.06452 9.36934 8.36813 8.94457 8.74532 8.59082C9.40899 7.96201 10.2716 7.58495 11.1839 7.52488ZM18.8807 6.92304C18.5956 7.21424 19.2778 7.09467 18.8807 6.92304V6.92304ZM19.2753 7.09917C18.9473 7.30437 19.5952 7.23648 19.2753 7.09917V7.09917ZM19.5087 7.15427C19.2274 7.44326 19.8358 7.24296 19.5087 7.15427V7.15427ZM19.5022 7.21125C19.4936 7.23046 19.5193 7.20926 19.5022 7.21125V7.21125ZM19.535 7.24019C19.5105 7.24598 19.546 7.25432 19.535 7.24019V7.24019ZM11.1354 8.33277C10.6998 8.37071 10.2808 8.51309 9.90334 8.72933C9.92669 8.75242 9.95887 8.77357 10.0045 8.79089C9.59314 8.70341 9.5302 9.21821 9.72145 9.42676L9.99289 9.42056L10.2074 9.29786C10.3369 9.13141 10.3759 9.15366 10.3988 8.91979L10.4877 8.92191L10.5542 8.88555L10.721 8.94726C10.919 9.00166 10.9448 9.16104 10.8861 9.21467C10.8018 9.27963 10.9089 9.27662 10.9212 9.31011C10.9648 9.29246 10.987 9.25091 11.0131 9.22726L11.0621 9.20361C11.235 9.06215 11.1011 9.03561 10.9547 8.88468L11.025 8.89499C11.137 8.99785 11.2093 9.11996 11.2829 9.24998C11.2903 9.25464 11.2971 9.26095 11.3052 9.26252C11.3517 9.27271 11.4146 9.26107 11.4673 9.24045C11.5195 9.22008 11.5123 9.11727 11.4929 9.02017C11.6061 9.3614 12.3463 9.17863 11.9217 9.43864C11.6648 9.47148 11.2406 9.37328 11.1839 9.55962C11.0093 9.50155 10.919 9.46097 10.8811 9.42574C10.7744 9.39794 10.4673 9.3172 10.4567 9.31831C10.4442 9.31963 10.0755 9.42756 10.0755 9.42756L9.77756 9.57793C9.71087 9.91354 9.53348 9.75642 9.50586 10.0141C9.48043 10.1797 9.15242 10.5661 9.37218 10.8201C9.62597 11.595 10.5588 10.9632 10.8292 11.3197C10.7456 11.5656 11.3278 11.9555 11.0686 12.3711C11.2685 12.9142 11.746 13.8069 12.2732 12.9487C12.3843 12.4564 12.7042 12.163 12.6423 11.6927C12.4091 11.2476 13.4583 10.7892 12.9846 10.4587C12.8819 10.482 12.8723 10.5057 12.7926 10.5418C12.6185 10.5535 12.559 10.4184 12.4907 10.3367C12.4389 10.2773 12.3919 10.2138 12.3501 10.1469C12.4785 10.3064 12.6077 10.4396 12.777 10.5121C13.0472 10.421 13.3429 10.183 13.4562 10.0192C13.3915 9.43418 14.2422 9.95873 14.2726 10.4004C14.3337 10.5138 14.4043 10.5896 14.4714 10.6313C14.3979 10.3545 14.2851 10.0896 14.1365 9.84475C13.8651 9.3838 13.4681 9.00522 13.0062 8.73925C12.9995 8.75242 12.9797 8.7553 12.9806 8.72505C12.9182 8.69005 12.8547 8.6571 12.7902 8.62621C12.7997 8.65323 12.8106 8.68044 12.8227 8.70786C12.7926 8.67181 12.761 8.63531 12.7343 8.5997C12.2367 8.37288 11.6826 8.27104 11.1356 8.33255L11.1354 8.33277ZM17.61 7.67882C17.7973 8.0746 17.2516 9.09483 17.092 8.47954C17.1258 8.16348 17.6607 8.15431 17.61 7.67882ZM5.51306 9.06005C5.51006 9.07545 5.54175 9.05362 5.51306 9.06005V9.06005ZM5.83477 9.17244C5.76856 9.216 5.89771 9.21449 5.83477 9.17244V9.17244ZM11.8089 8.55781C11.9836 8.67619 12.4949 8.80345 11.9585 8.71543C11.7003 8.86786 11.608 8.79732 11.8089 8.55781ZM10.5934 8.92889C10.5595 8.94331 10.5968 9.0128 10.5773 9.03797C10.7341 9.09529 10.6357 8.96205 10.6553 8.93646C10.6236 8.92532 10.6045 8.9239 10.5934 8.92889ZM12.883 8.83806C12.9418 8.95315 12.9805 9.02651 12.8463 8.89019C12.8557 8.88449 12.8638 8.87692 12.8701 8.86795C12.8764 8.85898 12.8808 8.84881 12.883 8.83806ZM10.6245 9.09053C10.5653 9.09031 10.5384 9.13276 10.5439 9.18748C10.7069 9.25502 10.6765 9.11845 10.6942 9.10592C10.672 9.09663 10.6485 9.0914 10.6245 9.09053ZM13.0955 9.69214C13.1838 9.68648 13.0247 9.82828 13.0415 9.70485C13.0654 9.69691 13.0829 9.69286 13.0955 9.69214ZM19.2361 9.83344C18.9816 10.1679 19.615 10.1554 19.2361 9.83344V9.83344ZM19.2212 9.88287C19.2179 9.90372 19.2503 9.87659 19.2212 9.88287V9.88287ZM19.2504 9.92384C19.2201 9.922 19.2553 9.94403 19.2504 9.92384V9.92384ZM19.4628 9.94173C19.2107 10.2124 19.8139 10.0601 19.4628 9.94173V9.94173ZM19.4999 10.0072C19.499 10.0369 19.5206 10.0014 19.4999 10.0072V10.0072ZM19.4618 10.0219C19.4472 10.0375 19.4827 10.0446 19.4618 10.0219V10.0219ZM17.2278 10.5728C17.2457 10.6964 17.2598 10.8203 17.27 10.9444C17.502 10.9569 17.7867 10.9165 17.8186 11.1683C18.2295 11.143 17.8411 11.7878 17.7681 11.2364C17.599 11.2299 17.4321 11.2766 17.2908 11.3698C17.295 11.8082 17.2512 12.2458 17.1601 12.6746C17.4831 12.5335 17.8251 12.508 18.0605 12.8116C18.5904 12.7539 18.1775 13.1627 18.561 13.197C18.6867 12.8532 18.4466 12.9201 18.7189 12.622C18.9712 12.2188 18.7298 11.7577 18.4179 11.5848C18.3332 11.3608 18.0792 11.2616 18.1761 11.0925C18.4283 11.3687 18.7176 11.1116 18.4395 10.9772C18.6133 10.7769 19.3696 11.3484 18.9308 10.8938C18.7362 10.8784 18.4323 10.5112 18.3996 10.7716C18.4046 10.9843 17.8227 10.5087 17.6514 10.7463C17.5748 10.5565 17.3127 10.7035 17.3063 10.7924C17.3769 10.6523 17.3167 10.59 17.2278 10.5728ZM18.2577 10.6365C17.9897 10.8284 18.5315 10.7658 18.2577 10.6365V10.6365ZM10.8131 11.433C10.8075 11.4423 10.8415 11.4824 10.8131 11.433V11.433ZM8.31885 11.7197C8.3419 11.9966 8.40158 12.2691 8.49634 12.5302C8.68866 12.1597 8.64551 11.8352 8.31885 11.7197ZM18.248 10.6858C18.2274 10.6928 18.2664 10.6963 18.248 10.6858V10.6858ZM18.4432 10.6894C18.357 10.7648 18.543 10.7453 18.4432 10.6894V10.6894ZM18.4434 10.6914C18.3651 10.7612 18.5344 10.7434 18.4434 10.6914V10.6914ZM18.2716 10.727C18.2418 10.7265 18.2769 10.7467 18.2716 10.727V10.727ZM17.2795 11.0496C17.2825 11.0976 17.2834 11.1457 17.2852 11.1938C17.3418 11.1147 17.3618 11.0369 17.2795 11.0496ZM12.7677 11.7322C12.5511 11.8826 13.0331 11.8903 12.8186 11.763L12.8078 11.7426L12.7677 11.7322ZM13.0404 11.7393C12.8281 11.9052 12.5468 12.6193 13.0378 12.5892C13.1408 12.4368 13.3738 11.7811 13.0404 11.7393ZM19.2469 11.523C19.1027 11.9011 19.7981 11.6828 19.2469 11.523V11.523ZM13.4547 12.18C13.18 12.4094 13.7595 12.3231 13.4547 12.18V12.18ZM19.8124 12.3395C20.0207 12.7027 19.4866 12.9895 19.5659 13.3388C19.8668 13.4467 19.96 12.9116 20.145 12.7315C20.3616 12.498 19.9288 12.4811 19.8124 12.3395ZM6.7068 14.9015C6.76145 15.1077 6.88104 15.3002 7.06297 15.3437C6.9371 15.2022 6.81823 15.0546 6.7068 14.9015Z" fill="#2BB6FF"/>
</g>
<defs>
<clipPath id="clip0_568_5018">
<rect width="20" height="20" fill="white" transform="translate(0 2.09058) rotate(-6)"/>
</clipPath>
</defs>
</svg>
