<svg width="22" height="22" viewBox="0 0 22 22" fill="none" xmlns="http://www.w3.org/2000/svg">
<path fill-rule="evenodd" clip-rule="evenodd" d="M3.39941 3.4892L19.9748 5.23134L18.581 18.4916L2.0057 16.7495L3.39941 3.4892ZM9.81304 14.2184L11.4706 14.3926L11.3834 15.2213L9.72594 15.0471L9.81304 14.2184ZM14.2182 12.1676L12.5607 11.9934L12.2122 15.3085L13.8698 15.4827L14.2182 12.1676ZM15.2212 10.5972L16.8787 10.7714L16.3561 15.744L14.6985 15.5698L15.2212 10.5972ZM18.143 6.71467L4.88271 5.32096L4.7085 6.97847L17.9688 8.37218L18.143 6.71467ZM10.0308 12.1465C9.86243 13.7485 8.42723 14.9106 6.82524 14.7423C5.22324 14.5739 4.06103 13.1387 4.22941 11.5367C4.39779 9.93468 5.83299 8.77252 7.43498 8.94089C9.03698 9.10927 10.1992 10.5444 10.0308 12.1465ZM8.23017 10.0724C7.96275 9.90603 7.66109 9.80253 7.34788 9.76965L7.13011 11.8416L9.09408 12.5366C9.2525 12.0889 9.25321 11.6005 9.0961 11.1524C8.93898 10.7042 8.63347 10.3231 8.23017 10.0724Z" fill="#8E79FF"/>
</svg>
