<svg width="265" height="90" viewBox="0 0 265 90" fill="none" xmlns="http://www.w3.org/2000/svg">
<rect width="264.983" height="89.9958" rx="44.9979" fill="url(#paint0_linear_484_6528)"/>
<rect x="0.5" y="0.5" width="263.983" height="88.9958" rx="44.4979" stroke="url(#paint1_linear_484_6528)" stroke-opacity="0.08"/>
<rect x="5.99609" y="6.00366" width="253" height="78" rx="39" fill="url(#paint2_linear_484_6528)"/>
<rect x="6.49609" y="6.50366" width="252" height="77" rx="38.5" stroke="url(#paint3_linear_484_6528)" stroke-opacity="0.08"/>
<rect x="11.9961" y="12.0037" width="241" height="66" rx="33" fill="url(#paint4_linear_484_6528)"/>
<rect x="11.9961" y="12.0037" width="241" height="66" rx="33" fill="url(#paint5_linear_484_6528)" fill-opacity="0.6"/>
<g filter="url(#filter0_d_484_6528)">
<g clip-path="url(#clip0_484_6528)">
<rect x="13.9961" y="14.0037" width="237" height="62" rx="31" fill="#1C1C1C"/>
<g opacity="0.6" filter="url(#filter1_f_484_6528)">
<rect x="114.996" y="22.0037" width="128" height="46" rx="23" fill="url(#paint6_linear_484_6528)" fill-opacity="0.8"/>
</g>
<g filter="url(#filter2_d_484_6528)">
<path d="M45.224 55.288C43.96 55.288 42.784 55.056 41.696 54.592C40.624 54.128 39.68 53.488 38.864 52.672C38.064 51.84 37.44 50.864 36.992 49.744C36.544 48.624 36.32 47.392 36.32 46.048C36.32 44.72 36.536 43.496 36.968 42.376C37.416 41.24 38.04 40.264 38.84 39.448C39.64 38.616 40.576 37.976 41.648 37.528C42.72 37.064 43.896 36.832 45.176 36.832C46.44 36.832 47.568 37.048 48.56 37.48C49.568 37.912 50.416 38.48 51.104 39.184C51.792 39.872 52.288 40.624 52.592 41.44L50.072 42.664C49.704 41.688 49.096 40.904 48.248 40.312C47.4 39.704 46.376 39.4 45.176 39.4C43.992 39.4 42.944 39.68 42.032 40.24C41.12 40.8 40.408 41.576 39.896 42.568C39.4 43.56 39.152 44.72 39.152 46.048C39.152 47.376 39.408 48.544 39.92 49.552C40.448 50.544 41.168 51.32 42.08 51.88C42.992 52.424 44.04 52.696 45.224 52.696C46.216 52.696 47.12 52.496 47.936 52.096C48.768 51.68 49.432 51.104 49.928 50.368C50.424 49.616 50.672 48.744 50.672 47.752V46.528L51.944 47.68H45.176V45.28H53.48V46.96C53.48 48.272 53.256 49.448 52.808 50.488C52.36 51.512 51.752 52.384 50.984 53.104C50.216 53.824 49.336 54.368 48.344 54.736C47.352 55.104 46.312 55.288 45.224 55.288ZM62.1314 55.288C60.8834 55.288 59.7394 54.992 58.6994 54.4C57.6754 53.808 56.8594 53 56.2514 51.976C55.6434 50.952 55.3394 49.792 55.3394 48.496C55.3394 47.184 55.6434 46.024 56.2514 45.016C56.8594 43.992 57.6754 43.192 58.6994 42.616C59.7234 42.024 60.8674 41.728 62.1314 41.728C63.4114 41.728 64.5554 42.024 65.5634 42.616C66.5874 43.192 67.3954 43.992 67.9874 45.016C68.5954 46.024 68.8994 47.184 68.8994 48.496C68.8994 49.808 68.5954 50.976 67.9874 52C67.3794 53.024 66.5634 53.832 65.5394 54.424C64.5154 55 63.3794 55.288 62.1314 55.288ZM62.1314 52.768C62.8994 52.768 63.5794 52.584 64.1714 52.216C64.7634 51.848 65.2274 51.344 65.5634 50.704C65.9154 50.048 66.0914 49.312 66.0914 48.496C66.0914 47.68 65.9154 46.952 65.5634 46.312C65.2274 45.672 64.7634 45.168 64.1714 44.8C63.5794 44.432 62.8994 44.248 62.1314 44.248C61.3794 44.248 60.6994 44.432 60.0914 44.8C59.4994 45.168 59.0274 45.672 58.6754 46.312C58.3394 46.952 58.1714 47.68 58.1714 48.496C58.1714 49.312 58.3394 50.048 58.6754 50.704C59.0274 51.344 59.4994 51.848 60.0914 52.216C60.6994 52.584 61.3794 52.768 62.1314 52.768ZM77.5711 55.288C76.3231 55.288 75.1791 54.992 74.1391 54.4C73.1151 53.808 72.2991 53 71.6911 51.976C71.0831 50.952 70.7791 49.792 70.7791 48.496C70.7791 47.184 71.0831 46.024 71.6911 45.016C72.2991 43.992 73.1151 43.192 74.1391 42.616C75.1631 42.024 76.3071 41.728 77.5711 41.728C78.8511 41.728 79.9951 42.024 81.0031 42.616C82.0271 43.192 82.8351 43.992 83.4271 45.016C84.0351 46.024 84.3391 47.184 84.3391 48.496C84.3391 49.808 84.0351 50.976 83.4271 52C82.8191 53.024 82.0031 53.832 80.9791 54.424C79.9551 55 78.8191 55.288 77.5711 55.288ZM77.5711 52.768C78.3391 52.768 79.0191 52.584 79.6111 52.216C80.2031 51.848 80.6671 51.344 81.0031 50.704C81.3551 50.048 81.5311 49.312 81.5311 48.496C81.5311 47.68 81.3551 46.952 81.0031 46.312C80.6671 45.672 80.2031 45.168 79.6111 44.8C79.0191 44.432 78.3391 44.248 77.5711 44.248C76.8191 44.248 76.1391 44.432 75.5311 44.8C74.9391 45.168 74.4671 45.672 74.1151 46.312C73.7791 46.952 73.6111 47.68 73.6111 48.496C73.6111 49.312 73.7791 50.048 74.1151 50.704C74.4671 51.344 74.9391 51.848 75.5311 52.216C76.1391 52.584 76.8191 52.768 77.5711 52.768ZM93.0108 60.28C92.0668 60.28 91.1948 60.128 90.3948 59.824C89.5948 59.52 88.9068 59.096 88.3308 58.552C87.7548 58.024 87.3228 57.4 87.0348 56.68L89.5308 55.648C89.7548 56.256 90.1628 56.76 90.7548 57.16C91.3628 57.56 92.1068 57.76 92.9868 57.76C93.6748 57.76 94.2908 57.624 94.8348 57.352C95.3788 57.096 95.8108 56.712 96.1308 56.2C96.4508 55.704 96.6108 55.104 96.6108 54.4V51.472L97.0908 52.024C96.6428 52.856 96.0188 53.488 95.2188 53.92C94.4348 54.352 93.5468 54.568 92.5548 54.568C91.3548 54.568 90.2748 54.288 89.3148 53.728C88.3548 53.168 87.5948 52.4 87.0348 51.424C86.4908 50.448 86.2188 49.352 86.2188 48.136C86.2188 46.904 86.4908 45.808 87.0348 44.848C87.5948 43.888 88.3468 43.128 89.2908 42.568C90.2348 42.008 91.3148 41.728 92.5308 41.728C93.5228 41.728 94.4028 41.944 95.1708 42.376C95.9548 42.792 96.5948 43.4 97.0908 44.2L96.7308 44.872V42.016H99.2988V54.4C99.2988 55.52 99.0268 56.52 98.4828 57.4C97.9548 58.296 97.2188 59 96.2748 59.512C95.3308 60.024 94.2428 60.28 93.0108 60.28ZM92.8668 52.048C93.5868 52.048 94.2268 51.88 94.7868 51.544C95.3468 51.192 95.7868 50.728 96.1068 50.152C96.4428 49.56 96.6108 48.896 96.6108 48.16C96.6108 47.424 96.4428 46.76 96.1068 46.168C95.7708 45.576 95.3228 45.112 94.7628 44.776C94.2028 44.424 93.5708 44.248 92.8668 44.248C92.1308 44.248 91.4748 44.424 90.8988 44.776C90.3228 45.112 89.8668 45.576 89.5308 46.168C89.2108 46.744 89.0508 47.408 89.0508 48.16C89.0508 48.88 89.2108 49.536 89.5308 50.128C89.8668 50.72 90.3228 51.192 90.8988 51.544C91.4748 51.88 92.1308 52.048 92.8668 52.048ZM102.233 55V36.832H104.945V55H102.233ZM113.972 55.288C112.676 55.288 111.524 54.992 110.516 54.4C109.524 53.792 108.748 52.976 108.188 51.952C107.628 50.912 107.348 49.752 107.348 48.472C107.348 47.16 107.628 46 108.188 44.992C108.764 43.984 109.532 43.192 110.492 42.616C111.452 42.024 112.54 41.728 113.756 41.728C114.732 41.728 115.604 41.896 116.372 42.232C117.14 42.568 117.788 43.032 118.316 43.624C118.844 44.2 119.244 44.864 119.516 45.616C119.804 46.368 119.948 47.168 119.948 48.016C119.948 48.224 119.94 48.44 119.924 48.664C119.908 48.888 119.876 49.096 119.828 49.288H109.484V47.128H118.292L116.996 48.112C117.156 47.328 117.1 46.632 116.828 46.024C116.572 45.4 116.172 44.912 115.628 44.56C115.1 44.192 114.476 44.008 113.756 44.008C113.036 44.008 112.396 44.192 111.836 44.56C111.276 44.912 110.844 45.424 110.54 46.096C110.236 46.752 110.116 47.552 110.18 48.496C110.1 49.376 110.22 50.144 110.54 50.8C110.876 51.456 111.34 51.968 111.932 52.336C112.54 52.704 113.228 52.888 113.996 52.888C114.78 52.888 115.444 52.712 115.988 52.36C116.548 52.008 116.988 51.552 117.308 50.992L119.516 52.072C119.26 52.68 118.86 53.232 118.316 53.728C117.788 54.208 117.148 54.592 116.396 54.88C115.66 55.152 114.852 55.288 113.972 55.288ZM126.574 55V37.12H133.078C134.278 37.12 135.334 37.344 136.246 37.792C137.174 38.224 137.894 38.864 138.406 39.712C138.918 40.544 139.174 41.544 139.174 42.712C139.174 43.864 138.91 44.856 138.382 45.688C137.87 46.52 137.158 47.16 136.246 47.608C135.334 48.056 134.278 48.28 133.078 48.28H129.406V55H126.574ZM129.406 45.76H133.15C133.79 45.76 134.35 45.632 134.83 45.376C135.31 45.12 135.686 44.768 135.958 44.32C136.23 43.856 136.366 43.312 136.366 42.688C136.366 42.064 136.23 41.528 135.958 41.08C135.686 40.616 135.31 40.264 134.83 40.024C134.35 39.768 133.79 39.64 133.15 39.64H129.406V45.76ZM141.586 55V36.832H144.298V55H141.586ZM151.117 55.288C150.237 55.288 149.461 55.136 148.789 54.832C148.133 54.512 147.621 54.08 147.253 53.536C146.885 52.976 146.701 52.32 146.701 51.568C146.701 50.864 146.853 50.232 147.157 49.672C147.477 49.112 147.965 48.64 148.621 48.256C149.277 47.872 150.101 47.6 151.093 47.44L155.605 46.696V48.832L151.621 49.528C150.901 49.656 150.373 49.888 150.037 50.224C149.701 50.544 149.533 50.96 149.533 51.472C149.533 51.968 149.717 52.376 150.085 52.696C150.469 53 150.957 53.152 151.549 53.152C152.285 53.152 152.925 52.992 153.469 52.672C154.029 52.352 154.461 51.928 154.765 51.4C155.069 50.856 155.221 50.256 155.221 49.6V46.264C155.221 45.624 154.981 45.104 154.501 44.704C154.037 44.288 153.413 44.08 152.629 44.08C151.909 44.08 151.277 44.272 150.733 44.656C150.205 45.024 149.813 45.504 149.557 46.096L147.301 44.968C147.541 44.328 147.933 43.768 148.477 43.288C149.021 42.792 149.653 42.408 150.373 42.136C151.109 41.864 151.885 41.728 152.701 41.728C153.725 41.728 154.629 41.92 155.413 42.304C156.213 42.688 156.829 43.224 157.261 43.912C157.709 44.584 157.933 45.368 157.933 46.264V55H155.341V52.648L155.893 52.72C155.589 53.248 155.197 53.704 154.717 54.088C154.253 54.472 153.717 54.768 153.109 54.976C152.517 55.184 151.853 55.288 151.117 55.288ZM162.016 60.28C161.696 60.28 161.376 60.248 161.056 60.184C160.752 60.136 160.472 60.056 160.216 59.944V57.616C160.408 57.664 160.64 57.704 160.912 57.736C161.184 57.784 161.448 57.808 161.704 57.808C162.456 57.808 163.008 57.64 163.36 57.304C163.728 56.984 164.056 56.488 164.344 55.816L165.208 53.848L165.16 56.128L159.544 42.016H162.448L166.6 52.84H165.616L169.744 42.016H172.672L166.936 56.416C166.632 57.184 166.248 57.856 165.784 58.432C165.336 59.024 164.8 59.48 164.176 59.8C163.568 60.12 162.848 60.28 162.016 60.28Z" fill="white"/>
</g>
<g filter="url(#filter3_di_484_6528)">
<rect x="183" y="22" width="46" height="46" rx="23" fill="#F7F8F8" shape-rendering="crispEdges"/>
<rect x="183.6" y="22.6" width="44.8" height="44.8" rx="22.4" stroke="url(#paint7_linear_484_6528)" stroke-width="1.2" shape-rendering="crispEdges"/>
<path d="M211.925 41.2328C209.137 39.6734 204.662 37.1693 197.722 33.283C197.254 32.9739 196.715 32.9334 196.25 33.0909L208.159 44.9995L211.925 41.2328Z" fill="#32BBFF"/>
<path d="M196.25 33.0909C196.163 33.1205 196.078 33.1561 195.997 33.1991C195.483 33.477 195.105 34.0117 195.105 34.688V55.3111C195.105 55.9874 195.483 56.5221 195.997 56.7999C196.078 56.8429 196.162 56.8787 196.25 56.9084L208.158 44.9996L196.25 33.0909Z" fill="#32BBFF"/>
<path d="M208.159 44.9995L196.25 56.9084C196.715 57.067 197.254 57.0296 197.722 56.716C204.453 52.9468 208.877 50.4725 211.698 48.8998C211.776 48.8557 211.853 48.8126 211.929 48.7699L208.159 44.9995Z" fill="#32BBFF"/>
<path d="M195 45V55.3905C195 56.0719 195.376 56.6107 195.888 56.8907C195.968 56.934 196.053 56.9701 196.139 57L208 45H195Z" fill="#2C9FD9"/>
<path d="M197.732 33.2784C197.174 32.9169 196.516 32.9272 196 33.1958L208.035 45L212 41.1108C209.199 39.5744 204.705 37.1074 197.732 33.2784Z" fill="#29CC5E"/>
<path d="M208.032 45L196 56.8025C196.516 57.071 197.174 57.0865 197.732 56.7198C204.492 53.0068 208.935 50.5693 211.768 49.0201C211.846 48.9767 211.924 48.9342 212 48.8921L208.032 45Z" fill="#D93F21"/>
<path d="M217 44.998C217 44.4117 216.715 43.82 216.15 43.4919C216.15 43.4919 215.093 42.88 211.853 41L208 44.998L211.857 49C215.061 47.1335 216.15 46.5041 216.15 46.5041C216.715 46.176 217 45.5843 217 44.998Z" fill="#FFD500"/>
<path d="M216.15 46.5054C216.715 46.1774 217 45.586 217 45H208L211.857 49C215.061 47.1344 216.15 46.5054 216.15 46.5054Z" fill="#FFAA00"/>
</g>
</g>
<rect x="14.4961" y="14.5037" width="236" height="61" rx="30.5" stroke="url(#paint8_linear_484_6528)"/>
</g>
<rect x="141.779" y="76.0037" width="42" height="1" rx="0.5" fill="url(#paint9_linear_484_6528)"/>
<rect x="70.5596" y="13.0037" width="42" height="1" rx="0.5" fill="url(#paint10_linear_484_6528)"/>
<rect x="42.5791" y="88.9958" width="42" height="1" rx="0.5" fill="url(#paint11_linear_484_6528)"/>
<rect x="175.349" y="6.00366" width="42" height="1" rx="0.5" fill="url(#paint12_linear_484_6528)"/>
<defs>
<filter id="filter0_d_484_6528" x="12.9961" y="13.0037" width="239" height="64" filterUnits="userSpaceOnUse" color-interpolation-filters="sRGB">
<feFlood flood-opacity="0" result="BackgroundImageFix"/>
<feColorMatrix in="SourceAlpha" type="matrix" values="0 0 0 0 0 0 0 0 0 0 0 0 0 0 0 0 0 0 127 0" result="hardAlpha"/>
<feMorphology radius="1" operator="dilate" in="SourceAlpha" result="effect1_dropShadow_484_6528"/>
<feOffset/>
<feComposite in2="hardAlpha" operator="out"/>
<feColorMatrix type="matrix" values="0 0 0 0 1 0 0 0 0 1 0 0 0 0 1 0 0 0 0.24 0"/>
<feBlend mode="normal" in2="BackgroundImageFix" result="effect1_dropShadow_484_6528"/>
<feBlend mode="normal" in="SourceGraphic" in2="effect1_dropShadow_484_6528" result="shape"/>
</filter>
<filter id="filter1_f_484_6528" x="86.9961" y="-5.99634" width="184" height="102" filterUnits="userSpaceOnUse" color-interpolation-filters="sRGB">
<feFlood flood-opacity="0" result="BackgroundImageFix"/>
<feBlend mode="normal" in="SourceGraphic" in2="BackgroundImageFix" result="shape"/>
<feGaussianBlur stdDeviation="14" result="effect1_foregroundBlur_484_6528"/>
</filter>
<filter id="filter2_d_484_6528" x="36.0203" y="36.832" width="136.952" height="24.148" filterUnits="userSpaceOnUse" color-interpolation-filters="sRGB">
<feFlood flood-opacity="0" result="BackgroundImageFix"/>
<feColorMatrix in="SourceAlpha" type="matrix" values="0 0 0 0 0 0 0 0 0 0 0 0 0 0 0 0 0 0 127 0" result="hardAlpha"/>
<feOffset dy="0.4"/>
<feGaussianBlur stdDeviation="0.15"/>
<feComposite in2="hardAlpha" operator="out"/>
<feColorMatrix type="matrix" values="0 0 0 0 0 0 0 0 0 0 0 0 0 0 0 0 0 0 0.08 0"/>
<feBlend mode="normal" in2="BackgroundImageFix" result="effect1_dropShadow_484_6528"/>
<feBlend mode="normal" in="SourceGraphic" in2="effect1_dropShadow_484_6528" result="shape"/>
</filter>
<filter id="filter3_di_484_6528" x="177" y="18" width="58" height="60" filterUnits="userSpaceOnUse" color-interpolation-filters="sRGB">
<feFlood flood-opacity="0" result="BackgroundImageFix"/>
<feColorMatrix in="SourceAlpha" type="matrix" values="0 0 0 0 0 0 0 0 0 0 0 0 0 0 0 0 0 0 127 0" result="hardAlpha"/>
<feOffset dy="4"/>
<feGaussianBlur stdDeviation="3"/>
<feComposite in2="hardAlpha" operator="out"/>
<feColorMatrix type="matrix" values="0 0 0 0 0 0 0 0 0 0 0 0 0 0 0 0 0 0 0.3 0"/>
<feBlend mode="normal" in2="BackgroundImageFix" result="effect1_dropShadow_484_6528"/>
<feBlend mode="normal" in="SourceGraphic" in2="effect1_dropShadow_484_6528" result="shape"/>
<feColorMatrix in="SourceAlpha" type="matrix" values="0 0 0 0 0 0 0 0 0 0 0 0 0 0 0 0 0 0 127 0" result="hardAlpha"/>
<feOffset dx="-4" dy="-4"/>
<feGaussianBlur stdDeviation="3"/>
<feComposite in2="hardAlpha" operator="arithmetic" k2="-1" k3="1"/>
<feColorMatrix type="matrix" values="0 0 0 0 0.729412 0 0 0 0 0.784314 0 0 0 0 0.819608 0 0 0 0.3 0"/>
<feBlend mode="normal" in2="shape" result="effect2_innerShadow_484_6528"/>
</filter>
<linearGradient id="paint0_linear_484_6528" x1="132.492" y1="89.9958" x2="132.492" y2="0" gradientUnits="userSpaceOnUse">
<stop stop-color="white"/>
<stop offset="1" stop-color="white" stop-opacity="0"/>
</linearGradient>
<linearGradient id="paint1_linear_484_6528" x1="132.492" y1="89.9958" x2="132.492" y2="0" gradientUnits="userSpaceOnUse">
<stop stop-color="#3C3655"/>
<stop offset="1" stop-color="white" stop-opacity="0"/>
</linearGradient>
<linearGradient id="paint2_linear_484_6528" x1="132.496" y1="6.00366" x2="132.496" y2="84.0037" gradientUnits="userSpaceOnUse">
<stop stop-color="white"/>
<stop offset="1" stop-color="white"/>
</linearGradient>
<linearGradient id="paint3_linear_484_6528" x1="132.496" y1="6.00366" x2="132.496" y2="84.0037" gradientUnits="userSpaceOnUse">
<stop stop-color="#3C3655"/>
<stop offset="1" stop-color="white" stop-opacity="0"/>
</linearGradient>
<linearGradient id="paint4_linear_484_6528" x1="11.9961" y1="45.0037" x2="76.2279" y2="151.04" gradientUnits="userSpaceOnUse">
<stop stop-color="#DC8FFF"/>
<stop offset="0.3" stop-color="#77C3FF"/>
<stop offset="0.69922" stop-color="#89F4D8"/>
<stop offset="1" stop-color="#9C7BFF"/>
</linearGradient>
<linearGradient id="paint5_linear_484_6528" x1="132.496" y1="12.0037" x2="131.093" y2="77.9738" gradientUnits="userSpaceOnUse">
<stop stop-color="#FF2F2F"/>
<stop offset="0.358783" stop-color="#EF7B16"/>
<stop offset="0.69922" stop-color="#8A43E1"/>
<stop offset="1" stop-color="#D511FD"/>
</linearGradient>
<linearGradient id="paint6_linear_484_6528" x1="242.996" y1="45.0037" x2="114.996" y2="45.0037" gradientUnits="userSpaceOnUse">
<stop stop-color="#6E51E0"/>
<stop offset="1" stop-color="#6E51E0" stop-opacity="0"/>
</linearGradient>
<linearGradient id="paint7_linear_484_6528" x1="198.024" y1="24.7122" x2="212.789" y2="68" gradientUnits="userSpaceOnUse">
<stop stop-color="white"/>
<stop offset="1" stop-color="#BAC8D1"/>
</linearGradient>
<linearGradient id="paint8_linear_484_6528" x1="13.9961" y1="45.0037" x2="250.996" y2="45.0037" gradientUnits="userSpaceOnUse">
<stop stop-color="#3C3655"/>
<stop offset="1" stop-color="#3C3655"/>
</linearGradient>
<linearGradient id="paint9_linear_484_6528" x1="141.779" y1="76.5037" x2="183.779" y2="76.5037" gradientUnits="userSpaceOnUse">
<stop stop-color="white" stop-opacity="0"/>
<stop offset="1" stop-color="white"/>
</linearGradient>
<linearGradient id="paint10_linear_484_6528" x1="112.56" y1="13.5037" x2="70.5596" y2="13.5037" gradientUnits="userSpaceOnUse">
<stop stop-color="white" stop-opacity="0"/>
<stop offset="1" stop-color="white"/>
</linearGradient>
<linearGradient id="paint11_linear_484_6528" x1="42.5791" y1="89.4958" x2="84.5791" y2="89.4958" gradientUnits="userSpaceOnUse">
<stop stop-color="white" stop-opacity="0"/>
<stop offset="1" stop-color="#6E51E0"/>
</linearGradient>
<linearGradient id="paint12_linear_484_6528" x1="217.349" y1="6.50366" x2="175.349" y2="6.50366" gradientUnits="userSpaceOnUse">
<stop stop-color="#EF5981" stop-opacity="0"/>
<stop offset="1" stop-color="#EF5981"/>
</linearGradient>
<clipPath id="clip0_484_6528">
<rect x="13.9961" y="14.0037" width="237" height="62" rx="31" fill="white"/>
</clipPath>
</defs>
</svg>
