<svg width="239" height="64" viewBox="0 0 239 64" fill="none" xmlns="http://www.w3.org/2000/svg">
<g filter="url(#filter0_d_484_6532)">
<g clip-path="url(#clip0_484_6532)">
<rect x="1" y="1" width="237" height="62" rx="31" fill="#1C1C1C"/>
<g opacity="0.6" filter="url(#filter1_f_484_6532)">
<rect x="102" y="9" width="128" height="46" rx="23" fill="url(#paint0_linear_484_6532)" fill-opacity="0.8"/>
</g>
<g filter="url(#filter2_d_484_6532)">
<path d="M32.2279 42.2843C30.9639 42.2843 29.7879 42.0523 28.6999 41.5883C27.6279 41.1243 26.6839 40.4843 25.8679 39.6683C25.0679 38.8363 24.4439 37.8603 23.9959 36.7403C23.5479 35.6203 23.3239 34.3883 23.3239 33.0443C23.3239 31.7163 23.5399 30.4923 23.9719 29.3723C24.4199 28.2363 25.0439 27.2603 25.8439 26.4443C26.6439 25.6123 27.5799 24.9723 28.6519 24.5243C29.7239 24.0603 30.8999 23.8283 32.1799 23.8283C33.4439 23.8283 34.5719 24.0443 35.5639 24.4763C36.5719 24.9083 37.4199 25.4763 38.1079 26.1803C38.7959 26.8683 39.2919 27.6203 39.5959 28.4363L37.0759 29.6603C36.7079 28.6843 36.0999 27.9003 35.2519 27.3083C34.4039 26.7003 33.3799 26.3963 32.1799 26.3963C30.9959 26.3963 29.9479 26.6763 29.0359 27.2363C28.1239 27.7963 27.4119 28.5723 26.8999 29.5643C26.4039 30.5563 26.1559 31.7163 26.1559 33.0443C26.1559 34.3723 26.4119 35.5403 26.9239 36.5483C27.4519 37.5403 28.1719 38.3163 29.0839 38.8763C29.9959 39.4203 31.0439 39.6923 32.2279 39.6923C33.2199 39.6923 34.1239 39.4923 34.9399 39.0923C35.7719 38.6763 36.4359 38.1003 36.9319 37.3643C37.4279 36.6123 37.6759 35.7403 37.6759 34.7483V33.5243L38.9479 34.6763H32.1799V32.2763H40.4839V33.9563C40.4839 35.2683 40.2599 36.4443 39.8119 37.4843C39.3639 38.5083 38.7559 39.3803 37.9879 40.1003C37.2199 40.8203 36.3399 41.3643 35.3479 41.7323C34.3559 42.1003 33.3159 42.2843 32.2279 42.2843ZM49.1353 42.2843C47.8873 42.2843 46.7433 41.9883 45.7033 41.3963C44.6793 40.8043 43.8633 39.9963 43.2553 38.9723C42.6473 37.9483 42.3433 36.7883 42.3433 35.4923C42.3433 34.1803 42.6473 33.0203 43.2553 32.0123C43.8633 30.9883 44.6793 30.1883 45.7033 29.6123C46.7273 29.0203 47.8713 28.7243 49.1353 28.7243C50.4153 28.7243 51.5593 29.0203 52.5673 29.6123C53.5913 30.1883 54.3993 30.9883 54.9913 32.0123C55.5993 33.0203 55.9033 34.1803 55.9033 35.4923C55.9033 36.8043 55.5993 37.9723 54.9913 38.9963C54.3833 40.0203 53.5673 40.8283 52.5433 41.4203C51.5193 41.9963 50.3833 42.2843 49.1353 42.2843ZM49.1353 39.7643C49.9033 39.7643 50.5833 39.5803 51.1753 39.2123C51.7673 38.8443 52.2313 38.3403 52.5673 37.7003C52.9193 37.0443 53.0953 36.3083 53.0953 35.4923C53.0953 34.6763 52.9193 33.9483 52.5673 33.3083C52.2313 32.6683 51.7673 32.1643 51.1753 31.7963C50.5833 31.4283 49.9033 31.2443 49.1353 31.2443C48.3833 31.2443 47.7033 31.4283 47.0953 31.7963C46.5033 32.1643 46.0313 32.6683 45.6793 33.3083C45.3433 33.9483 45.1753 34.6763 45.1753 35.4923C45.1753 36.3083 45.3433 37.0443 45.6793 37.7003C46.0313 38.3403 46.5033 38.8443 47.0953 39.2123C47.7033 39.5803 48.3833 39.7643 49.1353 39.7643ZM64.575 42.2843C63.327 42.2843 62.183 41.9883 61.143 41.3963C60.119 40.8043 59.303 39.9963 58.695 38.9723C58.087 37.9483 57.783 36.7883 57.783 35.4923C57.783 34.1803 58.087 33.0203 58.695 32.0123C59.303 30.9883 60.119 30.1883 61.143 29.6123C62.167 29.0203 63.311 28.7243 64.575 28.7243C65.855 28.7243 66.999 29.0203 68.007 29.6123C69.031 30.1883 69.839 30.9883 70.431 32.0123C71.039 33.0203 71.343 34.1803 71.343 35.4923C71.343 36.8043 71.039 37.9723 70.431 38.9963C69.823 40.0203 69.007 40.8283 67.983 41.4203C66.959 41.9963 65.823 42.2843 64.575 42.2843ZM64.575 39.7643C65.343 39.7643 66.023 39.5803 66.615 39.2123C67.207 38.8443 67.671 38.3403 68.007 37.7003C68.359 37.0443 68.535 36.3083 68.535 35.4923C68.535 34.6763 68.359 33.9483 68.007 33.3083C67.671 32.6683 67.207 32.1643 66.615 31.7963C66.023 31.4283 65.343 31.2443 64.575 31.2443C63.823 31.2443 63.143 31.4283 62.535 31.7963C61.943 32.1643 61.471 32.6683 61.119 33.3083C60.783 33.9483 60.615 34.6763 60.615 35.4923C60.615 36.3083 60.783 37.0443 61.119 37.7003C61.471 38.3403 61.943 38.8443 62.535 39.2123C63.143 39.5803 63.823 39.7643 64.575 39.7643ZM80.0147 47.2763C79.0707 47.2763 78.1987 47.1243 77.3987 46.8203C76.5987 46.5163 75.9107 46.0923 75.3347 45.5483C74.7587 45.0203 74.3267 44.3963 74.0387 43.6763L76.5347 42.6443C76.7587 43.2523 77.1667 43.7563 77.7587 44.1563C78.3667 44.5563 79.1107 44.7563 79.9907 44.7563C80.6787 44.7563 81.2947 44.6203 81.8387 44.3483C82.3827 44.0923 82.8147 43.7083 83.1347 43.1963C83.4547 42.7003 83.6147 42.1003 83.6147 41.3963V38.4683L84.0947 39.0203C83.6467 39.8523 83.0227 40.4843 82.2227 40.9163C81.4387 41.3483 80.5507 41.5643 79.5587 41.5643C78.3587 41.5643 77.2787 41.2843 76.3187 40.7243C75.3587 40.1643 74.5987 39.3963 74.0387 38.4203C73.4947 37.4443 73.2227 36.3483 73.2227 35.1323C73.2227 33.9003 73.4947 32.8043 74.0387 31.8443C74.5987 30.8843 75.3507 30.1243 76.2947 29.5643C77.2387 29.0043 78.3187 28.7243 79.5347 28.7243C80.5267 28.7243 81.4067 28.9403 82.1747 29.3723C82.9587 29.7883 83.5987 30.3963 84.0947 31.1963L83.7347 31.8683V29.0123H86.3027V41.3963C86.3027 42.5163 86.0307 43.5163 85.4867 44.3963C84.9587 45.2923 84.2227 45.9963 83.2787 46.5083C82.3347 47.0203 81.2467 47.2763 80.0147 47.2763ZM79.8707 39.0443C80.5907 39.0443 81.2307 38.8763 81.7907 38.5403C82.3507 38.1883 82.7907 37.7243 83.1107 37.1483C83.4467 36.5563 83.6147 35.8923 83.6147 35.1563C83.6147 34.4203 83.4467 33.7563 83.1107 33.1643C82.7747 32.5723 82.3267 32.1083 81.7667 31.7723C81.2067 31.4203 80.5747 31.2443 79.8707 31.2443C79.1347 31.2443 78.4787 31.4203 77.9027 31.7723C77.3267 32.1083 76.8707 32.5723 76.5347 33.1643C76.2147 33.7403 76.0547 34.4043 76.0547 35.1563C76.0547 35.8763 76.2147 36.5323 76.5347 37.1243C76.8707 37.7163 77.3267 38.1883 77.9027 38.5403C78.4787 38.8763 79.1347 39.0443 79.8707 39.0443ZM89.2373 41.9963V23.8283H91.9493V41.9963H89.2373ZM100.976 42.2843C99.6801 42.2843 98.5281 41.9883 97.5201 41.3963C96.5281 40.7883 95.7521 39.9723 95.1921 38.9483C94.6321 37.9083 94.3521 36.7483 94.3521 35.4683C94.3521 34.1563 94.6321 32.9963 95.1921 31.9883C95.7681 30.9803 96.5361 30.1883 97.4961 29.6123C98.4561 29.0203 99.5441 28.7243 100.76 28.7243C101.736 28.7243 102.608 28.8923 103.376 29.2283C104.144 29.5643 104.792 30.0283 105.32 30.6203C105.848 31.1963 106.248 31.8603 106.52 32.6123C106.808 33.3643 106.952 34.1643 106.952 35.0123C106.952 35.2203 106.944 35.4363 106.928 35.6603C106.912 35.8843 106.88 36.0923 106.832 36.2843H96.4881V34.1243H105.296L104 35.1083C104.16 34.3243 104.104 33.6283 103.832 33.0203C103.576 32.3963 103.176 31.9083 102.632 31.5563C102.104 31.1883 101.48 31.0043 100.76 31.0043C100.04 31.0043 99.4001 31.1883 98.8401 31.5563C98.2801 31.9083 97.8481 32.4203 97.5441 33.0923C97.2401 33.7483 97.1201 34.5483 97.1841 35.4923C97.1041 36.3723 97.2241 37.1403 97.5441 37.7963C97.8801 38.4523 98.3441 38.9643 98.9361 39.3323C99.5441 39.7003 100.232 39.8843 101 39.8843C101.784 39.8843 102.448 39.7083 102.992 39.3563C103.552 39.0043 103.992 38.5483 104.312 37.9883L106.52 39.0683C106.264 39.6763 105.864 40.2283 105.32 40.7243C104.792 41.2043 104.152 41.5883 103.4 41.8763C102.664 42.1483 101.856 42.2843 100.976 42.2843ZM113.578 41.9963V24.1163H120.082C121.282 24.1163 122.338 24.3403 123.25 24.7883C124.178 25.2203 124.898 25.8603 125.41 26.7083C125.922 27.5403 126.178 28.5403 126.178 29.7083C126.178 30.8603 125.914 31.8523 125.386 32.6843C124.874 33.5163 124.162 34.1563 123.25 34.6043C122.338 35.0523 121.282 35.2763 120.082 35.2763H116.41V41.9963H113.578ZM116.41 32.7563H120.154C120.794 32.7563 121.354 32.6283 121.834 32.3723C122.314 32.1163 122.69 31.7643 122.962 31.3163C123.234 30.8523 123.37 30.3083 123.37 29.6843C123.37 29.0603 123.234 28.5243 122.962 28.0763C122.69 27.6123 122.314 27.2603 121.834 27.0203C121.354 26.7643 120.794 26.6363 120.154 26.6363H116.41V32.7563ZM128.59 41.9963V23.8283H131.302V41.9963H128.59ZM138.121 42.2843C137.241 42.2843 136.465 42.1323 135.793 41.8283C135.137 41.5083 134.625 41.0763 134.257 40.5323C133.889 39.9723 133.705 39.3163 133.705 38.5643C133.705 37.8603 133.857 37.2283 134.161 36.6683C134.481 36.1083 134.969 35.6363 135.625 35.2523C136.281 34.8683 137.105 34.5963 138.097 34.4363L142.609 33.6923V35.8283L138.625 36.5243C137.905 36.6523 137.377 36.8843 137.041 37.2203C136.705 37.5403 136.537 37.9563 136.537 38.4683C136.537 38.9643 136.721 39.3723 137.089 39.6923C137.473 39.9963 137.961 40.1483 138.553 40.1483C139.289 40.1483 139.929 39.9883 140.473 39.6683C141.033 39.3483 141.465 38.9243 141.769 38.3963C142.073 37.8523 142.225 37.2523 142.225 36.5963V33.2603C142.225 32.6203 141.985 32.1003 141.505 31.7003C141.041 31.2843 140.417 31.0763 139.633 31.0763C138.913 31.0763 138.281 31.2683 137.737 31.6523C137.209 32.0203 136.817 32.5003 136.561 33.0923L134.305 31.9643C134.545 31.3243 134.937 30.7643 135.481 30.2843C136.025 29.7883 136.657 29.4043 137.377 29.1323C138.113 28.8603 138.889 28.7243 139.705 28.7243C140.729 28.7243 141.633 28.9163 142.417 29.3003C143.217 29.6843 143.833 30.2203 144.265 30.9083C144.713 31.5803 144.937 32.3643 144.937 33.2603V41.9963H142.345V39.6443L142.897 39.7163C142.593 40.2443 142.201 40.7003 141.721 41.0843C141.257 41.4683 140.721 41.7643 140.113 41.9723C139.521 42.1803 138.857 42.2843 138.121 42.2843ZM149.02 47.2763C148.7 47.2763 148.38 47.2443 148.06 47.1803C147.756 47.1323 147.476 47.0523 147.22 46.9403V44.6123C147.412 44.6603 147.644 44.7003 147.916 44.7323C148.188 44.7803 148.452 44.8043 148.708 44.8043C149.46 44.8043 150.012 44.6363 150.364 44.3003C150.732 43.9803 151.06 43.4843 151.348 42.8123L152.212 40.8443L152.164 43.1243L146.548 29.0123H149.452L153.604 39.8363H152.62L156.748 29.0123H159.676L153.94 43.4123C153.636 44.1803 153.252 44.8523 152.788 45.4283C152.34 46.0203 151.804 46.4763 151.18 46.7963C150.572 47.1163 149.852 47.2763 149.02 47.2763Z" fill="white"/>
</g>
<g filter="url(#filter3_di_484_6532)">
<rect x="170.004" y="8.99634" width="46" height="46" rx="23" fill="#F7F8F8" shape-rendering="crispEdges"/>
<rect x="170.604" y="9.59634" width="44.8" height="44.8" rx="22.4" stroke="url(#paint1_linear_484_6532)" stroke-width="1.2" shape-rendering="crispEdges"/>
<path d="M198.929 28.2291C196.141 26.6697 191.666 24.1657 184.725 20.2793C184.258 19.9703 183.719 19.9298 183.254 20.0872L195.163 31.9958L198.929 28.2291Z" fill="#32BBFF"/>
<path d="M183.254 20.0873C183.167 20.1168 183.082 20.1524 183.001 20.1955C182.487 20.4733 182.109 21.008 182.109 21.6843V42.3075C182.109 42.9837 182.487 43.5184 183.001 43.7963C183.082 43.8393 183.166 43.875 183.253 43.9047L195.162 31.9959L183.254 20.0873Z" fill="#32BBFF"/>
<path d="M195.163 31.9958L183.254 43.9047C183.719 44.0633 184.258 44.0259 184.726 43.7124C191.457 39.9431 195.881 37.4688 198.702 35.8961C198.78 35.852 198.857 35.8089 198.933 35.7662L195.163 31.9958Z" fill="#32BBFF"/>
<path d="M182.004 31.9963V42.3868C182.004 43.0683 182.38 43.6071 182.891 43.887C182.972 43.9304 183.057 43.9664 183.143 43.9963L195.004 31.9963H182.004Z" fill="#2C9FD9"/>
<path d="M184.736 20.2747C184.178 19.9132 183.52 19.9235 183.004 20.1921L195.039 31.9963L199.004 28.1072C196.203 26.5708 191.708 24.1037 184.736 20.2747Z" fill="#29CC5E"/>
<path d="M195.036 31.9963L183.004 43.7988C183.52 44.0673 184.178 44.0828 184.736 43.7162C191.496 40.0031 195.939 37.5657 198.771 36.0165C198.85 35.973 198.928 35.9305 199.004 35.8885L195.036 31.9963Z" fill="#D93F21"/>
<path d="M204.004 31.9944C204.004 31.4081 203.719 30.8164 203.154 30.4882C203.154 30.4882 202.097 29.8764 198.857 27.9963L195.004 31.9944L198.861 35.9963C202.065 34.1298 203.154 33.5005 203.154 33.5005C203.719 33.1724 204.004 32.5807 204.004 31.9944Z" fill="#FFD500"/>
<path d="M203.154 33.5017C203.719 33.1738 204.004 32.5824 204.004 31.9963H195.004L198.861 35.9963C202.065 34.1308 203.154 33.5017 203.154 33.5017Z" fill="#FFAA00"/>
</g>
</g>
<rect x="1.5" y="1.5" width="236" height="61" rx="30.5" stroke="url(#paint2_linear_484_6532)"/>
</g>
<defs>
<filter id="filter0_d_484_6532" x="0" y="0" width="239" height="64" filterUnits="userSpaceOnUse" color-interpolation-filters="sRGB">
<feFlood flood-opacity="0" result="BackgroundImageFix"/>
<feColorMatrix in="SourceAlpha" type="matrix" values="0 0 0 0 0 0 0 0 0 0 0 0 0 0 0 0 0 0 127 0" result="hardAlpha"/>
<feMorphology radius="1" operator="dilate" in="SourceAlpha" result="effect1_dropShadow_484_6532"/>
<feOffset/>
<feComposite in2="hardAlpha" operator="out"/>
<feColorMatrix type="matrix" values="0 0 0 0 1 0 0 0 0 1 0 0 0 0 1 0 0 0 0.24 0"/>
<feBlend mode="normal" in2="BackgroundImageFix" result="effect1_dropShadow_484_6532"/>
<feBlend mode="normal" in="SourceGraphic" in2="effect1_dropShadow_484_6532" result="shape"/>
</filter>
<filter id="filter1_f_484_6532" x="74" y="-19" width="184" height="102" filterUnits="userSpaceOnUse" color-interpolation-filters="sRGB">
<feFlood flood-opacity="0" result="BackgroundImageFix"/>
<feBlend mode="normal" in="SourceGraphic" in2="BackgroundImageFix" result="shape"/>
<feGaussianBlur stdDeviation="14" result="effect1_foregroundBlur_484_6532"/>
</filter>
<filter id="filter2_d_484_6532" x="23.0242" y="23.8283" width="136.952" height="24.148" filterUnits="userSpaceOnUse" color-interpolation-filters="sRGB">
<feFlood flood-opacity="0" result="BackgroundImageFix"/>
<feColorMatrix in="SourceAlpha" type="matrix" values="0 0 0 0 0 0 0 0 0 0 0 0 0 0 0 0 0 0 127 0" result="hardAlpha"/>
<feOffset dy="0.4"/>
<feGaussianBlur stdDeviation="0.15"/>
<feComposite in2="hardAlpha" operator="out"/>
<feColorMatrix type="matrix" values="0 0 0 0 0 0 0 0 0 0 0 0 0 0 0 0 0 0 0.08 0"/>
<feBlend mode="normal" in2="BackgroundImageFix" result="effect1_dropShadow_484_6532"/>
<feBlend mode="normal" in="SourceGraphic" in2="effect1_dropShadow_484_6532" result="shape"/>
</filter>
<filter id="filter3_di_484_6532" x="164.004" y="4.99634" width="58" height="60" filterUnits="userSpaceOnUse" color-interpolation-filters="sRGB">
<feFlood flood-opacity="0" result="BackgroundImageFix"/>
<feColorMatrix in="SourceAlpha" type="matrix" values="0 0 0 0 0 0 0 0 0 0 0 0 0 0 0 0 0 0 127 0" result="hardAlpha"/>
<feOffset dy="4"/>
<feGaussianBlur stdDeviation="3"/>
<feComposite in2="hardAlpha" operator="out"/>
<feColorMatrix type="matrix" values="0 0 0 0 0 0 0 0 0 0 0 0 0 0 0 0 0 0 0.3 0"/>
<feBlend mode="normal" in2="BackgroundImageFix" result="effect1_dropShadow_484_6532"/>
<feBlend mode="normal" in="SourceGraphic" in2="effect1_dropShadow_484_6532" result="shape"/>
<feColorMatrix in="SourceAlpha" type="matrix" values="0 0 0 0 0 0 0 0 0 0 0 0 0 0 0 0 0 0 127 0" result="hardAlpha"/>
<feOffset dx="-4" dy="-4"/>
<feGaussianBlur stdDeviation="3"/>
<feComposite in2="hardAlpha" operator="arithmetic" k2="-1" k3="1"/>
<feColorMatrix type="matrix" values="0 0 0 0 0.729412 0 0 0 0 0.784314 0 0 0 0 0.819608 0 0 0 0.3 0"/>
<feBlend mode="normal" in2="shape" result="effect2_innerShadow_484_6532"/>
</filter>
<linearGradient id="paint0_linear_484_6532" x1="230" y1="32" x2="102" y2="32" gradientUnits="userSpaceOnUse">
<stop stop-color="#6E51E0"/>
<stop offset="1" stop-color="#6E51E0" stop-opacity="0"/>
</linearGradient>
<linearGradient id="paint1_linear_484_6532" x1="185.028" y1="11.7085" x2="199.793" y2="54.9963" gradientUnits="userSpaceOnUse">
<stop stop-color="white"/>
<stop offset="1" stop-color="#BAC8D1"/>
</linearGradient>
<linearGradient id="paint2_linear_484_6532" x1="1" y1="32" x2="238" y2="32" gradientUnits="userSpaceOnUse">
<stop stop-color="#3C3655"/>
<stop offset="1" stop-color="#3C3655"/>
</linearGradient>
<clipPath id="clip0_484_6532">
<rect x="1" y="1" width="237" height="62" rx="31" fill="white"/>
</clipPath>
</defs>
</svg>
