<svg width="38" height="33" viewBox="0 0 38 33" fill="none" xmlns="http://www.w3.org/2000/svg">
<rect width="38" height="33" rx="16.5" fill="url(#paint0_linear_484_8881)"/>
<path d="M18.525 22.765C18.145 22.765 17.795 22.67 17.475 22.48C17.165 22.3 16.915 22.055 16.725 21.745C16.545 21.425 16.455 21.075 16.455 20.695C16.455 20.215 16.565 19.815 16.785 19.495C17.005 19.175 17.345 18.8 17.805 18.37C18.145 18.06 18.315 17.765 18.315 17.485V17.215H18.045C17.735 17.215 17.31 17.525 16.77 18.145C16.24 18.765 15.595 19.075 14.835 19.075C14.455 19.075 14.105 18.985 13.785 18.805C13.475 18.615 13.225 18.365 13.035 18.055C12.855 17.735 12.765 17.385 12.765 17.005C12.765 16.625 12.855 16.28 13.035 15.97C13.225 15.65 13.475 15.4 13.785 15.22C14.105 15.03 14.455 14.935 14.835 14.935C15.585 14.935 16.225 15.24 16.755 15.85C17.285 16.46 17.715 16.765 18.045 16.765H18.315V16.525C18.315 16.245 18.145 15.95 17.805 15.64L17.46 15.325C17.21 15.095 16.98 14.82 16.77 14.5C16.56 14.17 16.455 13.775 16.455 13.315C16.455 12.935 16.545 12.59 16.725 12.28C16.915 11.96 17.165 11.71 17.475 11.53C17.795 11.34 18.145 11.245 18.525 11.245C18.905 11.245 19.25 11.34 19.56 11.53C19.88 11.72 20.13 11.97 20.31 12.28C20.5 12.59 20.595 12.935 20.595 13.315C20.595 14.065 20.29 14.705 19.68 15.235C19.07 15.765 18.765 16.195 18.765 16.525V16.765H19.005C19.345 16.765 19.775 16.46 20.295 15.85C20.805 15.24 21.445 14.935 22.215 14.935C22.595 14.935 22.94 15.03 23.25 15.22C23.57 15.4 23.82 15.645 24 15.955C24.19 16.265 24.285 16.615 24.285 17.005C24.285 17.385 24.19 17.735 24 18.055C23.82 18.365 23.57 18.615 23.25 18.805C22.94 18.985 22.595 19.075 22.215 19.075C21.745 19.075 21.34 18.96 21 18.73C20.67 18.5 20.3 18.165 19.89 17.725C19.58 17.385 19.285 17.215 19.005 17.215H18.765V17.485C18.765 17.855 19.07 18.285 19.68 18.775C20.29 19.265 20.595 19.905 20.595 20.695C20.595 21.075 20.5 21.425 20.31 21.745C20.13 22.055 19.885 22.3 19.575 22.48C19.265 22.67 18.915 22.765 18.525 22.765Z" fill="white"/>
<defs>
<linearGradient id="paint0_linear_484_8881" x1="0" y1="16.5" x2="38" y2="16.5" gradientUnits="userSpaceOnUse">
<stop stop-color="#005DFF"/>
<stop offset="1" stop-color="#5F5CA4"/>
</linearGradient>
</defs>
</svg>
