<svg width="24" height="24" viewBox="0 0 24 24" fill="none" xmlns="http://www.w3.org/2000/svg">
<path d="M11.3751 7.01385C11.2463 6.6656 10.7537 6.66559 10.6248 7.01384L10.4841 7.39405C9.80774 9.222 9.46953 10.136 8.80278 10.8028C8.13603 11.4695 7.22204 11.8077 5.39405 12.4842L5.0139 12.6249C4.66564 12.7537 4.66564 13.2463 5.0139 13.3751L5.39405 13.5158C7.22204 14.1923 8.13603 14.5305 8.80278 15.1972C9.46953 15.864 9.80774 16.778 10.4841 18.6059L10.6248 18.9861C10.7537 19.3344 11.2463 19.3344 11.3751 18.9861L11.5158 18.6059C12.1923 16.778 12.5305 15.864 13.1972 15.1972C13.864 14.5305 14.778 14.1923 16.6059 13.5158L16.9861 13.3751C17.3343 13.2463 17.3343 12.7537 16.9861 12.6249L16.6059 12.4842C14.778 11.8077 13.864 11.4695 13.1972 10.8028C12.5305 10.136 12.1923 9.222 11.5158 7.39405L11.3751 7.01385Z" fill="url(#paint0_linear_566_9483)"/>
<path d="M18.2211 3.59745C18.1451 3.39221 17.8549 3.39221 17.7789 3.59745C17.489 4.38087 17.3441 4.77259 17.0583 5.05833C16.7726 5.34408 16.3809 5.48903 15.5975 5.77892C15.3923 5.85486 15.3923 6.14514 15.5975 6.22108C16.3809 6.51097 16.7726 6.65592 17.0583 6.94167C17.3441 7.22741 17.489 7.61913 17.7789 8.40255C17.8549 8.60779 18.1451 8.60779 18.2211 8.40255C18.511 7.61913 18.6559 7.22741 18.9417 6.94166C19.2274 6.65592 19.6191 6.51097 20.4025 6.22108C20.6077 6.14514 20.6077 5.85486 20.4025 5.77892C19.6191 5.48903 19.2274 5.34408 18.9417 5.05833C18.6559 4.77259 18.511 4.38087 18.2211 3.59745Z" fill="url(#paint1_linear_566_9483)"/>
<defs>
<linearGradient id="paint0_linear_566_9483" x1="11" y1="6" x2="11" y2="20" gradientUnits="userSpaceOnUse">
<stop stop-color="#6180FA"/>
<stop offset="1" stop-color="#3960F9"/>
</linearGradient>
<linearGradient id="paint1_linear_566_9483" x1="18" y1="3" x2="18" y2="9" gradientUnits="userSpaceOnUse">
<stop stop-color="#6180FA"/>
<stop offset="1" stop-color="#3960F9"/>
</linearGradient>
</defs>
</svg>
