<svg width="248" height="105" viewBox="0 0 248 105" fill="none" xmlns="http://www.w3.org/2000/svg">
<g filter="url(#filter0_dd_484_6355)">
<rect x="4.35547" y="1.07449" width="242" height="94" rx="27" transform="rotate(2 4.35547 1.07449)" fill="white"/>
<rect x="4.59659" y="1.33307" width="241.5" height="93.5" rx="26.75" transform="rotate(2 4.59659 1.33307)" stroke="#EAE5FF" stroke-width="0.5"/>
<path d="M32.6185 47.0889L32.782 42.4058L28.0989 42.2422L28.1565 40.5932L32.8396 40.7568L33.0024 36.0956L34.6514 36.1532L34.4886 40.8143L39.1498 40.9771L39.0922 42.6261L34.431 42.4633L34.2675 47.1465L32.6185 47.0889ZM43.8434 47.4809L44.3617 32.6399L41.2836 32.5324L41.3373 30.9934L46.1744 31.1623L45.6024 47.5423L43.8434 47.4809ZM49.0583 47.663L49.0967 46.5637L53.8457 41.6884C54.7742 40.7376 55.5281 39.9494 56.1076 39.3239C56.7018 38.699 57.1474 38.1275 57.4443 37.6095C57.7412 37.0916 57.9004 36.5248 57.9219 35.9092C57.9562 34.9271 57.6967 34.1622 57.1435 33.6146C56.5903 33.067 55.8373 32.7765 54.8846 32.7432C53.9025 32.7089 53.0646 32.9585 52.3709 33.492C51.6918 34.0259 51.2177 34.7872 50.9483 35.7757L49.3556 35.3679C49.5774 34.4804 49.9487 33.7229 50.4696 33.0954C50.9905 32.4678 51.6308 31.9912 52.3906 31.6655C53.151 31.3252 53.9929 31.1712 54.9163 31.2034C55.8984 31.2377 56.749 31.4655 57.468 31.8869C58.1871 32.3082 58.7398 32.8705 59.1262 33.5738C59.5272 34.2775 59.7121 35.0765 59.6808 35.9706C59.6593 36.5862 59.5067 37.1752 59.2229 37.7377C58.9538 38.3006 58.5512 38.903 58.0151 39.5446C57.479 40.1863 56.7926 40.9328 55.9557 41.7841L51.6405 46.2122L59.7536 46.4955L59.6998 48.0346L49.0583 47.663ZM62.4196 48.1296L63.0008 31.4857L64.6498 31.5433L64.2429 43.1962L63.5431 43.0617L70.3945 36.6089L72.5272 36.6834L67.7449 41.2492L72.5334 48.4828L70.5546 48.4137L66.0555 41.7186L67.1078 41.8434L63.6226 45.1998L64.2198 43.8558L64.0686 48.1872L62.4196 48.1296Z" fill="black"/>
<path d="M27.0922 67.9087L27.4042 58.9742L28.3636 59.0077L28.2233 63.0252L33.0204 63.1928L33.1606 59.1752L34.1201 59.2087L33.8081 68.1433L32.8486 68.1098L32.9889 64.0922L28.1919 63.9247L28.0516 67.9422L27.0922 67.9087ZM37.4048 68.413C36.997 68.3987 36.6359 68.3101 36.3214 68.147C36.0072 67.9759 35.7629 67.7513 35.5885 67.473C35.4141 67.1947 35.333 66.8797 35.3453 66.5279C35.357 66.1921 35.4396 65.8908 35.593 65.624C35.7467 65.3492 35.9788 65.1212 36.2893 64.9399C36.5998 64.7586 36.9923 64.6363 37.4668 64.5728L40 64.241L39.9715 65.0565L37.6555 65.3598C37.189 65.4236 36.848 65.5598 36.6326 65.7684C36.4252 65.9773 36.3163 66.2296 36.306 66.5255C36.2959 66.8133 36.3993 67.061 36.6162 67.2687C36.8411 67.4767 37.1334 67.587 37.4932 67.5995C37.933 67.6149 38.3199 67.5364 38.6541 67.3639C38.9887 67.1835 39.2534 66.9366 39.4485 66.6232C39.6435 66.3098 39.7479 65.9572 39.7616 65.5655L39.8185 63.9345C39.8319 63.5507 39.7029 63.234 39.4315 62.9844C39.16 62.7348 38.8004 62.6021 38.3527 62.5865C37.9609 62.5728 37.6137 62.6607 37.3109 62.8503C37.0083 63.0318 36.7797 63.276 36.6249 63.5828L35.8249 63.1106C35.9543 62.8429 36.1508 62.6017 36.4145 62.3867C36.6861 62.1721 36.9921 62.0066 37.3324 61.8905C37.6729 61.7663 38.0231 61.7104 38.3828 61.723C38.8546 61.7395 39.2671 61.8459 39.6205 62.0424C39.9818 62.2391 40.2567 62.5049 40.4451 62.8397C40.6418 63.1667 40.7328 63.5421 40.718 63.9659L40.5639 68.3792L39.6644 68.3478L39.7092 67.0646L39.8366 67.2011C39.7162 67.437 39.5327 67.6508 39.2858 67.8423C39.0473 68.026 38.766 68.1723 38.442 68.2811C38.1263 68.3821 37.7805 68.4261 37.4048 68.413ZM42.0903 70.834L42.3986 62.0073L43.298 62.0387L43.2478 63.4779L43.1126 63.221C43.3827 62.8222 43.7338 62.5102 44.1659 62.2852C44.6061 62.0604 45.1019 61.9576 45.6536 61.9769C46.2612 61.9981 46.7957 62.1649 47.2571 62.4772C47.7268 62.7818 48.0887 63.1906 48.343 63.7038C48.6052 64.2173 48.725 64.7978 48.7024 65.4454C48.6801 66.085 48.5201 66.6558 48.2224 67.1577C47.9329 67.6519 47.5432 68.0386 47.0532 68.3176C46.5714 68.589 46.0267 68.714 45.4191 68.6928C44.8674 68.6736 44.372 68.5322 43.933 68.2687C43.5022 67.9975 43.1829 67.6261 42.9753 67.1546L43.1238 67.0277L42.9898 70.8654L42.0903 70.834ZM45.4025 67.7917C45.8343 67.8068 46.2218 67.7122 46.5651 67.5081C46.9165 67.3042 47.1945 67.0218 47.3992 66.6607C47.6122 66.2919 47.7268 65.8756 47.743 65.4119C47.7595 64.9402 47.6742 64.517 47.4872 64.1422C47.3081 63.7677 47.0505 63.4666 46.7142 63.2387C46.386 63.0111 46.006 62.8898 45.5742 62.8747C45.1425 62.8596 44.747 62.9539 44.3876 63.1575C44.0363 63.3613 43.7501 63.6475 43.5291 64.016C43.3164 64.3768 43.202 64.7891 43.1858 65.2528C43.1696 65.7165 43.2549 66.1397 43.4416 66.5225C43.6366 66.8975 43.9023 67.199 44.2385 67.4268C44.5828 67.655 44.9708 67.7766 45.4025 67.7917ZM49.8495 71.1049L50.1577 62.2783L51.0572 62.3097L51.0069 63.7488L50.8718 63.492C51.1419 63.0931 51.493 62.7812 51.9251 62.5561C52.3652 62.3314 52.8611 62.2286 53.4128 62.2479C54.0204 62.2691 54.5549 62.4358 55.0163 62.7481C55.486 63.0527 55.8479 63.4616 56.1022 63.9748C56.3644 64.4882 56.4842 65.0688 56.4616 65.7164C56.4393 66.356 56.2792 66.9268 55.9815 67.4287C55.6921 67.9229 55.3024 68.3095 54.8123 68.5886C54.3306 68.8599 53.7859 68.985 53.1783 68.9638C52.6266 68.9445 52.1312 68.8031 51.6922 68.5397C51.2614 68.2685 50.9421 67.8971 50.7345 67.4256L50.883 67.2987L50.749 71.1363L49.8495 71.1049ZM53.1617 68.0627C53.5934 68.0777 53.981 67.9832 54.3243 67.7791C54.6756 67.5752 54.9537 67.2927 55.1584 66.9316C55.3714 66.5629 55.486 66.1466 55.5022 65.6829C55.5186 65.2112 55.4334 64.7879 55.2463 64.4132C55.0673 64.0387 54.8096 63.7375 54.4734 63.5097C54.1451 63.2821 53.7651 63.1607 53.3334 63.1456C52.9017 63.1306 52.5061 63.2248 52.1468 63.4284C51.7955 63.6323 51.5093 63.9185 51.2883 64.287C51.0756 64.6478 50.9611 65.06 50.945 65.5237C50.9288 65.9875 51.014 66.4107 51.2008 66.7934C51.3958 67.1685 51.6615 67.4699 51.9977 67.6978C52.342 67.926 52.73 68.0476 53.1617 68.0627ZM57.6151 71.6162C57.4872 71.6118 57.3557 71.5952 57.2206 71.5664C57.0932 71.546 56.9664 71.5095 56.8402 71.4571L56.8695 70.6176C56.9492 70.6284 57.0487 70.6439 57.1681 70.6641C57.2952 70.6925 57.4227 70.709 57.5506 70.7134C57.9423 70.7271 58.2451 70.6536 58.4588 70.493C58.6723 70.3404 58.887 70.0357 59.1031 69.5789L59.5444 68.6338L59.4927 69.4244L57.0083 62.5175L57.9797 62.5514L60.0139 68.2539L59.7621 68.2451L62.1771 62.698L63.1725 62.7328L59.9814 69.8738C59.8426 70.1811 59.6683 70.4712 59.4587 70.744C59.257 71.0172 59.0053 71.2325 58.7037 71.3901C58.4017 71.5557 58.0389 71.631 57.6151 71.6162ZM68.8321 69.5104C68.2005 69.4884 67.6494 69.337 67.1789 69.0564C66.7084 68.7759 66.3492 68.4031 66.1013 67.9382C65.8537 67.4652 65.7402 66.9329 65.7608 66.3413L65.9711 60.321L66.9305 60.3545L66.7202 66.3748C66.7052 66.8065 66.7838 67.1895 66.9563 67.5237C67.137 67.8503 67.388 68.1112 67.7094 68.3065C68.0391 68.4941 68.4238 68.5956 68.8635 68.611C69.3032 68.6263 69.6901 68.5518 70.024 68.3873C70.3662 68.2152 70.6349 67.9724 70.8299 67.659C71.0333 67.3379 71.1425 66.9615 71.1575 66.5298L71.3678 60.5094L72.3272 60.5429L72.1169 66.5633C72.0963 67.1549 71.9459 67.678 71.6659 68.1325C71.3862 68.579 71.0018 68.9258 70.5129 69.1729C70.032 69.4202 69.4717 69.5328 68.8321 69.5104ZM75.9461 69.7588C75.3305 69.7373 74.7962 69.5626 74.3434 69.2346C73.8906 68.9066 73.5696 68.4711 73.3804 67.9282L74.1485 67.5948C74.3187 67.993 74.5637 68.3137 74.8834 68.557C75.2111 68.8006 75.5748 68.9294 75.9746 68.9433C76.3583 68.9567 76.6854 68.8761 76.9556 68.7014C77.2262 68.5188 77.3667 68.2755 77.3773 67.9717C77.3852 67.7478 77.3273 67.5697 77.2039 67.4373C77.0807 67.2969 76.9364 67.1878 76.771 67.11C76.6057 67.0322 76.4596 66.9751 76.3328 66.9386L75.4185 66.6425C74.8328 66.454 74.4133 66.2032 74.16 65.8902C73.9068 65.5771 73.7872 65.2207 73.8011 64.821C73.8142 64.4452 73.9216 64.1208 74.1233 63.8476C74.3249 63.5745 74.5923 63.3677 74.9254 63.2272C75.2585 63.0868 75.625 63.0235 76.0247 63.0375C76.5684 63.0565 77.0551 63.2176 77.4847 63.5207C77.9227 63.8162 78.2248 64.219 78.3911 64.7291L77.611 65.0621C77.4637 64.6967 77.2416 64.4088 76.9448 64.1983C76.6562 63.9801 76.328 63.8646 75.9603 63.8517C75.6005 63.8392 75.3094 63.9211 75.0872 64.0974C74.8649 64.2738 74.7488 64.5019 74.7391 64.7817C74.7315 64.9976 74.7815 65.1714 74.889 65.3032C74.9964 65.4351 75.121 65.5355 75.2627 65.6045C75.4123 65.6737 75.5426 65.7263 75.6534 65.7622L76.7099 66.1113C77.2242 66.2813 77.6198 66.5313 77.8964 66.8611C78.1811 67.1913 78.3159 67.5722 78.3008 68.004C78.2885 68.3557 78.1775 68.6681 77.9679 68.9409C77.7662 69.214 77.4907 69.4246 77.1413 69.5724C76.7922 69.7123 76.3938 69.7745 75.9461 69.7588ZM82.5036 69.9878C81.9039 69.9669 81.3653 69.804 80.8876 69.4991C80.4183 69.1866 80.0526 68.7696 79.7906 68.2481C79.5287 67.7266 79.409 67.1421 79.4316 66.4945C79.4542 65.8469 79.6101 65.28 79.8993 64.7938C80.1887 64.2996 80.5703 63.9167 81.044 63.645C81.5258 63.3737 82.0585 63.2482 82.6422 63.2686C83.1059 63.2848 83.5145 63.3871 83.8682 63.5756C84.2301 63.7563 84.5338 63.999 84.7793 64.3038C85.0251 64.6006 85.2096 64.9352 85.3326 65.3077C85.456 65.6722 85.511 66.0464 85.4976 66.4302C85.4948 66.5101 85.4876 66.6019 85.4759 66.7056C85.4646 66.8012 85.4491 66.9008 85.4295 67.0041L79.9968 66.8144L80.0261 65.9749L84.9431 66.1466L84.4988 66.4913C84.5861 66.0541 84.5478 65.6605 84.3839 65.3106C84.2283 64.953 83.9941 64.6686 83.6813 64.4576C83.3687 64.2385 83.0126 64.122 82.6128 64.1081C82.2131 64.0941 81.8377 64.1851 81.4866 64.3809C81.1436 64.5771 80.8695 64.8597 80.6645 65.2288C80.4598 65.5898 80.3685 66.0269 80.3906 66.54C80.3328 67.0503 80.3971 67.5008 80.5836 67.8916C80.7783 68.2746 81.048 68.5762 81.3925 68.7963C81.745 69.0168 82.1251 69.1341 82.5329 69.1484C83.0046 69.1648 83.4043 69.0667 83.7319 68.854C84.0595 68.6413 84.3291 68.3706 84.5407 68.0417L85.294 68.4763C85.1561 68.7597 84.9508 69.0207 84.6783 69.2593C84.4061 69.4899 84.0835 69.6748 83.7104 69.8139C83.3456 69.9452 82.9433 70.0032 82.5036 69.9878ZM86.7208 69.991L86.9453 63.5629L87.8448 63.5943L87.8079 64.6497L87.6934 64.4896C87.8559 64.1911 88.0922 63.9592 88.4021 63.7939C88.7201 63.6289 89.0989 63.5541 89.5387 63.5695L89.9464 63.5837L89.915 64.4831L89.3514 64.4635C88.8876 64.4473 88.5108 64.5782 88.221 64.8562C87.9311 65.1343 87.7769 65.5372 87.7585 66.0648L87.6203 70.0224L86.7208 69.991ZM92.7588 70.346C92.1432 70.3245 91.609 70.1497 91.1561 69.8217C90.7033 69.4937 90.3823 69.0582 90.1931 68.5153L90.9612 68.1819C91.1315 68.5801 91.3764 68.9008 91.6961 69.1441C92.0238 69.3877 92.3875 69.5165 92.7873 69.5305C93.1711 69.5439 93.4981 69.4632 93.7683 69.2885C94.0389 69.1059 94.1794 68.8626 94.1901 68.5588C94.1979 68.335 94.1401 68.1568 94.0166 68.0244C93.8934 67.8841 93.7491 67.775 93.5838 67.6971C93.4184 67.6193 93.2723 67.5622 93.1455 67.5257L92.2313 67.2297C91.6455 67.0411 91.226 66.7903 90.9727 66.4773C90.7195 66.1642 90.5999 65.8079 90.6138 65.4081C90.627 65.0323 90.7344 64.7079 90.936 64.4347C91.1377 64.1616 91.405 63.9548 91.7381 63.8144C92.0712 63.6739 92.4377 63.6106 92.8374 63.6246C93.3811 63.6436 93.8678 63.8047 94.2975 64.1079C94.7354 64.4033 95.0375 64.8061 95.2038 65.3162L94.4237 65.6492C94.2764 65.2838 94.0543 64.9959 93.7575 64.7854C93.4689 64.5672 93.1408 64.4517 92.773 64.4389C92.4132 64.4263 92.1222 64.5082 91.8999 64.6845C91.6776 64.8609 91.5616 65.089 91.5518 65.3688C91.5442 65.5847 91.5942 65.7585 91.7017 65.8904C91.8091 66.0222 91.9337 66.1226 92.0754 66.1916C92.2251 66.2608 92.3553 66.3134 92.4661 66.3493L93.5226 66.6984C94.037 66.8684 94.4325 67.1184 94.7091 67.4483C94.9938 67.7784 95.1286 68.1593 95.1135 68.5911C95.1012 68.9429 94.9902 69.2552 94.7806 69.528C94.5789 69.8012 94.3034 70.0117 93.9541 70.1596C93.605 70.2995 93.2065 70.3616 92.7588 70.346Z" fill="black"/>
<path d="M205.778 53.3859C205.896 50.0052 203.251 47.1689 199.87 47.0509C196.49 46.9328 193.653 49.5777 193.535 52.9584C193.417 56.3391 196.062 59.1753 199.443 59.2934C202.823 59.4115 205.66 56.7666 205.778 53.3859Z" stroke="#6E51E0" stroke-width="2.625" stroke-linecap="round" stroke-linejoin="round"/>
<path d="M205.726 53.9968C206.283 54.1871 206.877 54.2998 207.496 54.3214C210.876 54.4395 213.712 51.7946 213.831 48.4139C213.949 45.0332 211.304 42.1969 207.923 42.0789C204.749 41.968 202.055 44.2929 201.64 47.3755" stroke="#6E51E0" stroke-width="2.625" stroke-linecap="round" stroke-linejoin="round"/>
<path d="M198.081 47.2513C197.882 44.1472 195.357 41.6401 192.183 41.5292C188.802 41.4112 185.966 44.056 185.848 47.4367C185.73 50.8174 188.375 53.6537 191.755 53.7718C192.374 53.7934 192.975 53.7224 193.544 53.5714" stroke="#6E51E0" stroke-width="2.625" stroke-linecap="round" stroke-linejoin="round"/>
<path d="M216.81 63.402C216.979 58.5725 212.809 54.5069 207.496 54.3214" stroke="#6E51E0" stroke-width="2.625" stroke-linecap="round" stroke-linejoin="round"/>
<path d="M208.756 68.374C208.925 63.5445 204.755 59.4789 199.442 59.2934C194.13 59.1079 189.687 62.8727 189.518 67.7022" stroke="#6E51E0" stroke-width="2.625" stroke-linecap="round" stroke-linejoin="round"/>
<path d="M191.756 53.7718C186.443 53.5862 182 57.351 181.831 62.1805" stroke="#6E51E0" stroke-width="2.625" stroke-linecap="round" stroke-linejoin="round"/>
</g>
<defs>
<filter id="filter0_dd_484_6355" x="-0.924805" y="-0.925507" width="249.133" height="106.388" filterUnits="userSpaceOnUse" color-interpolation-filters="sRGB">
<feFlood flood-opacity="0" result="BackgroundImageFix"/>
<feColorMatrix in="SourceAlpha" type="matrix" values="0 0 0 0 0 0 0 0 0 0 0 0 0 0 0 0 0 0 127 0" result="hardAlpha"/>
<feMorphology radius="2" operator="dilate" in="SourceAlpha" result="effect1_dropShadow_484_6355"/>
<feOffset/>
<feComposite in2="hardAlpha" operator="out"/>
<feColorMatrix type="matrix" values="0 0 0 0 1 0 0 0 0 1 0 0 0 0 1 0 0 0 0.4 0"/>
<feBlend mode="normal" in2="BackgroundImageFix" result="effect1_dropShadow_484_6355"/>
<feColorMatrix in="SourceAlpha" type="matrix" values="0 0 0 0 0 0 0 0 0 0 0 0 0 0 0 0 0 0 127 0" result="hardAlpha"/>
<feOffset dy="0.4"/>
<feGaussianBlur stdDeviation="0.4"/>
<feComposite in2="hardAlpha" operator="out"/>
<feColorMatrix type="matrix" values="0 0 0 0 0 0 0 0 0 0 0 0 0 0 0 0 0 0 0.04 0"/>
<feBlend mode="normal" in2="effect1_dropShadow_484_6355" result="effect2_dropShadow_484_6355"/>
<feBlend mode="normal" in="SourceGraphic" in2="effect2_dropShadow_484_6355" result="shape"/>
</filter>
</defs>
</svg>
