<svg width="20" height="20" viewBox="0 0 20 20" fill="none" xmlns="http://www.w3.org/2000/svg">
<path d="M1.87515 3.35413C1.87234 3.15911 1.90869 2.96551 1.98203 2.78478C2.05537 2.60405 2.16422 2.43987 2.30214 2.30195C2.44005 2.16404 2.60423 2.05519 2.78496 1.98185C2.96569 1.9085 3.15929 1.87216 3.35432 1.87497L9.59432 1.95413C10.1932 1.96138 10.7654 2.20277 11.1885 2.62663L17.271 8.7083C17.6235 9.0608 17.936 9.56997 18.0643 10.1141C18.1943 10.6675 18.1443 11.3441 17.6235 11.8641L11.8652 17.6233C11.3443 18.1441 10.6677 18.1941 10.1143 18.0641C9.58296 17.9307 9.09734 17.6567 8.70848 17.2708L2.62682 11.1883C2.2037 10.7647 1.96245 10.1928 1.95432 9.59413L1.87515 3.35413ZM6.53515 5.26247C6.41667 5.15207 6.25997 5.09196 6.09805 5.09482C5.93613 5.09768 5.78164 5.16327 5.66713 5.27778C5.55262 5.39229 5.48703 5.54678 5.48417 5.7087C5.48131 5.87062 5.54142 6.02732 5.65182 6.1458L6.24098 6.7358C6.35891 6.8496 6.51682 6.91252 6.68069 6.91102C6.84457 6.90952 7.00129 6.84371 7.11712 6.72778C7.23295 6.61184 7.2986 6.45505 7.29995 6.29118C7.3013 6.1273 7.23822 5.96946 7.12432 5.85163L6.53515 5.26247Z" fill="#F3785D"/>
</svg>
