<svg width="22" height="20" viewBox="0 0 22 20" fill="none" xmlns="http://www.w3.org/2000/svg">
<path d="M1.08333 0H20.5833C20.8706 0 21.1462 0.114137 21.3494 0.317301C21.5525 0.520465 21.6667 0.796016 21.6667 1.08333V18.4167C21.6667 18.704 21.5525 18.9795 21.3494 19.1827C21.1462 19.3859 20.8706 19.5 20.5833 19.5H1.08333C0.796015 19.5 0.520465 19.3859 0.317301 19.1827C0.114137 18.9795 0 18.704 0 18.4167V1.08333C0 0.796016 0.114137 0.520465 0.317301 0.317301C0.520465 0.114137 0.796015 0 1.08333 0ZM10.8983 9.40658L3.952 3.50783L2.54908 5.15883L10.9124 12.2601L19.1252 5.15342L17.7082 3.51433L10.8983 9.40658Z" fill="url(#paint0_linear_585_5180)"/>
<defs>
<linearGradient id="paint0_linear_585_5180" x1="0" y1="9.75" x2="21.6667" y2="9.75" gradientUnits="userSpaceOnUse">
<stop stop-color="#005DFF"/>
<stop offset="1" stop-color="#5F5CA4"/>
</linearGradient>
</defs>
</svg>
