<svg width="597" height="243" viewBox="0 0 597 243" fill="none" xmlns="http://www.w3.org/2000/svg">
<path d="M30.0328 106.631C12.9513 104.08 5.04351 111.514 0.5 115.203V242.5H596.5V1.50043C590.848 16.1437 543.786 53.4081 542.545 53.4081C541.303 53.4081 536.526 52.4805 535.904 51.5543C532.584 46.6107 511.001 57.1158 511.01 58.0616C511.018 59.0075 474.774 66.3136 460.748 70.9724C456.583 64.6195 447.198 51.5921 436.294 58.9697C422.663 68.1916 396.537 76.2533 393.13 72.5645C389.722 68.8757 380.319 54.9877 365.553 62.3652L365.245 62.5188C350.504 69.884 330.298 79.9799 316.762 79.9799C303.131 79.9799 294.524 68.8316 287.709 63.9132C280.894 58.9949 272.726 72.2019 267.047 75.8907C261.367 79.5795 261.539 79.9641 256.996 76.8902C252.452 73.8162 238.297 77.5207 233.753 79.9799C229.21 82.4391 230.44 87.2103 209.681 92.3389C182.755 98.9913 182.778 75.421 178.138 74.4184C171.512 72.9867 153.506 83.8831 138.74 90.031C123.974 96.179 123.614 96.6708 113.391 97.9004C103.168 99.13 93.1197 91.7146 85.1685 90.485C77.2174 89.2554 72.6734 96.7087 63.5863 105.316C54.4993 113.923 45.8127 108.987 30.0328 106.631Z" fill="url(#paint0_linear_579_5044)"/>
<rect x="7" y="179" width="220" height="37" rx="18.5" stroke="#E0E1E3"/>
<path d="M27.432 204.5V201.008H23.94V198.974H27.432V195.5H29.466V198.974H32.94V201.008H29.466V204.5H27.432ZM35.2108 204.5V202.646L38.8468 198.848C39.5668 198.092 40.1188 197.492 40.5028 197.048C40.8988 196.592 41.1748 196.202 41.3308 195.878C41.4868 195.554 41.5648 195.224 41.5648 194.888C41.5648 194.324 41.3848 193.88 41.0248 193.556C40.6768 193.232 40.2268 193.07 39.6748 193.07C39.0988 193.07 38.6008 193.238 38.1808 193.574C37.7608 193.898 37.4548 194.378 37.2628 195.014L35.1208 194.348C35.2648 193.64 35.5588 193.028 36.0028 192.512C36.4468 191.984 36.9868 191.582 37.6228 191.306C38.2708 191.018 38.9548 190.874 39.6748 190.874C40.5388 190.874 41.2948 191.03 41.9428 191.342C42.6028 191.654 43.1128 192.092 43.4728 192.656C43.8448 193.22 44.0308 193.88 44.0308 194.636C44.0308 195.116 43.9408 195.59 43.7608 196.058C43.5808 196.526 43.3108 197.006 42.9508 197.498C42.5908 197.978 42.1228 198.518 41.5468 199.118L38.3968 202.43H44.2108V204.5H35.2108ZM51.7513 204.5V201.548H45.5953V199.496L51.6073 191.09H54.1633V199.496H56.1253V201.548H54.1633V204.5H51.7513ZM47.3953 200.378L46.9633 199.496H51.7513V193.016L52.3813 193.214L47.3953 200.378ZM58.0206 204.5L63.6006 193.16H57.2826V191.09H66.1746V193.16L60.7206 204.5H58.0206Z" fill="url(#paint1_linear_579_5044)"/>
<path d="M77.404 204.716C76.492 204.716 75.664 204.5 74.92 204.068C74.176 203.624 73.582 203.024 73.138 202.268C72.706 201.5 72.49 200.63 72.49 199.658C72.49 198.698 72.706 197.84 73.138 197.084C73.57 196.328 74.152 195.734 74.884 195.302C75.628 194.858 76.468 194.636 77.404 194.636C78.34 194.636 79.174 194.852 79.906 195.284C80.65 195.716 81.232 196.31 81.652 197.066C82.084 197.822 82.3 198.686 82.3 199.658C82.3 200.642 82.078 201.518 81.634 202.286C81.19 203.042 80.596 203.636 79.852 204.068C79.12 204.5 78.304 204.716 77.404 204.716ZM77.404 203.366C78.052 203.366 78.634 203.204 79.15 202.88C79.678 202.556 80.092 202.112 80.392 201.548C80.704 200.984 80.86 200.354 80.86 199.658C80.86 198.962 80.704 198.338 80.392 197.786C80.092 197.234 79.678 196.796 79.15 196.472C78.634 196.148 78.052 195.986 77.404 195.986C76.756 195.986 76.168 196.148 75.64 196.472C75.124 196.796 74.71 197.234 74.398 197.786C74.086 198.338 73.93 198.962 73.93 199.658C73.93 200.354 74.086 200.984 74.398 201.548C74.71 202.112 75.124 202.556 75.64 202.88C76.168 203.204 76.756 203.366 77.404 203.366ZM84.6809 204.5V194.852H86.0309V196.436L85.8509 196.202C86.0789 195.746 86.4209 195.386 86.8769 195.122C87.3449 194.858 87.9089 194.726 88.5689 194.726H89.1809V196.076H88.3349C87.6389 196.076 87.0809 196.292 86.6609 196.724C86.2409 197.156 86.0309 197.768 86.0309 198.56V204.5H84.6809ZM95.119 204.716C94.219 204.716 93.409 204.5 92.689 204.068C91.969 203.624 91.399 203.024 90.979 202.268C90.571 201.5 90.367 200.636 90.367 199.676C90.367 198.704 90.571 197.84 90.979 197.084C91.399 196.328 91.963 195.734 92.671 195.302C93.391 194.858 94.207 194.636 95.119 194.636C95.947 194.636 96.685 194.816 97.333 195.176C97.981 195.536 98.491 196.022 98.863 196.634L98.647 197.012V190.874H99.997V204.5H98.647V202.34L98.863 202.538C98.527 203.234 98.023 203.774 97.351 204.158C96.691 204.53 95.947 204.716 95.119 204.716ZM95.191 203.366C95.839 203.366 96.421 203.204 96.937 202.88C97.465 202.556 97.879 202.118 98.179 201.566C98.491 201.002 98.647 200.372 98.647 199.676C98.647 198.98 98.491 198.356 98.179 197.804C97.879 197.24 97.465 196.796 96.937 196.472C96.421 196.148 95.839 195.986 95.191 195.986C94.555 195.986 93.979 196.148 93.463 196.472C92.947 196.796 92.539 197.234 92.239 197.786C91.951 198.338 91.807 198.968 91.807 199.676C91.807 200.372 91.951 201.002 92.239 201.566C92.539 202.118 92.941 202.556 93.445 202.88C93.961 203.204 94.543 203.366 95.191 203.366ZM107.161 204.716C106.261 204.716 105.445 204.5 104.713 204.068C103.993 203.624 103.423 203.018 103.003 202.25C102.583 201.482 102.373 200.612 102.373 199.64C102.373 198.668 102.577 197.81 102.985 197.066C103.393 196.31 103.945 195.716 104.641 195.284C105.349 194.852 106.141 194.636 107.017 194.636C107.713 194.636 108.331 194.768 108.871 195.032C109.423 195.284 109.891 195.632 110.275 196.076C110.659 196.508 110.953 197 111.157 197.552C111.361 198.092 111.463 198.65 111.463 199.226C111.463 199.346 111.457 199.484 111.445 199.64C111.433 199.784 111.415 199.934 111.391 200.09H103.237V198.83H110.617L109.969 199.37C110.077 198.71 109.999 198.122 109.735 197.606C109.483 197.078 109.117 196.664 108.637 196.364C108.157 196.052 107.617 195.896 107.017 195.896C106.417 195.896 105.859 196.052 105.343 196.364C104.839 196.676 104.443 197.114 104.155 197.678C103.867 198.23 103.753 198.89 103.813 199.658C103.753 200.426 103.873 201.098 104.173 201.674C104.485 202.238 104.905 202.676 105.433 202.988C105.973 203.3 106.549 203.456 107.161 203.456C107.869 203.456 108.463 203.288 108.943 202.952C109.423 202.616 109.813 202.196 110.113 201.692L111.265 202.304C111.073 202.736 110.779 203.138 110.383 203.51C109.987 203.87 109.513 204.164 108.961 204.392C108.421 204.608 107.821 204.716 107.161 204.716ZM113.843 204.5V194.852H115.193V196.436L115.013 196.202C115.241 195.746 115.583 195.386 116.039 195.122C116.507 194.858 117.071 194.726 117.731 194.726H118.343V196.076H117.497C116.801 196.076 116.243 196.292 115.823 196.724C115.403 197.156 115.193 197.768 115.193 198.56V204.5H113.843ZM123.273 204.716C122.349 204.716 121.539 204.482 120.843 204.014C120.147 203.546 119.643 202.91 119.331 202.106L120.465 201.566C120.741 202.154 121.125 202.622 121.617 202.97C122.121 203.318 122.673 203.492 123.273 203.492C123.849 203.492 124.335 203.354 124.731 203.078C125.127 202.79 125.325 202.418 125.325 201.962C125.325 201.626 125.229 201.362 125.037 201.17C124.845 200.966 124.623 200.81 124.371 200.702C124.119 200.594 123.897 200.516 123.705 200.468L122.319 200.072C121.431 199.82 120.789 199.466 120.393 199.01C119.997 198.554 119.799 198.026 119.799 197.426C119.799 196.862 119.943 196.37 120.231 195.95C120.519 195.53 120.909 195.206 121.401 194.978C121.893 194.75 122.439 194.636 123.039 194.636C123.855 194.636 124.593 194.852 125.253 195.284C125.925 195.704 126.399 196.292 126.675 197.048L125.523 197.588C125.283 197.048 124.935 196.628 124.479 196.328C124.035 196.016 123.537 195.86 122.985 195.86C122.445 195.86 122.013 195.998 121.689 196.274C121.365 196.55 121.203 196.898 121.203 197.318C121.203 197.642 121.287 197.9 121.455 198.092C121.623 198.284 121.815 198.428 122.031 198.524C122.259 198.62 122.457 198.692 122.625 198.74L124.227 199.208C125.007 199.436 125.613 199.79 126.045 200.27C126.489 200.75 126.711 201.314 126.711 201.962C126.711 202.49 126.561 202.964 126.261 203.384C125.973 203.804 125.571 204.134 125.055 204.374C124.539 204.602 123.945 204.716 123.273 204.716ZM135.832 204.608C134.968 204.608 134.302 204.356 133.834 203.852C133.366 203.348 133.132 202.628 133.132 201.692V196.202H131.35V194.852H131.8C132.208 194.852 132.532 194.72 132.772 194.456C133.012 194.18 133.132 193.838 133.132 193.43V192.62H134.482V194.852H136.606V196.202H134.482V201.692C134.482 202.016 134.53 202.304 134.626 202.556C134.722 202.796 134.884 202.988 135.112 203.132C135.352 203.276 135.67 203.348 136.066 203.348C136.162 203.348 136.276 203.342 136.408 203.33C136.54 203.318 136.654 203.306 136.75 203.294V204.5C136.606 204.536 136.444 204.56 136.264 204.572C136.084 204.596 135.94 204.608 135.832 204.608ZM139.12 204.5V190.874H140.47V196.724L140.164 196.652C140.404 196.028 140.794 195.536 141.334 195.176C141.886 194.816 142.522 194.636 143.242 194.636C143.926 194.636 144.538 194.792 145.078 195.104C145.63 195.416 146.062 195.848 146.374 196.4C146.698 196.94 146.86 197.552 146.86 198.236V204.5H145.51V198.758C145.51 198.17 145.402 197.672 145.186 197.264C144.97 196.856 144.67 196.544 144.286 196.328C143.914 196.1 143.488 195.986 143.008 195.986C142.528 195.986 142.096 196.1 141.712 196.328C141.328 196.544 141.022 196.862 140.794 197.282C140.578 197.69 140.47 198.182 140.47 198.758V204.5H139.12ZM149.439 204.5V194.852H150.789V204.5H149.439ZM149.439 193.07V191.09H150.789V193.07H149.439ZM156.9 204.716C155.976 204.716 155.166 204.482 154.47 204.014C153.774 203.546 153.27 202.91 152.958 202.106L154.092 201.566C154.368 202.154 154.752 202.622 155.244 202.97C155.748 203.318 156.3 203.492 156.9 203.492C157.476 203.492 157.962 203.354 158.358 203.078C158.754 202.79 158.952 202.418 158.952 201.962C158.952 201.626 158.856 201.362 158.664 201.17C158.472 200.966 158.25 200.81 157.998 200.702C157.746 200.594 157.524 200.516 157.332 200.468L155.946 200.072C155.058 199.82 154.416 199.466 154.02 199.01C153.624 198.554 153.426 198.026 153.426 197.426C153.426 196.862 153.57 196.37 153.858 195.95C154.146 195.53 154.536 195.206 155.028 194.978C155.52 194.75 156.066 194.636 156.666 194.636C157.482 194.636 158.22 194.852 158.88 195.284C159.552 195.704 160.026 196.292 160.302 197.048L159.15 197.588C158.91 197.048 158.562 196.628 158.106 196.328C157.662 196.016 157.164 195.86 156.612 195.86C156.072 195.86 155.64 195.998 155.316 196.274C154.992 196.55 154.83 196.898 154.83 197.318C154.83 197.642 154.914 197.9 155.082 198.092C155.25 198.284 155.442 198.428 155.658 198.524C155.886 198.62 156.084 198.692 156.252 198.74L157.854 199.208C158.634 199.436 159.24 199.79 159.672 200.27C160.116 200.75 160.338 201.314 160.338 201.962C160.338 202.49 160.188 202.964 159.888 203.384C159.6 203.804 159.198 204.134 158.682 204.374C158.166 204.602 157.572 204.716 156.9 204.716ZM167.893 204.5L164.581 194.852H166.111L168.847 203.294H168.307L170.881 194.852H172.231L174.805 203.294H174.265L177.019 194.852H178.531L175.219 204.5H173.869L171.367 196.238H171.745L169.243 204.5H167.893ZM184.329 204.716C183.429 204.716 182.613 204.5 181.881 204.068C181.161 203.624 180.591 203.018 180.171 202.25C179.751 201.482 179.541 200.612 179.541 199.64C179.541 198.668 179.745 197.81 180.153 197.066C180.561 196.31 181.113 195.716 181.809 195.284C182.517 194.852 183.309 194.636 184.185 194.636C184.881 194.636 185.499 194.768 186.039 195.032C186.591 195.284 187.059 195.632 187.443 196.076C187.827 196.508 188.121 197 188.325 197.552C188.529 198.092 188.631 198.65 188.631 199.226C188.631 199.346 188.625 199.484 188.613 199.64C188.601 199.784 188.583 199.934 188.559 200.09H180.405V198.83H187.785L187.137 199.37C187.245 198.71 187.167 198.122 186.903 197.606C186.651 197.078 186.285 196.664 185.805 196.364C185.325 196.052 184.785 195.896 184.185 195.896C183.585 195.896 183.027 196.052 182.511 196.364C182.007 196.676 181.611 197.114 181.323 197.678C181.035 198.23 180.921 198.89 180.981 199.658C180.921 200.426 181.041 201.098 181.341 201.674C181.653 202.238 182.073 202.676 182.601 202.988C183.141 203.3 183.717 203.456 184.329 203.456C185.037 203.456 185.631 203.288 186.111 202.952C186.591 202.616 186.981 202.196 187.281 201.692L188.433 202.304C188.241 202.736 187.947 203.138 187.551 203.51C187.155 203.87 186.681 204.164 186.129 204.392C185.589 204.608 184.989 204.716 184.329 204.716ZM195.403 204.716C194.503 204.716 193.687 204.5 192.955 204.068C192.235 203.624 191.665 203.018 191.245 202.25C190.825 201.482 190.615 200.612 190.615 199.64C190.615 198.668 190.819 197.81 191.227 197.066C191.635 196.31 192.187 195.716 192.883 195.284C193.591 194.852 194.383 194.636 195.259 194.636C195.955 194.636 196.573 194.768 197.113 195.032C197.665 195.284 198.133 195.632 198.517 196.076C198.901 196.508 199.195 197 199.399 197.552C199.603 198.092 199.705 198.65 199.705 199.226C199.705 199.346 199.699 199.484 199.687 199.64C199.675 199.784 199.657 199.934 199.633 200.09H191.479V198.83H198.859L198.211 199.37C198.319 198.71 198.241 198.122 197.977 197.606C197.725 197.078 197.359 196.664 196.879 196.364C196.399 196.052 195.859 195.896 195.259 195.896C194.659 195.896 194.101 196.052 193.585 196.364C193.081 196.676 192.685 197.114 192.397 197.678C192.109 198.23 191.995 198.89 192.055 199.658C191.995 200.426 192.115 201.098 192.415 201.674C192.727 202.238 193.147 202.676 193.675 202.988C194.215 203.3 194.791 203.456 195.403 203.456C196.111 203.456 196.705 203.288 197.185 202.952C197.665 202.616 198.055 202.196 198.355 201.692L199.507 202.304C199.315 202.736 199.021 203.138 198.625 203.51C198.229 203.87 197.755 204.164 197.203 204.392C196.663 204.608 196.063 204.716 195.403 204.716ZM202.085 204.5V190.874H203.435V200.414L202.859 200.324L208.277 194.852H210.023L206.243 198.722L210.365 204.5H208.745L204.875 199.154L205.739 199.226L202.985 202.07L203.435 200.954V204.5H202.085Z" fill="#646575"/>
<path d="M1.5 113.5C6.05541 109.637 14.9384 102.942 27.6936 104.487C43.6375 106.418 52.7483 113.5 61.8591 104.487C70.9699 95.4734 77.8031 87.7476 85.775 89.0352C93.747 90.3228 99.4412 97.4049 109.691 96.1172C119.941 94.8296 91.3833 109.228 137.023 89.0352C182.663 68.8424 177.694 71.9203 180.3 78.734C183.511 87.1325 192.827 99.3363 212.188 91.6105C231.548 83.8846 232.004 75.5149 245.214 75.5149C258.425 75.5149 250.908 72.2958 255.464 75.5149C260.019 78.734 262.297 77.4464 267.991 73.5835C273.686 69.7205 281.852 58.1317 288.685 63.2823C295.518 68.4329 301.018 78.734 314.684 78.734C328.35 78.734 350.399 68.4329 365.204 60.707C380.009 52.9812 388.71 67.789 392.126 71.652C395.543 75.5149 420.597 67.7891 434.264 58.1317C445.197 50.4059 456.281 61.7801 460.457 68.4329C475.262 65.643 507.833 58.3893 519.677 51.6935C531.521 44.9978 538.279 51.0497 540.177 54.9126C550.806 50.4059 588.806 18.2398 594.5 1.50043" stroke="url(#paint2_linear_579_5044)" stroke-width="3" stroke-linecap="round" stroke-linejoin="round"/>
<defs>
<linearGradient id="paint0_linear_579_5044" x1="291.285" y1="30.3958" x2="291.285" y2="242.5" gradientUnits="userSpaceOnUse">
<stop stop-color="#D80082" stop-opacity="0.18"/>
<stop offset="1" stop-color="white" stop-opacity="0"/>
</linearGradient>
<linearGradient id="paint1_linear_579_5044" x1="22.5" y1="197.5" x2="67.5" y2="197.5" gradientUnits="userSpaceOnUse">
<stop stop-color="#005DFF"/>
<stop offset="1" stop-color="#5F5CA4"/>
</linearGradient>
<linearGradient id="paint2_linear_579_5044" x1="595.334" y1="0.881706" x2="22.2293" y2="194.518" gradientUnits="userSpaceOnUse">
<stop stop-color="#4E028A"/>
<stop offset="1" stop-color="#C70024"/>
</linearGradient>
</defs>
</svg>
