<svg width="32" height="22" viewBox="0 0 32 22" fill="none" xmlns="http://www.w3.org/2000/svg">
<g clip-path="url(#clip0_579_7450)">
<path d="M32 16.5C32 19.5375 30.3135 22 27 22H5C1.6865 22 0 19.5375 0 16.5V5.5C0 2.4625 1.6865 0 5 0H27C30.3135 0 32 2.4625 32 5.5V16.5Z" fill="#137A08"/>
<path fill-rule="evenodd" clip-rule="evenodd" d="M15.2957 10.6602C15.2602 10.1637 15.3397 10.0392 15.9082 9.70968C15.7467 9.56268 15.5517 9.52868 15.3517 9.51318C15.1122 9.49518 14.8732 9.48718 14.6362 9.46468C14.5142 9.45418 14.4912 9.40618 14.5142 9.28568C14.5782 8.95568 14.7492 8.72668 15.0852 8.62218C15.4122 8.51968 15.7317 8.39268 16.0637 8.27218C16.0523 8.24385 16.0402 8.21535 16.0272 8.18668C15.9898 8.11598 15.9692 8.0376 15.967 7.95764C15.9649 7.87769 15.9812 7.79831 16.0147 7.72568C16.0412 7.66868 16.0707 7.61168 16.1037 7.55918C16.3087 7.23168 16.5077 7.17118 16.8562 7.33518C16.9662 7.38718 17.0732 7.44968 17.1687 7.52418C17.4457 7.73968 17.4707 8.04368 17.2232 8.29518C17.1197 8.39768 16.9797 8.46818 16.8552 8.55268C16.7837 8.59968 16.6687 8.58668 16.6437 8.70268C16.6422 8.71168 16.6002 8.71268 16.5772 8.71668C16.5147 8.72018 16.4462 8.70718 16.3902 8.72918C16.1227 8.82818 15.8592 8.93518 15.5957 9.04318C15.5547 9.05818 15.5192 9.08568 15.4797 9.10718L15.4867 9.14018C15.7227 9.14018 15.9617 9.14368 16.1972 9.13868C16.7257 9.12518 17.2552 9.10818 17.7837 9.09168C17.9557 9.08768 17.9762 9.11968 17.9247 9.28418C17.9125 9.31942 17.9012 9.35493 17.8907 9.39068C17.8397 9.57618 17.7137 9.65918 17.5272 9.68768C16.9612 9.76868 16.4202 9.94868 15.8887 10.1597C15.7667 10.2097 15.6407 10.2772 15.6347 10.4257C15.6302 10.5712 15.7372 10.6627 15.8542 10.7267C15.9727 10.7902 16.0987 10.8362 16.2222 10.8847C16.3632 10.9377 16.3887 10.9792 16.3522 11.1212C16.2722 11.4182 16.2642 11.4357 15.9452 11.4017C15.3072 11.3327 14.7507 11.1012 14.3747 10.5457C14.2987 10.4327 14.2412 10.3057 14.1657 10.1692C14.1352 10.2082 14.1052 10.2437 14.0752 10.2812C13.8352 10.6107 13.5752 10.9227 13.2442 11.1697C13.0057 11.3492 12.7532 11.4897 12.4382 11.4827C12.0667 11.4737 11.8347 11.2847 11.7632 10.9167C11.7538 10.871 11.7443 10.8267 11.7347 10.7837C11.3877 10.9122 11.0467 11.0397 10.7062 11.1607C10.5395 11.2183 10.3712 11.2702 10.2012 11.3162C10.1417 11.3327 10.0767 11.3267 10.0142 11.3302C10.0065 11.3155 10 11.3002 9.99467 11.2842C10.0417 11.2512 10.0867 11.2137 10.1362 11.1852C10.6412 10.8917 11.1412 10.5977 11.6462 10.3062C11.7247 10.2607 11.7607 10.1967 11.7872 10.1127C11.8652 9.88718 11.9522 9.66568 12.0387 9.44268C12.0547 9.40068 12.0842 9.36668 12.1242 9.30168C12.2212 9.51468 12.1287 9.71368 12.1767 9.91218C12.2062 9.89668 12.2352 9.88218 12.2572 9.86318C12.4427 9.71018 12.6307 9.56218 12.8072 9.40068C13.0532 9.17418 13.0897 8.98468 12.9577 8.67868C12.8827 8.50968 12.7987 8.34518 12.7142 8.18118C12.6977 8.14795 12.6711 8.12081 12.6382 8.10368C12.5377 8.04518 12.5072 7.96118 12.5447 7.85818C12.5883 7.74485 12.6385 7.63501 12.6952 7.52868C12.7387 7.44818 12.8142 7.43668 12.8722 7.50418C13.0015 7.65251 13.1228 7.80618 13.2362 7.96518C13.3032 8.05918 13.2662 8.13218 13.1652 8.16318C13.2162 8.36618 13.2737 8.56418 13.3142 8.76468C13.3917 9.16468 13.2687 9.50818 13.0012 9.80768C12.7517 10.0882 12.4762 10.3377 12.1507 10.5307C12.1107 10.5537 12.0787 10.6212 12.0807 10.6697C12.0817 10.7792 12.1277 10.8907 12.2417 10.9112C12.3747 10.9352 12.5207 10.9472 12.6482 10.9167C12.9532 10.8472 13.1972 10.6562 13.3987 10.4287C13.6002 10.1967 13.7697 9.93468 13.9522 9.68668C14.0067 9.61168 14.0087 9.53718 13.9817 9.44818C13.8132 8.92718 13.6517 8.40168 13.4852 7.88118C13.4047 7.62968 13.4877 7.29468 13.6787 7.14868C13.7112 7.20268 13.7427 7.25268 13.7702 7.30718C14.1132 8.01068 14.3182 8.75368 14.4197 9.52868C14.4557 9.81668 14.5102 10.1037 14.7157 10.3322C14.8697 10.5047 15.0702 10.6022 15.2957 10.6602ZM16.8652 8.05568C16.8662 8.04335 16.8665 8.03135 16.8662 8.01968C16.7212 7.95468 16.6062 7.82318 16.4012 7.82318C16.4162 7.94068 16.4292 8.04318 16.4422 8.16518L16.8652 8.05568ZM21.2047 17.2792C20.9407 17.2792 20.7067 17.2752 20.4712 17.2817C19.9882 17.2922 19.5072 17.3152 19.0217 17.3187C16.3027 17.3392 13.5812 17.3572 10.8607 17.3672C10.3632 17.3682 9.86317 17.3342 9.37867 17.1962C9.15117 17.1312 8.93817 17.0327 8.76967 16.8562C8.72967 16.8142 8.69567 16.7612 8.63867 16.6872H8.85617C11.8462 16.7062 14.8362 16.7307 17.8252 16.7442C18.8962 16.7507 19.9652 16.7377 21.0362 16.7307C21.0792 16.7307 21.1557 16.7167 21.1577 16.7022C21.1657 16.6477 21.1677 16.5722 21.1352 16.5382C20.9877 16.3747 21.0712 16.2412 21.1862 16.1042C21.2327 16.0492 21.2817 16.0407 21.3332 16.1012C21.4742 16.2707 21.5162 16.3587 21.3902 16.5202C21.3547 16.5662 21.3572 16.6422 21.3382 16.7167C21.3937 16.7212 21.4267 16.7277 21.4577 16.7267C21.9677 16.7177 22.4732 16.7067 22.9822 16.6962C23.0788 16.6962 23.1753 16.7022 23.2717 16.7142C23.5017 16.7407 23.6237 16.8527 23.6737 17.0817C23.7167 17.2732 23.7167 17.4667 23.6427 17.6522C23.5437 17.9032 23.3152 17.9542 23.1117 17.7757C23.0763 17.7495 23.0341 17.7341 22.9902 17.7312C22.8602 17.7272 22.7297 17.7312 22.5997 17.7322C22.5032 17.7337 22.4072 17.7187 22.3367 17.8277C22.2907 17.8982 22.2067 17.8687 22.1342 17.8227C22.0819 17.7876 22.0221 17.7653 21.9597 17.7577C21.8552 17.7487 21.7492 17.7627 21.6452 17.7557C21.5227 17.7497 21.4237 17.7702 21.3687 17.8977C21.3377 17.9662 21.2817 17.9637 21.2262 17.9112C21.0757 17.7757 21.0632 17.6657 21.1637 17.4862C21.1932 17.4327 21.1892 17.3622 21.2047 17.2792ZM22.9917 17.5542L23.0222 17.2317C22.9972 17.2292 22.9767 17.2212 22.9577 17.2212C22.4677 17.2337 21.9782 17.2442 21.4872 17.2587C21.3727 17.2622 21.3292 17.3417 21.3857 17.4452C21.4352 17.5332 21.4942 17.6052 21.6227 17.5822C21.7372 17.5637 21.8567 17.5782 21.9727 17.5672C22.0264 17.5613 22.0767 17.5381 22.1162 17.5012C22.1952 17.4262 22.2697 17.4282 22.3507 17.4887C22.3837 17.5152 22.4182 17.5497 22.4522 17.5512C22.6307 17.5592 22.8112 17.5542 22.9917 17.5542Z" fill="white"/>
<path fill-rule="evenodd" clip-rule="evenodd" d="M9.57023 8.78969C9.43523 8.82969 9.30073 8.86969 9.16623 8.91419C9.02773 8.95719 8.89873 8.92469 8.77823 8.86269C8.73923 8.84519 8.69573 8.80019 8.69023 8.76469C8.64423 8.42769 8.62523 8.09519 8.87073 7.80919C9.04173 7.60769 9.21373 7.57319 9.40823 7.75169C9.55723 7.88569 9.67923 8.04869 9.82423 8.21119C9.87023 8.18469 9.94273 8.15119 10.0062 8.10569C10.0204 8.09298 10.0318 8.07751 10.0398 8.06023C10.0478 8.04295 10.0522 8.02422 10.0527 8.00519C10.0167 7.58019 9.97623 7.15219 9.93523 6.72619C9.8889 6.24719 9.84157 5.76769 9.79323 5.28769C9.79048 5.25467 9.78445 5.22201 9.77523 5.19019C9.71273 4.99869 9.82123 4.75169 10.0137 4.67419C10.0377 4.66369 10.1017 4.69219 10.1152 4.71869C10.1612 4.81319 10.1927 4.91369 10.2287 5.01219C10.2954 5.19319 10.3612 5.37436 10.4262 5.55569C10.4447 5.60205 10.4562 5.65093 10.4602 5.70069C10.4742 5.87419 10.4057 5.92869 10.2397 5.88369C10.2837 6.53769 10.3307 7.19019 10.3792 7.86769C10.4542 7.80669 10.5067 7.75469 10.5662 7.71369C10.6057 7.68669 10.6542 7.67419 10.6987 7.65469C10.7182 7.70369 10.7487 7.74919 10.7532 7.79769C10.7652 7.88219 10.7432 7.97219 10.7687 8.04869C10.7967 8.12869 10.8472 8.23419 10.9137 8.25969C10.9787 8.28419 11.1102 8.24619 11.1542 8.18969C11.2627 8.05619 11.3402 7.89719 11.4257 7.74519C11.4472 7.70669 11.4607 7.66469 11.4777 7.62469H11.5167C11.5332 7.70819 11.5437 7.79669 11.5697 7.87769C11.6007 7.97169 11.6312 8.07419 11.6882 8.14869C11.7862 8.27619 11.9227 8.24569 11.9567 8.09419C11.9772 7.99919 11.9682 7.89419 11.9532 7.79919C11.9337 7.69219 11.9762 7.58869 12.0807 7.56919C12.1097 7.56469 12.1682 7.60019 12.1767 7.62819C12.2472 7.89119 12.2417 8.15569 12.1322 8.40519C12.0442 8.60119 11.6957 8.61369 11.5172 8.43919C11.4847 8.40769 11.4552 8.36869 11.4132 8.32319C11.2772 8.46319 11.1367 8.58969 10.9307 8.60869C10.7257 8.62719 10.5597 8.57319 10.4467 8.36819C10.4327 8.41119 10.4187 8.43269 10.4187 8.45469C10.4272 8.67369 10.4387 8.89169 10.4467 9.10969C10.4622 9.50169 10.4402 9.88869 10.2812 10.2572C10.1523 10.5576 9.92065 10.8022 9.62773 10.9472C9.14823 11.1912 8.64223 11.3497 8.09823 11.3522C8.00323 11.3522 7.90473 11.3357 7.81223 11.3167C7.45023 11.2417 7.26873 10.9937 7.17923 10.6567C7.03873 10.1302 7.07173 9.61219 7.24823 9.09869C7.26323 9.05519 7.29173 9.01469 7.31323 8.97369C7.3255 8.97799 7.33827 8.98068 7.35123 8.98169C7.35123 9.12019 7.36673 9.26069 7.34973 9.39469C7.30523 9.72269 7.31873 10.0397 7.43423 10.3492C7.53973 10.6362 7.75473 10.7972 8.06023 10.8152C8.65473 10.8492 9.16273 10.6227 9.63523 10.2842C9.96223 10.0497 10.0922 9.72769 10.0922 9.34019C10.0907 9.08819 10.0922 8.83519 10.0922 8.56619C9.99773 8.60669 9.88823 8.60969 9.90373 8.74419C9.98373 9.48319 9.56573 9.91019 8.97323 10.2222C8.81323 10.3077 8.63673 10.3792 8.45873 10.4147C8.00323 10.5062 7.59423 10.1982 7.52423 9.73769C7.47473 9.40819 7.52973 9.08719 7.61073 8.76869C7.62473 8.71769 7.66423 8.67369 7.69123 8.62469C7.70177 8.62962 7.71284 8.63332 7.72423 8.63569C7.72423 8.69969 7.73023 8.76319 7.72423 8.82569C7.70023 9.07919 7.69873 9.33069 7.80523 9.56819C7.94673 9.88869 8.17623 9.99069 8.50823 9.88119C8.92073 9.74519 9.23873 9.47469 9.50623 9.14469C9.57523 9.05819 9.58023 8.92519 9.61473 8.81269C9.60223 8.80419 9.58523 8.79669 9.57023 8.78969ZM9.42023 8.37669C9.36023 8.30369 9.32673 8.23919 9.27523 8.20469C9.21773 8.16569 9.14123 8.15269 9.07523 8.12869C9.05873 8.19769 9.02323 8.26969 9.03423 8.33519C9.03873 8.37569 9.11173 8.43219 9.15623 8.43569C9.23573 8.43819 9.31523 8.40269 9.42023 8.37669ZM23.7607 7.30019C23.7742 7.58469 23.7907 7.86769 23.8037 8.15269C23.8267 8.62719 23.8622 9.10019 23.8607 9.57369C23.8578 9.76623 23.8104 9.95549 23.7222 10.1267C23.5067 10.5452 23.1277 10.5997 22.7222 10.3477C22.5972 10.2712 22.5017 10.1442 22.4057 10.0277C22.3502 9.96369 22.3092 9.94669 22.2597 10.0142C22.187 10.1109 22.1202 10.2119 22.0597 10.3167C21.9047 10.5957 21.7577 10.8792 21.6042 11.1587C21.573 11.2179 21.5301 11.2703 21.4782 11.3127C21.4322 11.3467 21.3612 11.3752 21.3082 11.3682C21.0417 11.3252 20.6592 10.8922 20.6632 10.6197C20.6647 10.3872 20.6947 10.1527 20.7297 9.92119C20.7512 9.77069 20.7997 9.62569 20.8367 9.47769L20.8902 9.48119C20.9002 9.55419 20.9202 9.62719 20.9202 9.70069C20.9167 10.0197 20.9407 10.3282 21.0707 10.6242C21.0872 10.6582 21.1017 10.6942 21.1222 10.7257C21.2197 10.8797 21.3447 10.8852 21.4482 10.7337C21.5032 10.6507 21.5442 10.5582 21.5942 10.4702C21.7777 10.1457 21.9547 9.81519 22.1477 9.49769C22.2717 9.29119 22.3932 9.29119 22.5562 9.47469C22.6622 9.59669 22.7562 9.73519 22.8737 9.84469C23.0507 10.0087 23.3002 9.94819 23.3832 9.72169C23.4287 9.58919 23.4617 9.44269 23.4562 9.30369C23.4327 8.63069 23.3972 7.95419 23.3627 7.28119C23.3537 7.13419 23.3317 6.98619 23.3332 6.84019C23.3374 6.71025 23.2918 6.58363 23.2057 6.48619C22.9577 6.17969 22.7192 5.86469 22.4712 5.55819C22.3447 5.40419 22.2662 5.24769 22.2952 5.04269C22.3107 4.94769 22.2927 4.84769 22.3002 4.75219C22.3042 4.71069 22.3217 4.64969 22.3512 4.63519C22.3812 4.62169 22.4447 4.64319 22.4722 4.67019C22.6656 4.85086 22.8549 5.03519 23.0402 5.22319C23.1202 5.30319 23.1052 5.35219 22.9872 5.42819C23.0602 5.53669 23.1347 5.64369 23.2062 5.74969L23.2447 5.74269C23.2217 5.56819 23.2267 5.38369 23.1697 5.22469C23.0802 4.98019 23.1732 4.79919 23.3072 4.62119C23.3772 4.52769 23.4327 4.58919 23.4622 4.66419C23.5372 4.85569 23.6077 5.04619 23.6762 5.24119C23.7187 5.35969 23.7527 5.48269 23.7962 5.62419C23.7257 5.61969 23.6887 5.61519 23.6547 5.61219C23.6537 5.62119 23.6482 5.62719 23.6482 5.63519C23.6637 5.88669 23.6777 6.14019 23.6957 6.39019C23.6982 6.41869 23.7007 6.45019 23.7172 6.47319C23.8892 6.71769 24.0672 6.96219 24.2632 7.19719C24.2357 7.01519 24.2017 6.83069 24.1832 6.64719C24.1302 6.15069 24.0982 5.65169 24.0287 5.15819C23.9997 4.94719 24.0442 4.78019 24.1662 4.62119C24.2617 4.49769 24.3412 4.50019 24.3877 4.64719C24.4832 4.94969 24.5667 5.25819 24.6452 5.56769C24.6742 5.67969 24.6247 5.72269 24.4972 5.72769C24.5249 6.12636 24.5542 6.52352 24.5852 6.91919C24.6057 7.17219 24.6247 7.42419 24.6537 7.67319C24.6632 7.74319 24.6862 7.82019 24.7257 7.88069C24.9627 8.24169 25.2097 8.59819 25.4447 8.95919C25.5992 9.19719 25.6807 9.45869 25.6602 9.74569C25.6577 9.78519 25.6497 9.82319 25.6422 9.90119C25.3317 9.44569 25.0437 9.02519 24.7567 8.60269C24.7227 9.05419 24.8337 9.50569 24.6152 9.92169C24.6017 9.92169 24.5857 9.92169 24.5722 9.92269C24.5642 9.86069 24.5462 9.79969 24.5492 9.73569C24.5692 9.24069 24.5312 8.74669 24.4412 8.26019C24.4342 8.22719 24.4297 8.19019 24.4097 8.16519C24.2062 7.87319 23.9987 7.58469 23.7922 7.29419C23.7816 7.29586 23.7707 7.29786 23.7607 7.30019Z" fill="white"/>
<path fill-rule="evenodd" clip-rule="evenodd" d="M8.35816 4.99857C8.58016 5.16807 8.68166 5.36857 8.65666 5.61357C8.62366 5.91907 8.69516 6.20557 8.77466 6.49257C8.83316 6.69957 8.95816 6.78507 9.15966 6.79107C9.32516 6.79357 9.39116 6.72757 9.35616 6.56757C9.29466 6.29907 9.21966 6.03307 9.15016 5.76707C9.13659 5.71355 9.11626 5.66196 9.08966 5.61357C8.97916 5.41207 9.03666 5.24957 9.19316 5.10107C9.25966 5.03707 9.31766 5.02907 9.37316 5.09657C9.45866 5.20007 9.54866 5.30257 9.61416 5.41907C9.69666 5.55907 9.67116 5.62007 9.52466 5.70307C9.57216 5.90857 9.63816 6.11407 9.66066 6.32407C9.68366 6.51507 9.68766 6.71907 9.64966 6.90707C9.59266 7.18207 9.21216 7.38757 8.94566 7.32357C8.78916 7.28407 8.69516 7.17957 8.63516 7.03707C8.60966 6.97657 8.58916 6.91257 8.55866 6.82957C8.52316 6.87807 8.49516 6.90707 8.47316 6.94057C8.42866 7.00557 8.40066 7.08957 8.34216 7.13757C8.19166 7.25907 8.21466 7.41107 8.22766 7.57057C8.25916 8.00657 8.29116 8.44157 8.30916 8.87757C8.31666 9.05407 8.27216 9.22357 8.11816 9.35807C8.08916 9.04807 8.06116 8.74007 8.02866 8.43057C7.99616 8.11807 7.95916 7.80507 7.92216 7.48557C7.90366 7.48157 7.88666 7.47357 7.86616 7.47207C7.53266 7.43857 7.33416 7.26757 7.24566 6.94157C7.17466 6.68107 7.18516 6.41757 7.21166 6.15557C7.22216 6.04557 7.22616 5.93657 7.23466 5.82557C7.21416 5.82257 7.19716 5.81757 7.17766 5.81507C7.12866 5.99207 7.07716 6.16907 7.03416 6.34807C6.97016 6.60057 6.91966 6.85407 6.85566 7.10507C6.83578 7.16436 6.80377 7.21885 6.76166 7.26507C6.63416 7.42957 6.47666 7.42657 6.38216 7.24307C6.29808 7.07931 6.23235 6.90677 6.18616 6.72857C6.07557 6.34782 6.06849 5.94447 6.16566 5.56007C6.17666 5.51207 6.20416 5.46607 6.22266 5.41907C6.23416 5.42007 6.24716 5.42307 6.26066 5.42307C6.26566 5.47707 6.27216 5.53407 6.27766 5.58857C6.31016 5.89507 6.33466 6.20457 6.38266 6.51157C6.39816 6.61857 6.45666 6.72457 6.51716 6.81707C6.57966 6.91657 6.66766 6.90907 6.70316 6.80057C6.75616 6.62857 6.79816 6.45207 6.82016 6.27557C6.85616 5.94857 6.94316 5.64207 7.12266 5.36557C7.17366 5.29057 7.23616 5.21657 7.30966 5.16757C7.43616 5.08457 7.56816 5.15207 7.56316 5.30107C7.55709 5.45532 7.5348 5.6085 7.49666 5.75807C7.41316 6.07057 7.42116 6.37257 7.56816 6.66357C7.64216 6.80107 7.71866 6.85007 7.87666 6.86257C7.86716 6.72807 7.86516 6.59507 7.84816 6.46357C7.80366 6.07857 7.75466 5.69157 7.70316 5.30657C7.6869 5.1968 7.66335 5.08822 7.63266 4.98157C7.60866 4.87907 7.68616 4.65857 7.77966 4.61507C7.80716 4.60157 7.87716 4.62207 7.89116 4.64757C7.98666 4.83207 8.08166 5.01907 8.15866 5.21257C8.17663 5.25595 8.17955 5.30409 8.16695 5.34931C8.15435 5.39454 8.12696 5.43424 8.08916 5.46207C8.06716 5.47807 8.05416 5.51757 8.05566 5.54757C8.09266 5.95607 8.13366 6.36607 8.17266 6.77307C8.17366 6.78107 8.18166 6.78607 8.18766 6.79207C8.35466 6.68507 8.45116 6.46307 8.41616 6.27857C8.36566 6.02757 8.31266 5.77857 8.26916 5.52557C8.23766 5.35157 8.28316 5.18757 8.35816 4.99857ZM12.7757 5.09507C12.7717 5.13607 12.7697 5.17507 12.7622 5.21307C12.7067 5.51307 12.6952 5.81557 12.7587 6.11507C12.7857 6.24057 12.8492 6.36557 12.9167 6.47807C12.9477 6.52907 13.0287 6.58107 13.0842 6.57807C13.1292 6.57557 13.1892 6.50057 13.2122 6.44457C13.3407 6.15957 13.4522 5.86507 13.5887 5.58107C13.6732 5.40407 13.7802 5.23507 13.8927 5.07507C13.9337 5.01857 14.0382 4.94407 14.0842 4.96207C14.1847 4.99757 14.2287 5.10457 14.2142 5.22257C14.1967 5.35507 14.1652 5.48757 14.1597 5.62007C14.1492 5.89257 14.1352 6.16607 14.1492 6.43807C14.1627 6.73057 14.3837 6.85407 14.6572 6.73657C15.0717 6.55957 15.1767 6.30057 15.1487 5.88357C15.1282 5.56557 15.0492 5.24757 14.9907 4.93157C14.9557 4.72557 15.0872 4.59157 15.1792 4.41357C15.3297 4.58907 15.3717 4.77807 15.3972 4.96557C15.4422 5.27657 15.4597 5.59107 15.5072 5.90307C15.5412 6.13207 15.6192 6.35057 15.7732 6.53307C15.8407 6.61357 15.9192 6.67857 16.0332 6.64157C16.1507 6.60607 16.1872 6.50657 16.1972 6.39607C16.2227 6.11207 16.1632 5.83707 16.0792 5.56857C16.0266 5.40077 15.9695 5.23438 15.9082 5.06957C15.8742 4.98007 15.8827 4.91057 15.9477 4.84057C15.9962 4.78857 16.0252 4.72057 16.0622 4.66007C16.1272 4.54607 16.1682 4.53607 16.2687 4.61357C16.4652 4.76807 16.5827 4.97407 16.6467 5.20957C16.6572 5.24857 16.6317 5.30107 16.6222 5.34507C16.5792 5.33657 16.5347 5.33307 16.4962 5.31607C16.4582 5.30057 16.4262 5.27157 16.3692 5.23307C16.4172 5.41907 16.4607 5.57607 16.4962 5.73807C16.5502 5.99657 16.5882 6.25907 16.5117 6.52107C16.5002 6.56557 16.4902 6.61057 16.4747 6.65507C16.3042 7.11207 15.9357 7.20507 15.5682 6.88407C15.4897 6.81507 15.4087 6.75007 15.3412 6.69407C15.2122 6.81507 15.0642 6.96057 14.9077 7.09407C14.8507 7.14557 14.7722 7.17557 14.6977 7.20507C14.3617 7.33907 14.0647 7.20807 13.9352 6.87207C13.8282 6.60157 13.8472 6.31907 13.8652 6.03757C13.8687 5.97357 13.8652 5.90757 13.8652 5.84257L13.8232 5.83207C13.7937 5.89107 13.7592 5.94907 13.7367 6.01257C13.6422 6.26357 13.5582 6.51857 13.4612 6.76907C13.3227 7.13007 13.1112 7.15607 12.8677 6.85607C12.4437 6.32707 12.4627 5.75357 12.6942 5.15957C12.7047 5.13457 12.7252 5.11107 12.7402 5.08807C12.7513 5.09323 12.7634 5.09629 12.7757 5.09707M17.9377 6.01507C17.9142 5.77807 17.9287 5.52607 17.8527 5.30907C17.8222 5.22768 17.8086 5.14093 17.8127 5.0541C17.8168 4.96728 17.8386 4.88221 17.8767 4.80407C17.9017 4.75457 17.9572 4.68957 18.0017 4.68657C18.0462 4.68357 18.1162 4.74057 18.1367 4.78807C18.2632 5.09007 18.3852 5.39157 18.4927 5.70107C18.5462 5.85757 18.4962 5.91207 18.3377 5.89907C18.3502 6.18057 18.3607 6.46057 18.3802 6.73957C18.3812 6.77757 18.4152 6.81457 18.4357 6.85207C18.7977 7.46557 19.1692 8.07457 19.5182 8.69557C19.6917 9.00107 19.8262 9.33007 19.8762 9.68507C19.8867 9.75607 19.8847 9.83107 19.8872 9.90457C19.874 9.91202 19.8605 9.91886 19.8467 9.92507C19.8157 9.88407 19.7777 9.84657 19.7572 9.80057C19.4247 9.01357 18.9682 8.29557 18.5137 7.57357C18.4907 7.53957 18.4672 7.50757 18.4227 7.44507C18.4457 7.72407 18.4672 7.96957 18.4867 8.21257C18.5312 8.75107 18.6367 9.28708 18.5722 9.82907C18.5402 10.0856 18.4612 10.3351 18.3947 10.5846C18.3812 10.6446 18.3342 10.6966 18.3007 10.7506C18.2827 10.7461 18.2627 10.7436 18.2462 10.7396C18.2462 10.6751 18.2337 10.6076 18.2487 10.5451C18.3732 10.0616 18.3287 9.57107 18.2727 9.08357C18.2002 8.43757 18.1112 7.79407 18.0392 7.14857C18.0107 6.89857 17.9547 6.67107 17.7902 6.46857C17.5487 6.16557 17.3372 5.84357 17.1042 5.53407C17.0352 5.44357 16.9377 5.37457 16.8632 5.28807C16.8202 5.24107 16.7767 5.17857 16.7692 5.12057C16.7537 4.96592 16.7485 4.81041 16.7537 4.65507C16.7537 4.61157 16.7787 4.54857 16.8102 4.53057C16.8432 4.51557 16.9117 4.53157 16.9437 4.56007C17.1903 4.78207 17.4322 5.00874 17.6692 5.24007C17.7102 5.27907 17.7157 5.35557 17.7377 5.41707C17.6722 5.43057 17.6087 5.44657 17.5337 5.46357C17.6557 5.64207 17.7832 5.83357 17.9147 6.02457C17.9213 6.02024 17.929 6.01657 17.9377 6.01357M25.9427 5.56507C25.9682 5.87957 25.9942 6.20507 26.0217 6.52857C26.0762 7.16957 26.1342 7.80757 26.1897 8.44757C26.2348 8.89469 26.217 9.34593 26.1367 9.78807C26.0207 10.3996 25.7572 10.9126 25.1437 11.1611C24.9642 11.2341 24.7682 11.2721 24.5772 11.3211C24.5247 11.3326 24.4662 11.3221 24.4102 11.3221C24.4052 11.3071 24.3977 11.2946 24.3932 11.2801C24.4487 11.2281 24.4992 11.1716 24.5582 11.1261C24.7587 10.9721 24.9667 10.8321 25.1627 10.6741C25.6322 10.2911 25.8542 9.78907 25.8222 9.19207C25.7884 8.57626 25.7409 7.96127 25.6797 7.34757C25.6197 6.72257 25.5437 6.09857 25.4707 5.47457C25.4517 5.31207 25.4247 5.15107 25.4007 4.98957C25.3812 4.87257 25.5282 4.57557 25.6352 4.54207C25.6607 4.53507 25.7232 4.56757 25.7367 4.59807C25.8667 4.87057 25.9897 5.14457 26.1112 5.42107C26.1262 5.46357 26.1162 5.51507 26.1187 5.56507H25.9427Z" fill="white"/>
<path fill-rule="evenodd" clip-rule="evenodd" d="M18.4501 11.4241C18.5176 11.3906 18.5821 11.3446 18.6516 11.3256C19.1171 11.1986 19.4441 10.8856 19.7596 10.5476C20.0476 10.2396 20.1276 9.87509 20.0956 9.46659C20.0581 8.96159 20.0426 8.45309 20.0006 7.94809C19.9486 7.32009 19.8786 6.69659 19.8121 6.07109C19.7888 5.85052 19.7596 5.63061 19.7246 5.41159C19.7158 5.34522 19.7004 5.27989 19.6786 5.21659C19.6416 5.09359 19.6581 4.98759 19.7516 4.89359C19.8406 4.81109 19.9226 4.72309 20.0216 4.62109C20.0556 4.67659 20.0951 4.71759 20.1101 4.76359C20.1886 5.02709 20.2666 5.29359 20.3371 5.56059C20.3746 5.69909 20.3406 5.72659 20.1766 5.69509C20.1766 5.83059 20.1671 5.96359 20.1776 6.09459C20.2526 7.16859 20.4171 8.23709 20.4041 9.31809C20.3986 9.72209 20.3936 10.1271 20.2076 10.4986C20.0396 10.8331 19.7866 11.1031 19.4871 11.3271C19.4064 11.3862 19.3131 11.4259 19.2146 11.4431C19.0116 11.4746 18.8066 11.4866 18.6021 11.5011C18.5551 11.5036 18.5066 11.4821 18.4591 11.4731C18.4569 11.4566 18.4539 11.4403 18.4501 11.4241ZM21.1151 5.80059C21.1386 6.05209 21.1561 6.28109 21.1831 6.51159C21.2531 7.13626 21.3261 7.76026 21.4021 8.38359C21.4386 8.68609 21.4931 8.98809 21.5351 9.29059C21.5871 9.67459 21.5091 10.0341 21.3311 10.3716C21.2996 10.4316 21.2406 10.4751 21.1941 10.5256C21.1796 10.5231 21.1656 10.5181 21.1521 10.5161C21.1396 10.4621 21.1111 10.4046 21.1226 10.3591C21.2306 9.91459 21.1586 9.47509 21.0996 9.03409C21.0151 8.42909 20.9456 7.82059 20.8601 7.21609C20.7701 6.58959 20.6791 5.96309 20.5746 5.33909C20.5301 5.06709 20.5776 4.83409 20.7476 4.62059C20.8421 4.50209 20.9231 4.50859 20.9811 4.64509C21.0371 4.77759 21.0726 4.91309 21.1276 5.04559C21.2041 5.23209 21.2946 5.41109 21.3706 5.59759C21.3991 5.66659 21.4016 5.74559 21.4151 5.81759C21.3441 5.82109 21.2716 5.82559 21.1996 5.82559C21.1796 5.82509 21.1611 5.81509 21.1151 5.80059ZM10.7916 6.41859C10.8446 6.37409 10.8996 6.32509 10.9541 6.28109C11.1871 6.09009 11.4236 5.90309 11.6531 5.70609C11.7421 5.62809 11.8106 5.52509 11.8891 5.43759C11.7016 5.15809 11.7206 4.85909 11.9311 4.67959C12.0216 4.60259 12.1216 4.55909 12.2426 4.61409C12.3581 4.67059 12.3916 4.77309 12.3786 4.88859C12.3676 4.99559 12.3341 5.10159 12.3151 5.20509C12.3016 5.28009 12.3056 5.35859 12.2856 5.43059C12.2665 5.48003 12.2364 5.52448 12.1976 5.56059C12.1526 5.60509 12.0841 5.63109 12.0461 5.67909C11.7541 6.04959 11.3676 6.28259 10.9331 6.44659C10.8976 6.45959 10.8556 6.45809 10.8156 6.46309C10.8082 6.44876 10.8002 6.43393 10.7916 6.41859ZM12.1191 4.92359C12.0976 4.92009 12.0761 4.91309 12.0556 4.91009C12.0421 4.98009 12.0261 5.05109 12.0136 5.12059L12.0656 5.13009C12.0851 5.06009 12.1001 4.99259 12.1191 4.92359ZM6.58958 9.48709C6.63308 9.66409 6.63208 9.81259 6.59508 9.97209C6.55058 10.1671 6.53008 10.3671 6.50308 10.5646C6.49908 10.5956 6.50308 10.6346 6.51958 10.6611C6.55258 10.7146 6.58608 10.7846 6.63558 10.8061C6.66508 10.8181 6.73108 10.7481 6.77408 10.7111C6.79958 10.6886 6.81208 10.6476 6.84058 10.6356C6.86308 10.6271 6.91658 10.6376 6.92358 10.6561C6.99108 10.8041 6.86608 11.1226 6.71658 11.1936C6.55708 11.2696 6.38608 11.2041 6.34758 11.0146C6.30658 10.8246 6.27658 10.6171 6.30658 10.4286C6.35458 10.1341 6.45358 9.84809 6.53358 9.55809C6.54008 9.53659 6.56308 9.52109 6.58958 9.48709ZM22.3686 7.40809L22.0466 6.84209C21.8666 6.93109 21.8246 6.90609 21.8336 6.72409C21.8366 6.67809 21.8211 6.62859 21.8321 6.58709C21.8461 6.54059 21.8731 6.47709 21.9106 6.46209C21.9466 6.45059 22.0221 6.48109 22.0451 6.51509C22.1171 6.62709 22.1726 6.74909 22.2346 6.86809C22.2606 6.91759 22.2846 6.97209 22.3356 7.01959C22.3356 6.92759 22.3341 6.83909 22.3356 6.74659C22.3391 6.63209 22.3276 6.51109 22.3581 6.40259C22.3786 6.33159 22.4561 6.27159 22.5171 6.22109C22.5371 6.20309 22.6111 6.21209 22.6236 6.23159C22.6701 6.30109 22.7126 6.37709 22.7311 6.45609C22.7476 6.52109 22.7136 6.57959 22.6316 6.53659C22.5126 6.47659 22.4741 6.53909 22.4706 6.63809C22.4631 6.82409 22.4666 7.00709 22.4591 7.19209C22.4581 7.25959 22.4351 7.32759 22.4211 7.39809C22.4031 7.40243 22.3856 7.40576 22.3686 7.40809ZM6.26758 8.78659C6.44458 8.50409 6.68008 8.28659 6.96308 8.12359C7.14258 8.02009 7.33758 7.94259 7.53108 7.86009C7.58808 7.83459 7.66608 7.77859 7.70458 7.89159C7.74408 8.00459 7.71058 8.08909 7.61108 8.12909C7.48658 8.17759 7.35358 8.20909 7.23558 8.27009C6.93458 8.42359 6.64008 8.58859 6.34208 8.75009C6.31774 8.76343 6.29291 8.77559 6.26758 8.78659ZM17.9061 10.8936C17.7001 11.0706 17.5101 11.2746 17.2161 11.3126C17.0241 11.3386 16.9231 11.2186 16.9666 11.0291C16.9821 10.9626 16.9951 10.8951 17.0136 10.8136C16.9166 10.8286 16.8416 10.8421 16.7581 10.8571C16.8001 10.7531 17.0916 10.5516 17.1811 10.5651C17.2106 10.5691 17.2496 10.6316 17.2481 10.6631C17.2456 10.7381 17.2131 10.8111 17.2051 10.8851C17.1986 10.9396 17.2116 10.9956 17.2141 11.0511C17.2701 11.0466 17.3326 11.0511 17.3826 11.0341C17.4956 10.9921 17.6036 10.9341 17.7161 10.8886C17.7691 10.8666 17.8291 10.8571 17.8851 10.8416C17.8906 10.8591 17.9001 10.8776 17.9061 10.8936ZM23.5051 10.6051C23.5481 10.6101 23.5916 10.6061 23.6301 10.6196C23.7051 10.6401 23.7416 10.6916 23.7086 10.7716C23.6946 10.8066 23.6756 10.8396 23.6571 10.8716C23.6151 10.9546 23.5976 11.0171 23.7301 11.0136C23.7601 11.0136 23.8131 11.0376 23.8166 11.0606C23.8246 11.0946 23.8146 11.1511 23.7871 11.1726C23.6546 11.2786 23.5066 11.3576 23.3316 11.3521C23.2961 11.3511 23.2401 11.3226 23.2351 11.2951C23.2246 11.2591 23.2416 11.2041 23.2661 11.1726C23.3081 11.1216 23.3691 11.0836 23.4136 11.0356C23.4631 10.9826 23.4696 10.9211 23.4031 10.8751C23.3366 10.8291 23.2406 10.7886 23.2986 10.6956C23.3341 10.6401 23.4236 10.6171 23.4901 10.5786C23.4941 10.5871 23.5011 10.5956 23.5051 10.6051ZM15.2411 7.94809C15.2551 7.93259 15.2491 7.93759 15.2436 7.94409C15.2046 8.01659 15.1636 8.12209 15.0691 8.08759C15.0291 8.06894 14.9933 8.04247 14.9638 8.00975C14.9343 7.97703 14.9116 7.93873 14.8971 7.89709C14.8656 7.78209 14.8781 7.65359 14.8726 7.53159L14.9161 7.52459C14.9661 7.63909 15.0171 7.75559 15.0651 7.87059L15.1186 7.86609C15.1481 7.74409 15.1756 7.62009 15.2051 7.49809L15.2391 7.49459C15.3004 7.59959 15.3616 7.70643 15.4226 7.81509C15.4406 7.81409 15.4551 7.81009 15.4711 7.80909L15.5296 7.35959C15.6331 7.49059 15.6501 7.61009 15.6516 7.73659C15.6516 7.83959 15.6261 7.94509 15.5226 7.97459C15.4491 7.99609 15.3571 7.96059 15.2411 7.94809ZM21.9521 8.45809C21.9831 8.40709 22.0036 8.34359 22.0476 8.30359C22.1801 8.18859 22.3221 8.08359 22.4576 7.97309C22.6066 7.84909 22.7501 7.72209 22.9016 7.59959C22.9301 7.57659 22.9821 7.54859 23.0066 7.55959C23.0361 7.57309 23.0511 7.62709 23.0586 7.66359C23.0786 7.76909 23.0481 7.84909 22.9516 7.90809C22.6671 8.08509 22.3871 8.26959 22.1031 8.44759C22.0691 8.46809 22.0311 8.47959 21.9916 8.49609C21.9791 8.48271 21.9659 8.47003 21.9521 8.45809ZM25.0801 6.22509C25.0676 6.13609 25.0661 6.04559 25.0421 5.95859C24.9886 5.75509 24.9386 5.54659 24.8566 5.35409C24.8076 5.23309 24.8051 5.14009 24.8781 5.04059C24.9476 4.94659 24.9986 4.94309 25.0391 5.04759C25.1051 5.21959 25.1721 5.39359 25.1946 5.57209C25.2191 5.74809 25.1896 5.92859 25.1781 6.10659C25.1756 6.14859 25.1441 6.18759 25.1271 6.22759C25.1115 6.22602 25.0958 6.22519 25.0801 6.22509ZM19.0501 5.73109C19.0501 5.64809 19.0391 5.58609 19.0531 5.53009C19.1061 5.31359 19.0326 5.14459 18.8826 4.99659C18.7676 4.88109 18.7641 4.75409 18.8846 4.64959C18.9141 4.62509 18.9941 4.61759 19.0216 4.64009C19.2691 4.83609 19.3211 5.45809 19.1176 5.69909C19.1101 5.70809 19.0971 5.70909 19.0501 5.73109ZM12.1591 6.61509C12.1991 6.80909 12.0001 7.06709 11.7821 7.07909C11.6546 7.08559 11.5281 6.95809 11.5271 6.80409C11.5221 6.55809 11.6621 6.38059 11.8321 6.22459C11.8416 6.21559 11.8631 6.22109 11.9126 6.21559C11.8656 6.31209 11.8246 6.38759 11.7946 6.46259C11.7636 6.53559 11.7306 6.61009 11.7216 6.68659C11.7151 6.73009 11.7431 6.80859 11.7761 6.82259C11.8191 6.84009 11.8916 6.82759 11.9351 6.80109C12.0121 6.75459 12.0761 6.68709 12.1591 6.61509Z" fill="white"/>
<path fill-rule="evenodd" clip-rule="evenodd" d="M19.3361 6.3331C19.3761 6.2286 19.4191 6.1241 19.4636 6.0131C19.5491 6.1156 19.5651 6.4001 19.4981 6.4846C19.4446 6.5516 19.3741 6.5581 19.3076 6.5061C19.2326 6.4471 19.1741 6.4461 19.0966 6.5071C19.0046 6.5821 18.9411 6.5631 18.9116 6.4516C18.8876 6.3616 18.8911 6.2671 18.8836 6.1766C18.8986 6.1711 18.9156 6.1671 18.9296 6.1626C18.9681 6.2261 19.0046 6.2901 19.0571 6.3801C19.1006 6.2681 19.1306 6.1831 19.1756 6.0656C19.2226 6.1771 19.2576 6.2516 19.2911 6.3296C19.3055 6.33026 19.3205 6.33143 19.3361 6.3331ZM11.3011 9.8436C11.3216 9.6676 11.3406 9.5111 11.3576 9.3546C11.1251 9.3231 11.0731 9.2461 11.1561 9.0766C11.1801 9.0286 11.2476 8.9571 11.2846 8.9646C11.3536 8.9761 11.4421 9.0191 11.4741 9.0781C11.5746 9.2586 11.5001 9.6621 11.3571 9.8141C11.3506 9.8231 11.3351 9.8256 11.3011 9.8436ZM8.59014 4.5301C8.60464 4.6251 8.60714 4.6891 8.62614 4.7476C8.63864 4.7911 8.67414 4.8266 8.69714 4.8671C8.73464 4.8431 8.78064 4.8266 8.80664 4.7956C8.84614 4.7386 8.87264 4.6736 8.93264 4.6111C8.93914 4.6626 8.93914 4.7156 8.95564 4.7601C8.97614 4.8071 9.01514 4.8456 9.04464 4.8876C9.07364 4.8516 9.10614 4.8191 9.13264 4.7806C9.14764 4.7591 9.15414 4.7326 9.16914 4.7031C9.24964 4.8116 9.24114 4.9446 9.15214 5.0211C9.04114 5.1156 8.97214 5.0271 8.90514 4.9541C8.72164 5.0711 8.64864 5.0756 8.56114 4.9766C8.46014 4.8591 8.45864 4.6891 8.59014 4.5301ZM22.8976 9.1301C22.8906 9.0666 22.8771 9.0286 22.8841 8.9966C22.9416 8.8051 22.8646 8.6741 22.7131 8.5661C22.6026 8.4891 22.6026 8.3956 22.7151 8.3181C22.7506 8.2941 22.8246 8.2851 22.8601 8.3056C23.0886 8.4381 23.1536 8.8686 22.9816 9.0646C22.9671 9.0821 22.9456 9.0946 22.8976 9.1301ZM14.6351 5.7681C14.6351 5.7116 14.6326 5.6556 14.6351 5.5996C14.6506 5.3516 14.6036 5.1201 14.4631 4.9086C14.4391 4.8741 14.4186 4.8131 14.4326 4.7806C14.4578 4.73085 14.4995 4.69143 14.5506 4.6691C14.5736 4.6621 14.6371 4.7181 14.6551 4.7566C14.7636 4.9871 14.7851 5.2316 14.7566 5.4796C14.7461 5.5801 14.7166 5.6781 14.6951 5.7776C14.6751 5.7756 14.6546 5.7706 14.6351 5.7681ZM6.80014 5.3211C6.81064 5.1096 6.91964 4.9361 6.83564 4.7471C6.80414 4.7596 6.78614 4.7716 6.76564 4.7771C6.71814 4.7841 6.66764 4.7881 6.61914 4.7931C6.63014 4.7416 6.62564 4.6771 6.65614 4.6401C6.71814 4.5666 6.78314 4.4606 6.90214 4.5091C7.01014 4.5546 7.01514 4.6671 7.00814 4.7696C6.99814 4.9636 6.91964 5.1296 6.80014 5.3211Z" fill="white"/>
</g>
<defs>
<clipPath id="clip0_579_7450">
<rect width="32" height="22" fill="white"/>
</clipPath>
</defs>
</svg>
