<svg width="36" height="36" viewBox="0 0 36 36" fill="none" xmlns="http://www.w3.org/2000/svg">
<rect width="36" height="36" rx="18" fill="#5F903A"/>
<path d="M17.9997 11.3334C14.3263 11.3334 11.333 14.3267 11.333 18C11.333 21.6734 14.3263 24.6667 17.9997 24.6667C21.673 24.6667 24.6663 21.6734 24.6663 18C24.6663 14.3267 21.673 11.3334 17.9997 11.3334ZM21.1863 16.4667L17.4063 20.2467C17.313 20.34 17.1863 20.3934 17.053 20.3934C16.9197 20.3934 16.793 20.34 16.6997 20.2467L14.813 18.36C14.6197 18.1667 14.6197 17.8467 14.813 17.6534C15.0063 17.46 15.3263 17.46 15.5197 17.6534L17.053 19.1867L20.4797 15.76C20.673 15.5667 20.993 15.5667 21.1863 15.76C21.3797 15.9534 21.3797 16.2667 21.1863 16.4667Z" fill="white"/>
</svg>
