<svg width="596" height="79" viewBox="0 0 596 79" fill="none" xmlns="http://www.w3.org/2000/svg">
<rect width="596" height="79" rx="16" fill="#FAFAFA"/>
<rect width="36" height="36" rx="10" transform="matrix(-1 -1.17938e-09 -1.17938e-09 1 48 21.5)" fill="white"/>
<path d="M38.1248 32.8544C38.1277 32.6594 38.0913 32.4658 38.018 32.285C37.9446 32.1043 37.8358 31.9401 37.6979 31.8022C37.5599 31.6643 37.3958 31.5554 37.215 31.4821C37.0343 31.4087 36.8407 31.3724 36.6457 31.3752L30.4057 31.4544C29.8068 31.4616 29.2346 31.703 28.8115 32.1269L22.729 38.2085C22.3765 38.561 22.064 39.0702 21.9357 39.6144C21.8057 40.1677 21.8557 40.8444 22.3765 41.3644L28.1348 47.1235C28.6557 47.6444 29.3323 47.6944 29.8857 47.5644C30.417 47.431 30.9027 47.1569 31.2915 46.771L37.3732 40.6885C37.7963 40.2649 38.0376 39.693 38.0457 39.0944L38.1248 32.8544ZM33.4648 34.7627C33.5833 34.6523 33.74 34.5922 33.902 34.5951C34.0639 34.5979 34.2184 34.6635 34.3329 34.778C34.4474 34.8925 34.513 35.047 34.5158 35.2089C34.5187 35.3709 34.4586 35.5276 34.3482 35.646L33.759 36.236C33.6411 36.3498 33.4832 36.4128 33.3193 36.4113C33.1554 36.4098 32.9987 36.344 32.8829 36.228C32.7671 36.1121 32.7014 35.9553 32.7001 35.7914C32.6987 35.6275 32.7618 35.4697 32.8757 35.3519L33.4648 34.7627Z" fill="#F3785D"/>
<rect x="58" y="24" width="491" height="8" rx="4" fill="#D9D9D9"/>
<rect x="58" y="47" width="171" height="8" rx="4" fill="#E9E7E7"/>
</svg>
