<svg width="32" height="32" viewBox="0 0 32 32" fill="none" xmlns="http://www.w3.org/2000/svg">
<g opacity="0.3">
<path d="M4.81791 8.21281C6.64917 6.22753 9.4202 5.22119 13.0527 5.22119H14.3579V8.90067L13.3085 9.11082C11.5203 9.46845 10.2764 10.172 9.61077 11.2044C9.26343 11.7606 9.06644 12.3975 9.03907 13.0527H13.0527C13.3989 13.0527 13.7309 13.1902 13.9756 13.4349C14.2204 13.6797 14.3579 14.0117 14.3579 14.3579V23.4946C14.3579 24.9343 13.1871 26.1051 11.7475 26.1051H3.91599C3.56982 26.1051 3.23782 25.9676 2.99304 25.7228C2.74826 25.478 2.61075 25.146 2.61075 24.7998V18.2736L2.61466 14.4636C2.60291 14.3187 2.35492 10.8859 4.81791 8.21281ZM26.1051 26.1051H18.2737C17.9275 26.1051 17.5955 25.9676 17.3507 25.7228C17.1059 25.478 16.9684 25.146 16.9684 24.7998V18.2736L16.9723 14.4636C16.9606 14.3187 16.7126 10.8859 19.1756 8.21281C21.0068 6.22753 23.7779 5.22119 27.4104 5.22119H28.7156V8.90067L27.6662 9.11082C25.878 9.46845 24.6341 10.172 23.9684 11.2044C23.6211 11.7606 23.4241 12.3975 23.3967 13.0527H27.4104C27.7565 13.0527 28.0885 13.1902 28.3333 13.4349C28.5781 13.6797 28.7156 14.0117 28.7156 14.3579V23.4946C28.7156 24.9343 27.5448 26.1051 26.1051 26.1051Z" fill="url(#paint0_linear_505_5440)"/>
</g>
<defs>
<linearGradient id="paint0_linear_505_5440" x1="2.60254" y1="15.6631" x2="28.7156" y2="15.6631" gradientUnits="userSpaceOnUse">
<stop stop-color="#005DFF"/>
<stop offset="1" stop-color="#5F5CA4"/>
</linearGradient>
</defs>
</svg>
